<ttFont>
<head>
    <!-- Most of this table will be recalculated by the compiler -->
    <tableVersion value="1.0"/>
    <fontRevision value="1.0"/>
    <checkSumAdjustment value="0xd7294469"/>
    <magicNumber value="0x5f0f3cf5"/>
    <flags value="00000000 00000011"/>
    <unitsPerEm value="1000"/>
    <created value="Mon Apr 19 19:43:45 2010"/>
    <modified value="Wed Oct 12 20:25:03 2016"/>
    <xMin value="-103"/>
    <yMin value="-274"/>
    <xMax value="1155"/>
    <yMax value="1003"/>
    <macStyle value="00000000 00000000"/>
    <lowestRecPPEM value="7"/>
    <fontDirectionHint value="2"/>
    <indexToLocFormat value="0"/>
    <glyphDataFormat value="0"/>
  </head>
    <TTGlyph name=".notdef" xMin="50" yMin="0" xMax="507" yMax="740">
      <contour>
        <pt x="50" y="740" on="1"/>
        <pt x="507" y="740" on="1"/>
        <pt x="507" y="0" on="1"/>
        <pt x="50" y="0" on="1"/>
      </contour>
      <contour>
        <pt x="100" y="50" on="1"/>
        <pt x="457" y="50" on="1"/>
        <pt x="457" y="690" on="1"/>
        <pt x="100" y="690" on="1"/>
      </contour>
    </TTGlyph>
    <TTGlyph name="A" xMin="17" yMin="0" xMax="706" yMax="740">
      <contour>
        <pt x="412" y="152" on="1"/>
        <pt x="489" y="152" on="1"/>
        <pt x="465" y="236" on="1"/>
        <pt x="257" y="236" on="1"/>
        <pt x="233" y="152" on="1"/>
        <pt x="312" y="152" on="1"/>
        <pt x="312" y="0" on="1"/>
        <pt x="17" y="0" on="1"/>
        <pt x="17" y="152" on="1"/>
        <pt x="68" y="152" on="1"/>
        <pt x="259" y="740" on="1"/>
        <pt x="474" y="740" on="1"/>
        <pt x="659" y="152" on="1"/>
        <pt x="706" y="152" on="1"/>
        <pt x="706" y="0" on="1"/>
        <pt x="412" y="0" on="1"/>
      </contour>
      <contour>
        <pt x="301" y="376" on="1"/>
        <pt x="421" y="376" on="1"/>
        <pt x="360" y="585" on="1"/>
      </contour>
    </TTGlyph>
    <TTGlyph name="AE" xMin="-23" yMin="0" xMax="1022" yMax="740">
      <contour>
        <pt x="43" y="152" on="1"/>
        <pt x="297" y="544" on="0"/>
        <pt x="425" y="740" on="1"/>
        <pt x="1022" y="740" on="1"/>
        <pt x="1022" y="473" on="1"/>
        <pt x="842" y="473" on="1"/>
        <pt x="842" y="570" on="1"/>
        <pt x="678" y="570" on="1"/>
        <pt x="678" y="452" on="1"/>
        <pt x="804" y="452" on="1"/>
        <pt x="804" y="300" on="1"/>
        <pt x="678" y="300" on="1"/>
        <pt x="678" y="152" on="1"/>
        <pt x="842" y="152" on="1"/>
        <pt x="842" y="285" on="1"/>
        <pt x="1022" y="285" on="1"/>
        <pt x="1022" y="0" on="1"/>
        <pt x="434" y="0" on="1"/>
        <pt x="434" y="152" on="1"/>
        <pt x="492" y="152" on="1"/>
        <pt x="492" y="198" on="1"/>
        <pt x="254" y="198" on="1"/>
        <pt x="239" y="175" on="1"/>
        <pt x="228" y="157" on="0"/>
        <pt x="224" y="152" on="1"/>
        <pt x="273" y="152" on="1"/>
        <pt x="273" y="0" on="1"/>
        <pt x="-23" y="0" on="1"/>
        <pt x="-23" y="152" on="1"/>
      </contour>
      <contour>
        <pt x="492" y="607" on="1"/>
        <pt x="481" y="576" on="1"/>
        <pt x="429" y="490" on="1"/>
        <pt x="345" y="350" on="1"/>
        <pt x="492" y="350" on="1"/>
      </contour>
    </TTGlyph>
    <TTGlyph name="Aacute" xMin="17" yMin="0" xMax="706" yMax="963">
      <contour>
        <pt x="420" y="963" on="1"/>
        <pt x="594" y="963" on="1"/>
        <pt x="594" y="950" on="1"/>
        <pt x="444" y="809" on="1"/>
        <pt x="314" y="809" on="1"/>
      </contour>
      <contour>
        <pt x="412" y="152" on="1"/>
        <pt x="489" y="152" on="1"/>
        <pt x="465" y="236" on="1"/>
        <pt x="257" y="236" on="1"/>
        <pt x="233" y="152" on="1"/>
        <pt x="312" y="152" on="1"/>
        <pt x="312" y="0" on="1"/>
        <pt x="17" y="0" on="1"/>
        <pt x="17" y="152" on="1"/>
        <pt x="68" y="152" on="1"/>
        <pt x="259" y="740" on="1"/>
        <pt x="474" y="740" on="1"/>
        <pt x="659" y="152" on="1"/>
        <pt x="706" y="152" on="1"/>
        <pt x="706" y="0" on="1"/>
        <pt x="412" y="0" on="1"/>
      </contour>
      <contour>
        <pt x="301" y="376" on="1"/>
        <pt x="421" y="376" on="1"/>
        <pt x="360" y="585" on="1"/>
      </contour>
    </TTGlyph>
    <TTGlyph name="Acircumflex" xMin="17" yMin="0" xMax="706" yMax="969">
      <contour>
        <pt x="306" y="808" on="1"/>
        <pt x="378" y="883" on="1"/>
        <pt x="453" y="808" on="1"/>
        <pt x="590" y="808" on="1"/>
        <pt x="452" y="969" on="1"/>
        <pt x="304" y="969" on="1"/>
        <pt x="167" y="808" on="1"/>
      </contour>
      <contour>
        <pt x="412" y="152" on="1"/>
        <pt x="489" y="152" on="1"/>
        <pt x="465" y="236" on="1"/>
        <pt x="257" y="236" on="1"/>
        <pt x="233" y="152" on="1"/>
        <pt x="312" y="152" on="1"/>
        <pt x="312" y="0" on="1"/>
        <pt x="17" y="0" on="1"/>
        <pt x="17" y="152" on="1"/>
        <pt x="68" y="152" on="1"/>
        <pt x="259" y="740" on="1"/>
        <pt x="474" y="740" on="1"/>
        <pt x="659" y="152" on="1"/>
        <pt x="706" y="152" on="1"/>
        <pt x="706" y="0" on="1"/>
        <pt x="412" y="0" on="1"/>
      </contour>
      <contour>
        <pt x="301" y="376" on="1"/>
        <pt x="421" y="376" on="1"/>
        <pt x="360" y="585" on="1"/>
      </contour>
    </TTGlyph>
    <TTGlyph name="Adieresis" xMin="17" yMin="0" xMax="706" yMax="982">
      <contour>
        <pt x="147" y="926" on="0"/>
        <pt x="202" y="982" on="0"/>
        <pt x="242" y="982" on="1"/>
        <pt x="281" y="982" on="0"/>
        <pt x="336" y="926" on="0"/>
        <pt x="336" y="886" on="1"/>
        <pt x="336" y="847" on="0"/>
        <pt x="281" y="791" on="0"/>
        <pt x="242" y="791" on="1"/>
        <pt x="202" y="791" on="0"/>
        <pt x="147" y="847" on="0"/>
        <pt x="147" y="886" on="1"/>
      </contour>
      <contour>
        <pt x="384" y="926" on="0"/>
        <pt x="439" y="982" on="0"/>
        <pt x="479" y="982" on="1"/>
        <pt x="518" y="982" on="0"/>
        <pt x="573" y="926" on="0"/>
        <pt x="573" y="886" on="1"/>
        <pt x="573" y="847" on="0"/>
        <pt x="518" y="791" on="0"/>
        <pt x="479" y="791" on="1"/>
        <pt x="439" y="791" on="0"/>
        <pt x="384" y="847" on="0"/>
        <pt x="384" y="886" on="1"/>
      </contour>
      <contour>
        <pt x="412" y="152" on="1"/>
        <pt x="489" y="152" on="1"/>
        <pt x="465" y="236" on="1"/>
        <pt x="257" y="236" on="1"/>
        <pt x="233" y="152" on="1"/>
        <pt x="312" y="152" on="1"/>
        <pt x="312" y="0" on="1"/>
        <pt x="17" y="0" on="1"/>
        <pt x="17" y="152" on="1"/>
        <pt x="68" y="152" on="1"/>
        <pt x="259" y="740" on="1"/>
        <pt x="474" y="740" on="1"/>
        <pt x="659" y="152" on="1"/>
        <pt x="706" y="152" on="1"/>
        <pt x="706" y="0" on="1"/>
        <pt x="412" y="0" on="1"/>
      </contour>
      <contour>
        <pt x="301" y="376" on="1"/>
        <pt x="421" y="376" on="1"/>
        <pt x="360" y="585" on="1"/>
      </contour>
    </TTGlyph>
    <TTGlyph name="Agrave" xMin="17" yMin="0" xMax="706" yMax="963">
      <contour>
        <pt x="443" y="809" on="1"/>
        <pt x="345" y="963" on="1"/>
        <pt x="172" y="963" on="1"/>
        <pt x="172" y="950" on="1"/>
        <pt x="316" y="809" on="1"/>
      </contour>
      <contour>
        <pt x="412" y="152" on="1"/>
        <pt x="489" y="152" on="1"/>
        <pt x="465" y="236" on="1"/>
        <pt x="257" y="236" on="1"/>
        <pt x="233" y="152" on="1"/>
        <pt x="312" y="152" on="1"/>
        <pt x="312" y="0" on="1"/>
        <pt x="17" y="0" on="1"/>
        <pt x="17" y="152" on="1"/>
        <pt x="68" y="152" on="1"/>
        <pt x="259" y="740" on="1"/>
        <pt x="474" y="740" on="1"/>
        <pt x="659" y="152" on="1"/>
        <pt x="706" y="152" on="1"/>
        <pt x="706" y="0" on="1"/>
        <pt x="412" y="0" on="1"/>
      </contour>
      <contour>
        <pt x="301" y="376" on="1"/>
        <pt x="421" y="376" on="1"/>
        <pt x="360" y="585" on="1"/>
      </contour>
    </TTGlyph>
    <TTGlyph name="Aring" xMin="17" yMin="0" xMax="706" yMax="1003">
      <contour>
        <pt x="706" y="152" on="1"/>
        <pt x="706" y="0" on="1"/>
        <pt x="412" y="0" on="1"/>
        <pt x="412" y="152" on="1"/>
        <pt x="489" y="152" on="1"/>
        <pt x="465" y="236" on="1"/>
        <pt x="257" y="236" on="1"/>
        <pt x="233" y="152" on="1"/>
        <pt x="312" y="152" on="1"/>
        <pt x="312" y="0" on="1"/>
        <pt x="17" y="0" on="1"/>
        <pt x="17" y="152" on="1"/>
        <pt x="68" y="152" on="1"/>
        <pt x="250" y="713" on="1"/>
        <pt x="224" y="737" on="0"/>
        <pt x="195" y="801" on="0"/>
        <pt x="195" y="837" on="1"/>
        <pt x="195" y="882" on="0"/>
        <pt x="239" y="958" on="0"/>
        <pt x="315" y="1003" on="0"/>
        <pt x="360" y="1003" on="1"/>
        <pt x="405" y="1003" on="0"/>
        <pt x="481" y="958" on="0"/>
        <pt x="526" y="882" on="0"/>
        <pt x="526" y="837" on="1"/>
        <pt x="526" y="805" on="0"/>
        <pt x="502" y="745" on="0"/>
        <pt x="480" y="722" on="1"/>
        <pt x="659" y="152" on="1"/>
      </contour>
      <contour>
        <pt x="333" y="900" on="0"/>
        <pt x="296" y="864" on="0"/>
        <pt x="296" y="837" on="1"/>
        <pt x="296" y="809" on="0"/>
        <pt x="333" y="772" on="0"/>
        <pt x="360" y="772" on="1"/>
        <pt x="388" y="772" on="0"/>
        <pt x="424" y="809" on="0"/>
        <pt x="424" y="837" on="1"/>
        <pt x="424" y="864" on="0"/>
        <pt x="388" y="900" on="0"/>
        <pt x="360" y="900" on="1"/>
      </contour>
      <contour>
        <pt x="301" y="376" on="1"/>
        <pt x="421" y="376" on="1"/>
        <pt x="360" y="585" on="1"/>
      </contour>
    </TTGlyph>
    <TTGlyph name="Atilde" xMin="17" yMin="0" xMax="706" yMax="967">
      <contour>
        <pt x="287" y="967" on="0"/>
        <pt x="320" y="956" on="0"/>
        <pt x="350" y="944" on="1"/>
        <pt x="377" y="933" on="0"/>
        <pt x="405" y="924" on="0"/>
        <pt x="419" y="924" on="1"/>
        <pt x="443" y="924" on="0"/>
        <pt x="477" y="938" on="0"/>
        <pt x="492" y="955" on="1"/>
        <pt x="576" y="915" on="1"/>
        <pt x="558" y="868" on="0"/>
        <pt x="478" y="804" on="0"/>
        <pt x="432" y="804" on="1"/>
        <pt x="408" y="804" on="0"/>
        <pt x="367" y="815" on="0"/>
        <pt x="341" y="826" on="1"/>
        <pt x="295" y="845" on="0"/>
        <pt x="267" y="845" on="1"/>
        <pt x="249" y="845" on="0"/>
        <pt x="223" y="832" on="0"/>
        <pt x="205" y="818" on="0"/>
        <pt x="202" y="816" on="1"/>
        <pt x="120" y="853" on="1"/>
        <pt x="129" y="887" on="0"/>
        <pt x="182" y="939" on="0"/>
        <pt x="246" y="967" on="0"/>
        <pt x="270" y="967" on="1"/>
      </contour>
      <contour>
        <pt x="412" y="152" on="1"/>
        <pt x="489" y="152" on="1"/>
        <pt x="465" y="236" on="1"/>
        <pt x="257" y="236" on="1"/>
        <pt x="233" y="152" on="1"/>
        <pt x="312" y="152" on="1"/>
        <pt x="312" y="0" on="1"/>
        <pt x="17" y="0" on="1"/>
        <pt x="17" y="152" on="1"/>
        <pt x="68" y="152" on="1"/>
        <pt x="259" y="740" on="1"/>
        <pt x="474" y="740" on="1"/>
        <pt x="659" y="152" on="1"/>
        <pt x="706" y="152" on="1"/>
        <pt x="706" y="0" on="1"/>
        <pt x="412" y="0" on="1"/>
      </contour>
      <contour>
        <pt x="301" y="376" on="1"/>
        <pt x="421" y="376" on="1"/>
        <pt x="360" y="585" on="1"/>
      </contour>
    </TTGlyph>
    <TTGlyph name="B" xMin="50" yMin="0" xMax="666" yMax="741">
      <contour>
        <pt x="133" y="152" on="1"/>
        <pt x="133" y="588" on="1"/>
        <pt x="50" y="588" on="1"/>
        <pt x="50" y="741" on="1"/>
        <pt x="426" y="740" on="1"/>
        <pt x="494" y="740" on="0"/>
        <pt x="599" y="678" on="0"/>
        <pt x="658" y="574" on="0"/>
        <pt x="658" y="513" on="1"/>
        <pt x="658" y="459" on="0"/>
        <pt x="627" y="390" on="0"/>
        <pt x="596" y="370" on="1"/>
        <pt x="631" y="346" on="0"/>
        <pt x="666" y="280" on="0"/>
        <pt x="666" y="232" on="1"/>
        <pt x="666" y="164" on="0"/>
        <pt x="606" y="59" on="0"/>
        <pt x="503" y="0" on="0"/>
        <pt x="439" y="0" on="1"/>
        <pt x="50" y="0" on="1"/>
        <pt x="50" y="152" on="1"/>
      </contour>
      <contour>
        <pt x="318" y="449" on="1"/>
        <pt x="416" y="449" on="1"/>
        <pt x="437" y="449" on="0"/>
        <pt x="467" y="492" on="0"/>
        <pt x="467" y="519" on="1"/>
        <pt x="467" y="543" on="0"/>
        <pt x="436" y="588" on="0"/>
        <pt x="416" y="588" on="1"/>
        <pt x="318" y="588" on="1"/>
      </contour>
      <contour>
        <pt x="318" y="152" on="1"/>
        <pt x="424" y="152" on="1"/>
        <pt x="445" y="152" on="0"/>
        <pt x="476" y="194" on="0"/>
        <pt x="476" y="222" on="1"/>
        <pt x="476" y="255" on="0"/>
        <pt x="445" y="298" on="0"/>
        <pt x="424" y="298" on="1"/>
        <pt x="318" y="298" on="1"/>
      </contour>
    </TTGlyph>
    <TTGlyph name="C" xMin="32" yMin="-13" xMax="712" yMax="754">
      <contour>
        <pt x="504" y="533" on="0"/>
        <pt x="432" y="579" on="0"/>
        <pt x="392" y="579" on="1"/>
        <pt x="346" y="579" on="0"/>
        <pt x="268" y="523" on="0"/>
        <pt x="222" y="427" on="0"/>
        <pt x="222" y="371" on="1"/>
        <pt x="222" y="314" on="0"/>
        <pt x="267" y="219" on="0"/>
        <pt x="344" y="163" on="0"/>
        <pt x="392" y="163" on="1"/>
        <pt x="423" y="163" on="0"/>
        <pt x="481" y="193" on="0"/>
        <pt x="522" y="237" on="0"/>
        <pt x="530" y="259" on="1"/>
        <pt x="712" y="213" on="1"/>
        <pt x="695" y="149" on="0"/>
        <pt x="605" y="46" on="0"/>
        <pt x="471" y="-13" on="0"/>
        <pt x="392" y="-13" on="1"/>
        <pt x="295" y="-13" on="0"/>
        <pt x="129" y="89" on="0"/>
        <pt x="32" y="266" on="0"/>
        <pt x="32" y="371" on="1"/>
        <pt x="32" y="476" on="0"/>
        <pt x="129" y="651" on="0"/>
        <pt x="294" y="754" on="0"/>
        <pt x="392" y="754" on="1"/>
        <pt x="502" y="754" on="0"/>
        <pt x="560" y="697" on="1"/>
        <pt x="688" y="697" on="1"/>
        <pt x="688" y="504" on="1"/>
        <pt x="521" y="504" on="1"/>
      </contour>
    </TTGlyph>
    <TTGlyph name="Ccaron" xMin="32" yMin="-13" xMax="712" yMax="947">
      <component glyphName="C" x="0" y="0" flags="0x0"/>
      <component glyphName="caron" x="158" y="234" flags="0x4"/>
    </TTGlyph>
    <TTGlyph name="Ccedilla" xMin="32" yMin="-226" xMax="712" yMax="754">
      <component glyphName="C" x="0" y="0" flags="0x0"/>
      <component glyphName="cedilla" x="137" y="0" flags="0x0"/>
    </TTGlyph>
    <TTGlyph name="D" xMin="29" yMin="0" xMax="680" yMax="740">
      <contour>
        <pt x="314" y="740" on="1"/>
        <pt x="414" y="740" on="0"/>
        <pt x="582" y="641" on="0"/>
        <pt x="680" y="472" on="0"/>
        <pt x="680" y="371" on="1"/>
        <pt x="680" y="270" on="0"/>
        <pt x="582" y="100" on="0"/>
        <pt x="414" y="0" on="0"/>
        <pt x="314" y="0" on="1"/>
        <pt x="29" y="0" on="1"/>
        <pt x="29" y="152" on="1"/>
        <pt x="82" y="152" on="1"/>
        <pt x="82" y="588" on="1"/>
        <pt x="29" y="588" on="1"/>
        <pt x="29" y="740" on="1"/>
      </contour>
      <contour>
        <pt x="268" y="152" on="1"/>
        <pt x="311" y="152" on="1"/>
        <pt x="358" y="152" on="0"/>
        <pt x="437" y="211" on="0"/>
        <pt x="483" y="311" on="0"/>
        <pt x="483" y="371" on="1"/>
        <pt x="483" y="431" on="0"/>
        <pt x="437" y="530" on="0"/>
        <pt x="358" y="588" on="0"/>
        <pt x="311" y="588" on="1"/>
        <pt x="268" y="588" on="1"/>
      </contour>
    </TTGlyph>
    <TTGlyph name="E" xMin="50" yMin="0" xMax="660" yMax="740">
      <contour>
        <pt x="50" y="740" on="1"/>
        <pt x="660" y="740" on="1"/>
        <pt x="660" y="473" on="1"/>
        <pt x="480" y="473" on="1"/>
        <pt x="480" y="570" on="1"/>
        <pt x="316" y="570" on="1"/>
        <pt x="316" y="457" on="1"/>
        <pt x="436" y="457" on="1"/>
        <pt x="436" y="294" on="1"/>
        <pt x="316" y="294" on="1"/>
        <pt x="316" y="152" on="1"/>
        <pt x="480" y="152" on="1"/>
        <pt x="480" y="285" on="1"/>
        <pt x="660" y="285" on="1"/>
        <pt x="660" y="0" on="1"/>
        <pt x="50" y="0" on="1"/>
        <pt x="50" y="152" on="1"/>
        <pt x="130" y="152" on="1"/>
        <pt x="130" y="570" on="1"/>
        <pt x="50" y="570" on="1"/>
      </contour>
    </TTGlyph>
    <TTGlyph name="Eacute" xMin="53" yMin="0" xMax="663" yMax="963">
      <contour>
        <pt x="430" y="963" on="1"/>
        <pt x="604" y="963" on="1"/>
        <pt x="604" y="950" on="1"/>
        <pt x="454" y="809" on="1"/>
        <pt x="324" y="809" on="1"/>
      </contour>
      <contour>
        <pt x="53" y="740" on="1"/>
        <pt x="663" y="740" on="1"/>
        <pt x="663" y="473" on="1"/>
        <pt x="483" y="473" on="1"/>
        <pt x="483" y="570" on="1"/>
        <pt x="319" y="570" on="1"/>
        <pt x="319" y="457" on="1"/>
        <pt x="440" y="457" on="1"/>
        <pt x="440" y="294" on="1"/>
        <pt x="319" y="294" on="1"/>
        <pt x="319" y="152" on="1"/>
        <pt x="483" y="152" on="1"/>
        <pt x="483" y="285" on="1"/>
        <pt x="663" y="285" on="1"/>
        <pt x="663" y="0" on="1"/>
        <pt x="53" y="0" on="1"/>
        <pt x="53" y="152" on="1"/>
        <pt x="134" y="152" on="1"/>
        <pt x="134" y="570" on="1"/>
        <pt x="53" y="570" on="1"/>
      </contour>
    </TTGlyph>
    <TTGlyph name="Ecircumflex" xMin="53" yMin="0" xMax="663" yMax="969">
      <contour>
        <pt x="316" y="808" on="1"/>
        <pt x="388" y="883" on="1"/>
        <pt x="463" y="808" on="1"/>
        <pt x="600" y="808" on="1"/>
        <pt x="462" y="969" on="1"/>
        <pt x="314" y="969" on="1"/>
        <pt x="177" y="808" on="1"/>
      </contour>
      <contour>
        <pt x="53" y="740" on="1"/>
        <pt x="663" y="740" on="1"/>
        <pt x="663" y="473" on="1"/>
        <pt x="483" y="473" on="1"/>
        <pt x="483" y="570" on="1"/>
        <pt x="319" y="570" on="1"/>
        <pt x="319" y="457" on="1"/>
        <pt x="440" y="457" on="1"/>
        <pt x="440" y="294" on="1"/>
        <pt x="319" y="294" on="1"/>
        <pt x="319" y="152" on="1"/>
        <pt x="483" y="152" on="1"/>
        <pt x="483" y="285" on="1"/>
        <pt x="663" y="285" on="1"/>
        <pt x="663" y="0" on="1"/>
        <pt x="53" y="0" on="1"/>
        <pt x="53" y="152" on="1"/>
        <pt x="134" y="152" on="1"/>
        <pt x="134" y="570" on="1"/>
        <pt x="53" y="570" on="1"/>
      </contour>
    </TTGlyph>
    <TTGlyph name="Edieresis" xMin="53" yMin="0" xMax="663" yMax="982">
      <contour>
        <pt x="157" y="926" on="0"/>
        <pt x="212" y="982" on="0"/>
        <pt x="252" y="982" on="1"/>
        <pt x="291" y="982" on="0"/>
        <pt x="346" y="926" on="0"/>
        <pt x="346" y="886" on="1"/>
        <pt x="346" y="847" on="0"/>
        <pt x="291" y="791" on="0"/>
        <pt x="252" y="791" on="1"/>
        <pt x="212" y="791" on="0"/>
        <pt x="157" y="847" on="0"/>
        <pt x="157" y="886" on="1"/>
      </contour>
      <contour>
        <pt x="395" y="926" on="0"/>
        <pt x="450" y="982" on="0"/>
        <pt x="490" y="982" on="1"/>
        <pt x="529" y="982" on="0"/>
        <pt x="584" y="926" on="0"/>
        <pt x="584" y="886" on="1"/>
        <pt x="584" y="847" on="0"/>
        <pt x="529" y="791" on="0"/>
        <pt x="490" y="791" on="1"/>
        <pt x="450" y="791" on="0"/>
        <pt x="395" y="847" on="0"/>
        <pt x="395" y="886" on="1"/>
      </contour>
      <contour>
        <pt x="53" y="740" on="1"/>
        <pt x="663" y="740" on="1"/>
        <pt x="663" y="473" on="1"/>
        <pt x="483" y="473" on="1"/>
        <pt x="483" y="570" on="1"/>
        <pt x="319" y="570" on="1"/>
        <pt x="319" y="457" on="1"/>
        <pt x="440" y="457" on="1"/>
        <pt x="440" y="294" on="1"/>
        <pt x="319" y="294" on="1"/>
        <pt x="319" y="152" on="1"/>
        <pt x="483" y="152" on="1"/>
        <pt x="483" y="285" on="1"/>
        <pt x="663" y="285" on="1"/>
        <pt x="663" y="0" on="1"/>
        <pt x="53" y="0" on="1"/>
        <pt x="53" y="152" on="1"/>
        <pt x="134" y="152" on="1"/>
        <pt x="134" y="570" on="1"/>
        <pt x="53" y="570" on="1"/>
      </contour>
    </TTGlyph>
    <TTGlyph name="Egrave" xMin="53" yMin="0" xMax="663" yMax="963">
      <contour>
        <pt x="453" y="809" on="1"/>
        <pt x="355" y="963" on="1"/>
        <pt x="182" y="963" on="1"/>
        <pt x="182" y="950" on="1"/>
        <pt x="326" y="809" on="1"/>
      </contour>
      <contour>
        <pt x="53" y="740" on="1"/>
        <pt x="663" y="740" on="1"/>
        <pt x="663" y="473" on="1"/>
        <pt x="483" y="473" on="1"/>
        <pt x="483" y="570" on="1"/>
        <pt x="319" y="570" on="1"/>
        <pt x="319" y="457" on="1"/>
        <pt x="440" y="457" on="1"/>
        <pt x="440" y="294" on="1"/>
        <pt x="319" y="294" on="1"/>
        <pt x="319" y="152" on="1"/>
        <pt x="483" y="152" on="1"/>
        <pt x="483" y="285" on="1"/>
        <pt x="663" y="285" on="1"/>
        <pt x="663" y="0" on="1"/>
        <pt x="53" y="0" on="1"/>
        <pt x="53" y="152" on="1"/>
        <pt x="134" y="152" on="1"/>
        <pt x="134" y="570" on="1"/>
        <pt x="53" y="570" on="1"/>
      </contour>
    </TTGlyph>
    <TTGlyph name="Eth" xMin="21" yMin="0" xMax="681" yMax="740">
      <contour>
        <pt x="415" y="740" on="0"/>
        <pt x="583" y="641" on="0"/>
        <pt x="681" y="472" on="0"/>
        <pt x="681" y="371" on="1"/>
        <pt x="681" y="270" on="0"/>
        <pt x="583" y="100" on="0"/>
        <pt x="415" y="0" on="0"/>
        <pt x="315" y="0" on="1"/>
        <pt x="30" y="0" on="1"/>
        <pt x="30" y="152" on="1"/>
        <pt x="83" y="152" on="1"/>
        <pt x="83" y="294" on="1"/>
        <pt x="21" y="294" on="1"/>
        <pt x="21" y="446" on="1"/>
        <pt x="83" y="446" on="1"/>
        <pt x="83" y="588" on="1"/>
        <pt x="30" y="588" on="1"/>
        <pt x="30" y="740" on="1"/>
        <pt x="315" y="740" on="1"/>
      </contour>
      <contour>
        <pt x="358" y="152" on="0"/>
        <pt x="437" y="211" on="0"/>
        <pt x="483" y="311" on="0"/>
        <pt x="483" y="371" on="1"/>
        <pt x="483" y="431" on="0"/>
        <pt x="437" y="530" on="0"/>
        <pt x="358" y="588" on="0"/>
        <pt x="312" y="588" on="1"/>
        <pt x="269" y="588" on="1"/>
        <pt x="269" y="446" on="1"/>
        <pt x="341" y="446" on="1"/>
        <pt x="341" y="294" on="1"/>
        <pt x="269" y="294" on="1"/>
        <pt x="269" y="152" on="1"/>
        <pt x="312" y="152" on="1"/>
      </contour>
    </TTGlyph>
    <TTGlyph name="F" xMin="49" yMin="0" xMax="637" yMax="740">
      <contour>
        <pt x="49" y="740" on="1"/>
        <pt x="637" y="740" on="1"/>
        <pt x="637" y="473" on="1"/>
        <pt x="457" y="473" on="1"/>
        <pt x="457" y="569" on="1"/>
        <pt x="315" y="569" on="1"/>
        <pt x="315" y="442" on="1"/>
        <pt x="430" y="442" on="1"/>
        <pt x="430" y="279" on="1"/>
        <pt x="315" y="279" on="1"/>
        <pt x="315" y="152" on="1"/>
        <pt x="394" y="152" on="1"/>
        <pt x="394" y="0" on="1"/>
        <pt x="50" y="0" on="1"/>
        <pt x="50" y="152" on="1"/>
        <pt x="130" y="152" on="1"/>
        <pt x="130" y="569" on="1"/>
        <pt x="49" y="569" on="1"/>
      </contour>
    </TTGlyph>
    <TTGlyph name="G" xMin="32" yMin="-7" xMax="741" yMax="753">
      <contour>
        <pt x="576" y="121" on="1"/>
        <pt x="544" y="55" on="0"/>
        <pt x="434" y="-7" on="0"/>
        <pt x="367" y="-6" on="1"/>
        <pt x="308" y="-4" on="0"/>
        <pt x="193" y="46" on="0"/>
        <pt x="151" y="88" on="1"/>
        <pt x="95" y="143" on="0"/>
        <pt x="32" y="289" on="0"/>
        <pt x="32" y="371" on="1"/>
        <pt x="32" y="475" on="0"/>
        <pt x="129" y="650" on="0"/>
        <pt x="295" y="753" on="0"/>
        <pt x="392" y="753" on="1"/>
        <pt x="436" y="753" on="0"/>
        <pt x="505" y="746" on="0"/>
        <pt x="540" y="735" on="1"/>
        <pt x="689" y="697" on="1"/>
        <pt x="689" y="504" on="1"/>
        <pt x="521" y="504" on="1"/>
        <pt x="505" y="531" on="0"/>
        <pt x="435" y="562" on="0"/>
        <pt x="392" y="562" on="1"/>
        <pt x="346" y="562" on="0"/>
        <pt x="267" y="511" on="0"/>
        <pt x="221" y="424" on="0"/>
        <pt x="221" y="371" on="1"/>
        <pt x="221" y="320" on="0"/>
        <pt x="268" y="233" on="0"/>
        <pt x="346" y="182" on="0"/>
        <pt x="392" y="182" on="1"/>
        <pt x="429" y="182" on="0"/>
        <pt x="491" y="223" on="0"/>
        <pt x="505" y="258" on="1"/>
        <pt x="387" y="258" on="1"/>
        <pt x="387" y="410" on="1"/>
        <pt x="741" y="410" on="1"/>
        <pt x="741" y="1" on="1"/>
        <pt x="576" y="1" on="1"/>
      </contour>
    </TTGlyph>
    <TTGlyph name="H" xMin="50" yMin="0" xMax="882" yMax="740">
      <contour>
        <pt x="537" y="740" on="1"/>
        <pt x="882" y="740" on="1"/>
        <pt x="882" y="588" on="1"/>
        <pt x="801" y="588" on="1"/>
        <pt x="801" y="152" on="1"/>
        <pt x="882" y="152" on="1"/>
        <pt x="882" y="0" on="1"/>
        <pt x="537" y="0" on="1"/>
        <pt x="537" y="152" on="1"/>
        <pt x="615" y="152" on="1"/>
        <pt x="615" y="313" on="1"/>
        <pt x="315" y="313" on="1"/>
        <pt x="315" y="152" on="1"/>
        <pt x="394" y="152" on="1"/>
        <pt x="394" y="0" on="1"/>
        <pt x="50" y="0" on="1"/>
        <pt x="50" y="152" on="1"/>
        <pt x="129" y="152" on="1"/>
        <pt x="129" y="588" on="1"/>
        <pt x="50" y="588" on="1"/>
        <pt x="50" y="740" on="1"/>
        <pt x="394" y="740" on="1"/>
        <pt x="394" y="588" on="1"/>
        <pt x="315" y="588" on="1"/>
        <pt x="315" y="459" on="1"/>
        <pt x="615" y="459" on="1"/>
        <pt x="615" y="588" on="1"/>
        <pt x="537" y="588" on="1"/>
      </contour>
    </TTGlyph>
    <TTGlyph name="I" xMin="49" yMin="0" xMax="394" yMax="740">
      <contour>
        <pt x="49" y="740" on="1"/>
        <pt x="394" y="740" on="1"/>
        <pt x="394" y="588" on="1"/>
        <pt x="315" y="588" on="1"/>
        <pt x="315" y="152" on="1"/>
        <pt x="394" y="152" on="1"/>
        <pt x="394" y="0" on="1"/>
        <pt x="50" y="0" on="1"/>
        <pt x="50" y="152" on="1"/>
        <pt x="130" y="152" on="1"/>
        <pt x="130" y="588" on="1"/>
        <pt x="49" y="588" on="1"/>
      </contour>
    </TTGlyph>
    <TTGlyph name="Iacute" xMin="56" yMin="0" xMax="461" yMax="963">
      <contour>
        <pt x="287" y="963" on="1"/>
        <pt x="461" y="963" on="1"/>
        <pt x="461" y="950" on="1"/>
        <pt x="311" y="809" on="1"/>
        <pt x="181" y="809" on="1"/>
      </contour>
      <contour>
        <pt x="56" y="740" on="1"/>
        <pt x="401" y="740" on="1"/>
        <pt x="401" y="588" on="1"/>
        <pt x="322" y="588" on="1"/>
        <pt x="322" y="152" on="1"/>
        <pt x="401" y="152" on="1"/>
        <pt x="401" y="0" on="1"/>
        <pt x="56" y="0" on="1"/>
        <pt x="56" y="152" on="1"/>
        <pt x="137" y="152" on="1"/>
        <pt x="137" y="588" on="1"/>
        <pt x="56" y="588" on="1"/>
      </contour>
    </TTGlyph>
    <TTGlyph name="Icircumflex" xMin="33" yMin="0" xMax="456" yMax="969">
      <contour>
        <pt x="172" y="808" on="1"/>
        <pt x="244" y="883" on="1"/>
        <pt x="319" y="808" on="1"/>
        <pt x="456" y="808" on="1"/>
        <pt x="318" y="969" on="1"/>
        <pt x="170" y="969" on="1"/>
        <pt x="33" y="808" on="1"/>
      </contour>
      <contour>
        <pt x="56" y="740" on="1"/>
        <pt x="401" y="740" on="1"/>
        <pt x="401" y="588" on="1"/>
        <pt x="322" y="588" on="1"/>
        <pt x="322" y="152" on="1"/>
        <pt x="401" y="152" on="1"/>
        <pt x="401" y="0" on="1"/>
        <pt x="56" y="0" on="1"/>
        <pt x="56" y="152" on="1"/>
        <pt x="137" y="152" on="1"/>
        <pt x="137" y="588" on="1"/>
        <pt x="56" y="588" on="1"/>
      </contour>
    </TTGlyph>
    <TTGlyph name="Idieresis" xMin="13" yMin="0" xMax="440" yMax="982">
      <contour>
        <pt x="13" y="926" on="0"/>
        <pt x="68" y="982" on="0"/>
        <pt x="108" y="982" on="1"/>
        <pt x="147" y="982" on="0"/>
        <pt x="202" y="926" on="0"/>
        <pt x="202" y="886" on="1"/>
        <pt x="202" y="847" on="0"/>
        <pt x="147" y="791" on="0"/>
        <pt x="108" y="791" on="1"/>
        <pt x="68" y="791" on="0"/>
        <pt x="13" y="847" on="0"/>
        <pt x="13" y="886" on="1"/>
      </contour>
      <contour>
        <pt x="251" y="926" on="0"/>
        <pt x="306" y="982" on="0"/>
        <pt x="346" y="982" on="1"/>
        <pt x="385" y="982" on="0"/>
        <pt x="440" y="926" on="0"/>
        <pt x="440" y="886" on="1"/>
        <pt x="440" y="847" on="0"/>
        <pt x="385" y="791" on="0"/>
        <pt x="346" y="791" on="1"/>
        <pt x="306" y="791" on="0"/>
        <pt x="251" y="847" on="0"/>
        <pt x="251" y="886" on="1"/>
      </contour>
      <contour>
        <pt x="56" y="740" on="1"/>
        <pt x="401" y="740" on="1"/>
        <pt x="401" y="588" on="1"/>
        <pt x="322" y="588" on="1"/>
        <pt x="322" y="152" on="1"/>
        <pt x="401" y="152" on="1"/>
        <pt x="401" y="0" on="1"/>
        <pt x="56" y="0" on="1"/>
        <pt x="56" y="152" on="1"/>
        <pt x="137" y="152" on="1"/>
        <pt x="137" y="588" on="1"/>
        <pt x="56" y="588" on="1"/>
      </contour>
    </TTGlyph>
    <TTGlyph name="Igrave" xMin="39" yMin="0" xMax="401" yMax="963">
      <contour>
        <pt x="310" y="809" on="1"/>
        <pt x="212" y="963" on="1"/>
        <pt x="39" y="963" on="1"/>
        <pt x="39" y="950" on="1"/>
        <pt x="183" y="809" on="1"/>
      </contour>
      <contour>
        <pt x="56" y="740" on="1"/>
        <pt x="401" y="740" on="1"/>
        <pt x="401" y="588" on="1"/>
        <pt x="322" y="588" on="1"/>
        <pt x="322" y="152" on="1"/>
        <pt x="401" y="152" on="1"/>
        <pt x="401" y="0" on="1"/>
        <pt x="56" y="0" on="1"/>
        <pt x="56" y="152" on="1"/>
        <pt x="137" y="152" on="1"/>
        <pt x="137" y="588" on="1"/>
        <pt x="56" y="588" on="1"/>
      </contour>
    </TTGlyph>
    <TTGlyph name="J" xMin="-11" yMin="-116" xMax="323" yMax="740">
      <contour>
        <pt x="323" y="740" on="1"/>
        <pt x="323" y="569" on="1"/>
        <pt x="274" y="569" on="1"/>
        <pt x="274" y="84" on="1"/>
        <pt x="274" y="59" on="0"/>
        <pt x="216" y="-30" on="0"/>
        <pt x="154" y="-105" on="0"/>
        <pt x="144" y="-116" on="1"/>
        <pt x="-11" y="-109" on="1"/>
        <pt x="-3" y="-97" on="0"/>
        <pt x="47" y="-17" on="0"/>
        <pt x="93" y="76" on="0"/>
        <pt x="93" y="100" on="1"/>
        <pt x="93" y="569" on="1"/>
        <pt x="28" y="569" on="1"/>
        <pt x="28" y="740" on="1"/>
      </contour>
    </TTGlyph>
    <TTGlyph name="K" xMin="55" yMin="0" xMax="783" yMax="740">
      <contour>
        <pt x="55" y="740" on="1"/>
        <pt x="372" y="740" on="1"/>
        <pt x="372" y="606" on="1"/>
        <pt x="294" y="606" on="1"/>
        <pt x="294" y="391" on="1"/>
        <pt x="531" y="597" on="1"/>
        <pt x="531" y="740" on="1"/>
        <pt x="783" y="740" on="1"/>
        <pt x="783" y="596" on="1"/>
        <pt x="728" y="596" on="1"/>
        <pt x="481" y="384" on="1"/>
        <pt x="718" y="145" on="1"/>
        <pt x="778" y="145" on="1"/>
        <pt x="778" y="0" on="1"/>
        <pt x="532" y="0" on="1"/>
        <pt x="532" y="145" on="1"/>
        <pt x="294" y="383" on="1"/>
        <pt x="294" y="134" on="1"/>
        <pt x="372" y="134" on="1"/>
        <pt x="372" y="0" on="1"/>
        <pt x="55" y="0" on="1"/>
        <pt x="55" y="134" on="1"/>
        <pt x="132" y="134" on="1"/>
        <pt x="132" y="606" on="1"/>
        <pt x="55" y="606" on="1"/>
      </contour>
    </TTGlyph>
    <TTGlyph name="L" xMin="50" yMin="0" xMax="654" yMax="740">
      <contour>
        <pt x="394" y="740" on="1"/>
        <pt x="394" y="588" on="1"/>
        <pt x="316" y="588" on="1"/>
        <pt x="316" y="152" on="1"/>
        <pt x="443" y="152" on="1"/>
        <pt x="455" y="152" on="0"/>
        <pt x="474" y="177" on="0"/>
        <pt x="474" y="190" on="1"/>
        <pt x="474" y="291" on="1"/>
        <pt x="654" y="291" on="1"/>
        <pt x="654" y="0" on="1"/>
        <pt x="50" y="0" on="1"/>
        <pt x="50" y="152" on="1"/>
        <pt x="130" y="152" on="1"/>
        <pt x="130" y="588" on="1"/>
        <pt x="50" y="588" on="1"/>
        <pt x="50" y="740" on="1"/>
      </contour>
    </TTGlyph>
    <TTGlyph name="M" xMin="47" yMin="0" xMax="1118" yMax="740">
      <contour>
        <pt x="47" y="152" on="1"/>
        <pt x="116" y="152" on="1"/>
        <pt x="116" y="591" on="1"/>
        <pt x="50" y="591" on="1"/>
        <pt x="50" y="740" on="1"/>
        <pt x="378" y="740" on="1"/>
        <pt x="590" y="244" on="1"/>
        <pt x="780" y="740" on="1"/>
        <pt x="1118" y="740" on="1"/>
        <pt x="1118" y="591" on="1"/>
        <pt x="1052" y="591" on="1"/>
        <pt x="1052" y="152" on="1"/>
        <pt x="1117" y="152" on="1"/>
        <pt x="1117" y="0" on="1"/>
        <pt x="827" y="0" on="1"/>
        <pt x="827" y="152" on="1"/>
        <pt x="870" y="152" on="1"/>
        <pt x="870" y="527" on="1"/>
        <pt x="661" y="12" on="1"/>
        <pt x="505" y="12" on="1"/>
        <pt x="296" y="507" on="1"/>
        <pt x="290" y="152" on="1"/>
        <pt x="338" y="152" on="1"/>
        <pt x="338" y="0" on="1"/>
        <pt x="47" y="0" on="1"/>
      </contour>
    </TTGlyph>
    <TTGlyph name="N" xMin="50" yMin="0" xMax="818" yMax="741">
      <contour>
        <pt x="522" y="740" on="1"/>
        <pt x="818" y="740" on="1"/>
        <pt x="818" y="588" on="1"/>
        <pt x="759" y="588" on="1"/>
        <pt x="759" y="0" on="1"/>
        <pt x="583" y="0" on="1"/>
        <pt x="288" y="431" on="1"/>
        <pt x="288" y="152" on="1"/>
        <pt x="345" y="152" on="1"/>
        <pt x="345" y="0" on="1"/>
        <pt x="51" y="0" on="1"/>
        <pt x="51" y="152" on="1"/>
        <pt x="108" y="152" on="1"/>
        <pt x="108" y="588" on="1"/>
        <pt x="50" y="588" on="1"/>
        <pt x="50" y="741" on="1"/>
        <pt x="285" y="741" on="1"/>
        <pt x="578" y="299" on="1"/>
        <pt x="578" y="588" on="1"/>
        <pt x="522" y="588" on="1"/>
      </contour>
    </TTGlyph>
    <TTGlyph name="Ntilde" xMin="57" yMin="0" xMax="825" yMax="967">
      <contour>
        <pt x="358" y="967" on="0"/>
        <pt x="391" y="956" on="0"/>
        <pt x="421" y="944" on="1"/>
        <pt x="448" y="933" on="0"/>
        <pt x="476" y="924" on="0"/>
        <pt x="490" y="924" on="1"/>
        <pt x="514" y="924" on="0"/>
        <pt x="548" y="938" on="0"/>
        <pt x="563" y="955" on="1"/>
        <pt x="647" y="915" on="1"/>
        <pt x="629" y="868" on="0"/>
        <pt x="549" y="804" on="0"/>
        <pt x="503" y="804" on="1"/>
        <pt x="479" y="804" on="0"/>
        <pt x="438" y="815" on="0"/>
        <pt x="412" y="826" on="1"/>
        <pt x="366" y="845" on="0"/>
        <pt x="338" y="845" on="1"/>
        <pt x="320" y="845" on="0"/>
        <pt x="294" y="832" on="0"/>
        <pt x="276" y="818" on="0"/>
        <pt x="273" y="816" on="1"/>
        <pt x="191" y="853" on="1"/>
        <pt x="200" y="887" on="0"/>
        <pt x="253" y="939" on="0"/>
        <pt x="317" y="967" on="0"/>
        <pt x="341" y="967" on="1"/>
      </contour>
      <contour>
        <pt x="529" y="740" on="1"/>
        <pt x="825" y="740" on="1"/>
        <pt x="825" y="588" on="1"/>
        <pt x="766" y="588" on="1"/>
        <pt x="766" y="0" on="1"/>
        <pt x="591" y="0" on="1"/>
        <pt x="295" y="431" on="1"/>
        <pt x="295" y="152" on="1"/>
        <pt x="352" y="152" on="1"/>
        <pt x="352" y="0" on="1"/>
        <pt x="58" y="0" on="1"/>
        <pt x="58" y="152" on="1"/>
        <pt x="115" y="152" on="1"/>
        <pt x="115" y="588" on="1"/>
        <pt x="57" y="588" on="1"/>
        <pt x="57" y="741" on="1"/>
        <pt x="292" y="741" on="1"/>
        <pt x="585" y="299" on="1"/>
        <pt x="585" y="588" on="1"/>
        <pt x="529" y="588" on="1"/>
      </contour>
    </TTGlyph>
    <TTGlyph name="O" xMin="30" yMin="-12" xMax="750" yMax="754">
      <contour>
        <pt x="292" y="-12" on="0"/>
        <pt x="127" y="91" on="0"/>
        <pt x="30" y="266" on="0"/>
        <pt x="30" y="370" on="1"/>
        <pt x="30" y="475" on="0"/>
        <pt x="127" y="651" on="0"/>
        <pt x="292" y="754" on="0"/>
        <pt x="389" y="754" on="1"/>
        <pt x="487" y="754" on="0"/>
        <pt x="652" y="651" on="0"/>
        <pt x="750" y="475" on="0"/>
        <pt x="750" y="370" on="1"/>
        <pt x="750" y="266" on="0"/>
        <pt x="653" y="90" on="0"/>
        <pt x="487" y="-12" on="0"/>
        <pt x="389" y="-12" on="1"/>
      </contour>
      <contour>
        <pt x="438" y="163" on="0"/>
        <pt x="515" y="218" on="0"/>
        <pt x="559" y="313" on="0"/>
        <pt x="559" y="370" on="1"/>
        <pt x="559" y="427" on="0"/>
        <pt x="514" y="522" on="0"/>
        <pt x="437" y="578" on="0"/>
        <pt x="389" y="578" on="1"/>
        <pt x="342" y="578" on="0"/>
        <pt x="265" y="522" on="0"/>
        <pt x="220" y="427" on="0"/>
        <pt x="220" y="370" on="1"/>
        <pt x="220" y="314" on="0"/>
        <pt x="265" y="219" on="0"/>
        <pt x="342" y="163" on="0"/>
        <pt x="389" y="163" on="1"/>
      </contour>
    </TTGlyph>
    <TTGlyph name="Oacute" xMin="30" yMin="-12" xMax="750" yMax="923">
      <component glyphName="O" x="0" y="0" flags="0x0"/>
      <component glyphName="acute" x="333" y="194" flags="0x4"/>
    </TTGlyph>
    <TTGlyph name="Ocircumflex" xMin="30" yMin="-12" xMax="750" yMax="969">
      <component glyphName="O" x="0" y="0" flags="0x0"/>
      <component glyphName="circumflex" x="176" y="234" flags="0x4"/>
    </TTGlyph>
    <TTGlyph name="Odieresis" xMin="30" yMin="-12" xMax="750" yMax="982">
      <component glyphName="O" x="0" y="0" flags="0x0"/>
      <component glyphName="dotaccent" x="144" y="223" flags="0x4"/>
      <component glyphName="dotaccent" x="382" y="223" flags="0x4"/>
    </TTGlyph>
    <TTGlyph name="Ograve" xMin="30" yMin="-12" xMax="750" yMax="923">
      <component glyphName="O" x="0" y="0" flags="0x0"/>
      <component glyphName="grave" x="124" y="194" flags="0x4"/>
    </TTGlyph>
    <TTGlyph name="Oslash" xMin="7" yMin="-12" xMax="750" yMax="794">
      <contour>
        <pt x="691" y="594" on="0"/>
        <pt x="750" y="450" on="0"/>
        <pt x="750" y="370" on="1"/>
        <pt x="750" y="266" on="0"/>
        <pt x="653" y="90" on="0"/>
        <pt x="487" y="-12" on="0"/>
        <pt x="389" y="-12" on="1"/>
        <pt x="335" y="-12" on="0"/>
        <pt x="234" y="21" on="0"/>
        <pt x="190" y="52" on="1"/>
        <pt x="146" y="-6" on="1"/>
        <pt x="7" y="-6" on="1"/>
        <pt x="110" y="130" on="1"/>
        <pt x="72" y="180" on="0"/>
        <pt x="30" y="303" on="0"/>
        <pt x="30" y="370" on="1"/>
        <pt x="30" y="475" on="0"/>
        <pt x="127" y="651" on="0"/>
        <pt x="292" y="754" on="0"/>
        <pt x="389" y="754" on="1"/>
        <pt x="476" y="754" on="0"/>
        <pt x="552" y="712" on="1"/>
        <pt x="614" y="794" on="1"/>
        <pt x="749" y="794" on="1"/>
        <pt x="638" y="647" on="1"/>
      </contour>
      <contour>
        <pt x="220" y="329" on="0"/>
        <pt x="232" y="291" on="1"/>
        <pt x="443" y="568" on="1"/>
        <pt x="415" y="578" on="0"/>
        <pt x="389" y="578" on="1"/>
        <pt x="342" y="578" on="0"/>
        <pt x="265" y="522" on="0"/>
        <pt x="220" y="427" on="0"/>
        <pt x="220" y="370" on="1"/>
      </contour>
      <contour>
        <pt x="438" y="163" on="0"/>
        <pt x="515" y="218" on="0"/>
        <pt x="559" y="313" on="0"/>
        <pt x="559" y="370" on="1"/>
        <pt x="559" y="440" on="0"/>
        <pt x="525" y="497" on="1"/>
        <pt x="298" y="195" on="1"/>
        <pt x="340" y="163" on="0"/>
        <pt x="389" y="163" on="1"/>
      </contour>
    </TTGlyph>
    <TTGlyph name="Otilde" xMin="30" yMin="-12" xMax="750" yMax="967">
      <component glyphName="O" x="0" y="0" flags="0x0"/>
      <component glyphName="tilde" x="157" y="234" flags="0x4"/>
    </TTGlyph>
    <TTGlyph name="P" xMin="49" yMin="0" xMax="676" yMax="740">
      <contour>
        <pt x="403" y="740" on="1"/>
        <pt x="479" y="740" on="0"/>
        <pt x="605" y="675" on="0"/>
        <pt x="676" y="571" on="0"/>
        <pt x="676" y="516" on="1"/>
        <pt x="676" y="396" on="0"/>
        <pt x="542" y="251" on="0"/>
        <pt x="403" y="251" on="1"/>
        <pt x="310" y="251" on="1"/>
        <pt x="310" y="152" on="1"/>
        <pt x="380" y="152" on="1"/>
        <pt x="380" y="0" on="1"/>
        <pt x="49" y="0" on="1"/>
        <pt x="49" y="152" on="1"/>
        <pt x="125" y="152" on="1"/>
        <pt x="125" y="588" on="1"/>
        <pt x="50" y="588" on="1"/>
        <pt x="50" y="740" on="1"/>
      </contour>
      <contour>
        <pt x="310" y="401" on="1"/>
        <pt x="354" y="401" on="1"/>
        <pt x="473" y="401" on="0"/>
        <pt x="473" y="492" on="1"/>
        <pt x="473" y="537" on="0"/>
        <pt x="413" y="588" on="0"/>
        <pt x="358" y="588" on="1"/>
        <pt x="310" y="588" on="1"/>
      </contour>
    </TTGlyph>
    <TTGlyph name="Q" xMin="30" yMin="-205" xMax="776" yMax="754">
      <contour>
        <pt x="234" y="14" on="0"/>
        <pt x="104" y="122" on="0"/>
        <pt x="30" y="280" on="0"/>
        <pt x="30" y="370" on="1"/>
        <pt x="30" y="475" on="0"/>
        <pt x="127" y="651" on="0"/>
        <pt x="292" y="754" on="0"/>
        <pt x="389" y="754" on="1"/>
        <pt x="487" y="754" on="0"/>
        <pt x="652" y="651" on="0"/>
        <pt x="750" y="475" on="0"/>
        <pt x="750" y="370" on="1"/>
        <pt x="750" y="278" on="0"/>
        <pt x="673" y="119" on="0"/>
        <pt x="538" y="11" on="0"/>
        <pt x="456" y="-5" on="1"/>
        <pt x="534" y="-43" on="0"/>
        <pt x="564" y="-45" on="1"/>
        <pt x="599" y="-45" on="0"/>
        <pt x="649" y="-8" on="0"/>
        <pt x="655" y="30" on="1"/>
        <pt x="776" y="-31" on="1"/>
        <pt x="769" y="-108" on="0"/>
        <pt x="659" y="-205" on="0"/>
        <pt x="579" y="-205" on="1"/>
        <pt x="555" y="-205" on="0"/>
        <pt x="496" y="-183" on="0"/>
        <pt x="454" y="-163" on="1"/>
        <pt x="448" y="-160" on="0"/>
        <pt x="408" y="-143" on="0"/>
        <pt x="381" y="-134" on="0"/>
        <pt x="373" y="-134" on="1"/>
        <pt x="347" y="-133" on="1"/>
        <pt x="332" y="-133" on="0"/>
        <pt x="313" y="-140" on="1"/>
        <pt x="314" y="-4" on="1"/>
      </contour>
      <contour>
        <pt x="438" y="163" on="0"/>
        <pt x="515" y="218" on="0"/>
        <pt x="559" y="313" on="0"/>
        <pt x="559" y="370" on="1"/>
        <pt x="559" y="427" on="0"/>
        <pt x="514" y="522" on="0"/>
        <pt x="437" y="578" on="0"/>
        <pt x="389" y="578" on="1"/>
        <pt x="342" y="578" on="0"/>
        <pt x="265" y="522" on="0"/>
        <pt x="220" y="427" on="0"/>
        <pt x="220" y="370" on="1"/>
        <pt x="220" y="314" on="0"/>
        <pt x="265" y="219" on="0"/>
        <pt x="342" y="163" on="0"/>
        <pt x="389" y="163" on="1"/>
      </contour>
    </TTGlyph>
    <TTGlyph name="R" xMin="48" yMin="0" xMax="750" yMax="740">
      <contour>
        <pt x="471" y="740" on="1"/>
        <pt x="547" y="740" on="0"/>
        <pt x="658" y="679" on="0"/>
        <pt x="716" y="582" on="0"/>
        <pt x="716" y="529" on="1"/>
        <pt x="716" y="477" on="0"/>
        <pt x="691" y="408" on="0"/>
        <pt x="642" y="362" on="0"/>
        <pt x="600" y="340" on="1"/>
        <pt x="652" y="312" on="0"/>
        <pt x="669" y="235" on="1"/>
        <pt x="689" y="162" on="1"/>
        <pt x="749" y="162" on="1"/>
        <pt x="750" y="0" on="1"/>
        <pt x="509" y="0" on="1"/>
        <pt x="489" y="158" on="1"/>
        <pt x="482" y="223" on="0"/>
        <pt x="426" y="278" on="0"/>
        <pt x="365" y="278" on="1"/>
        <pt x="314" y="278" on="1"/>
        <pt x="314" y="152" on="1"/>
        <pt x="379" y="152" on="1"/>
        <pt x="379" y="0" on="1"/>
        <pt x="48" y="0" on="1"/>
        <pt x="48" y="152" on="1"/>
        <pt x="128" y="152" on="1"/>
        <pt x="128" y="588" on="1"/>
        <pt x="50" y="588" on="1"/>
        <pt x="50" y="740" on="1"/>
      </contour>
      <contour>
        <pt x="314" y="428" on="1"/>
        <pt x="395" y="428" on="1"/>
        <pt x="513" y="428" on="0"/>
        <pt x="513" y="506" on="1"/>
        <pt x="513" y="544" on="0"/>
        <pt x="453" y="588" on="0"/>
        <pt x="399" y="588" on="1"/>
        <pt x="314" y="588" on="1"/>
      </contour>
    </TTGlyph>
    <TTGlyph name="S" xMin="13" yMin="-15" xMax="595" yMax="766">
      <contour>
        <pt x="394" y="550" on="0"/>
        <pt x="336" y="598" on="0"/>
        <pt x="298" y="598" on="1"/>
        <pt x="270" y="598" on="0"/>
        <pt x="230" y="574" on="0"/>
        <pt x="230" y="545" on="1"/>
        <pt x="230" y="518" on="0"/>
        <pt x="266" y="495" on="0"/>
        <pt x="304" y="484" on="1"/>
        <pt x="326" y="478" on="1"/>
        <pt x="472" y="428" on="1"/>
        <pt x="521" y="410" on="0"/>
        <pt x="588" y="308" on="0"/>
        <pt x="588" y="236" on="1"/>
        <pt x="588" y="162" on="0"/>
        <pt x="518" y="48" on="0"/>
        <pt x="393" y="-15" on="0"/>
        <pt x="311" y="-15" on="1"/>
        <pt x="233" y="-15" on="0"/>
        <pt x="97" y="54" on="0"/>
        <pt x="68" y="116" on="1"/>
        <pt x="13" y="116" on="1"/>
        <pt x="13" y="286" on="1"/>
        <pt x="210" y="286" on="1"/>
        <pt x="210" y="254" on="1"/>
        <pt x="210" y="212" on="0"/>
        <pt x="258" y="158" on="0"/>
        <pt x="309" y="158" on="1"/>
        <pt x="344" y="158" on="0"/>
        <pt x="380" y="192" on="0"/>
        <pt x="380" y="222" on="1"/>
        <pt x="380" y="247" on="0"/>
        <pt x="344" y="269" on="0"/>
        <pt x="307" y="281" on="1"/>
        <pt x="193" y="319" on="1"/>
        <pt x="124" y="340" on="0"/>
        <pt x="28" y="453" on="0"/>
        <pt x="28" y="539" on="1"/>
        <pt x="28" y="612" on="0"/>
        <pt x="98" y="715" on="0"/>
        <pt x="220" y="766" on="0"/>
        <pt x="297" y="766" on="1"/>
        <pt x="357" y="766" on="0"/>
        <pt x="459" y="730" on="0"/>
        <pt x="527" y="673" on="0"/>
        <pt x="542" y="641" on="1"/>
        <pt x="595" y="641" on="1"/>
        <pt x="595" y="471" on="1"/>
        <pt x="397" y="471" on="1"/>
        <pt x="397" y="518" on="1"/>
      </contour>
    </TTGlyph>
    <TTGlyph name="Scaron" xMin="13" yMin="-15" xMax="595" yMax="947">
      <component glyphName="S" x="0" y="0" flags="0x0"/>
      <component glyphName="caron" x="66" y="234" flags="0x4"/>
    </TTGlyph>
    <TTGlyph name="T" xMin="6" yMin="0" xMax="684" yMax="740">
      <contour>
        <pt x="168" y="152" on="1"/>
        <pt x="248" y="152" on="1"/>
        <pt x="248" y="593" on="1"/>
        <pt x="187" y="593" on="1"/>
        <pt x="187" y="504" on="1"/>
        <pt x="6" y="504" on="1"/>
        <pt x="6" y="740" on="1"/>
        <pt x="684" y="740" on="1"/>
        <pt x="684" y="504" on="1"/>
        <pt x="503" y="504" on="1"/>
        <pt x="503" y="593" on="1"/>
        <pt x="434" y="593" on="1"/>
        <pt x="434" y="152" on="1"/>
        <pt x="513" y="152" on="1"/>
        <pt x="513" y="0" on="1"/>
        <pt x="168" y="0" on="1"/>
      </contour>
    </TTGlyph>
    <TTGlyph name="Thorn" xMin="56" yMin="0" xMax="678" yMax="740">
      <contour>
        <pt x="483" y="580" on="0"/>
        <pt x="607" y="520" on="0"/>
        <pt x="678" y="420" on="0"/>
        <pt x="678" y="361" on="1"/>
        <pt x="678" y="303" on="0"/>
        <pt x="621" y="205" on="0"/>
        <pt x="499" y="145" on="0"/>
        <pt x="406" y="145" on="1"/>
        <pt x="401" y="145" on="1"/>
        <pt x="401" y="0" on="1"/>
        <pt x="56" y="0" on="1"/>
        <pt x="56" y="152" on="1"/>
        <pt x="137" y="152" on="1"/>
        <pt x="137" y="588" on="1"/>
        <pt x="56" y="588" on="1"/>
        <pt x="56" y="740" on="1"/>
        <pt x="401" y="740" on="1"/>
        <pt x="401" y="588" on="1"/>
        <pt x="322" y="588" on="1"/>
        <pt x="322" y="580" on="1"/>
        <pt x="405" y="580" on="1"/>
      </contour>
      <contour>
        <pt x="475" y="296" on="0"/>
        <pt x="475" y="360" on="1"/>
        <pt x="475" y="392" on="0"/>
        <pt x="415" y="429" on="0"/>
        <pt x="360" y="429" on="1"/>
        <pt x="322" y="429" on="1"/>
        <pt x="322" y="296" on="1"/>
        <pt x="356" y="296" on="1"/>
      </contour>
    </TTGlyph>
    <TTGlyph name="U" xMin="14" yMin="-10" xMax="718" yMax="740">
      <contour>
        <pt x="332" y="740" on="1"/>
        <pt x="332" y="588" on="1"/>
        <pt x="263" y="588" on="1"/>
        <pt x="263" y="294" on="1"/>
        <pt x="263" y="225" on="0"/>
        <pt x="322" y="161" on="0"/>
        <pt x="373" y="161" on="1"/>
        <pt x="427" y="161" on="0"/>
        <pt x="483" y="221" on="0"/>
        <pt x="483" y="294" on="1"/>
        <pt x="483" y="588" on="1"/>
        <pt x="401" y="588" on="1"/>
        <pt x="401" y="740" on="1"/>
        <pt x="718" y="740" on="1"/>
        <pt x="718" y="588" on="1"/>
        <pt x="662" y="588" on="1"/>
        <pt x="662" y="317" on="1"/>
        <pt x="662" y="216" on="0"/>
        <pt x="585" y="68" on="0"/>
        <pt x="452" y="-10" on="0"/>
        <pt x="370" y="-10" on="1"/>
        <pt x="289" y="-10" on="0"/>
        <pt x="157" y="67" on="0"/>
        <pt x="81" y="212" on="0"/>
        <pt x="81" y="308" on="1"/>
        <pt x="81" y="588" on="1"/>
        <pt x="14" y="588" on="1"/>
        <pt x="14" y="740" on="1"/>
      </contour>
    </TTGlyph>
    <TTGlyph name="Uacute" xMin="14" yMin="-10" xMax="718" yMax="963">
      <contour>
        <pt x="432" y="963" on="1"/>
        <pt x="606" y="963" on="1"/>
        <pt x="606" y="950" on="1"/>
        <pt x="456" y="809" on="1"/>
        <pt x="326" y="809" on="1"/>
      </contour>
      <contour>
        <pt x="332" y="740" on="1"/>
        <pt x="332" y="588" on="1"/>
        <pt x="263" y="588" on="1"/>
        <pt x="263" y="294" on="1"/>
        <pt x="263" y="225" on="0"/>
        <pt x="322" y="161" on="0"/>
        <pt x="373" y="161" on="1"/>
        <pt x="427" y="161" on="0"/>
        <pt x="483" y="221" on="0"/>
        <pt x="483" y="294" on="1"/>
        <pt x="483" y="588" on="1"/>
        <pt x="401" y="588" on="1"/>
        <pt x="401" y="740" on="1"/>
        <pt x="718" y="740" on="1"/>
        <pt x="718" y="588" on="1"/>
        <pt x="662" y="588" on="1"/>
        <pt x="662" y="317" on="1"/>
        <pt x="662" y="216" on="0"/>
        <pt x="585" y="68" on="0"/>
        <pt x="452" y="-10" on="0"/>
        <pt x="370" y="-10" on="1"/>
        <pt x="289" y="-10" on="0"/>
        <pt x="157" y="67" on="0"/>
        <pt x="81" y="212" on="0"/>
        <pt x="81" y="308" on="1"/>
        <pt x="81" y="588" on="1"/>
        <pt x="14" y="588" on="1"/>
        <pt x="14" y="740" on="1"/>
      </contour>
    </TTGlyph>
    <TTGlyph name="Ucircumflex" xMin="14" yMin="-10" xMax="718" yMax="969">
      <contour>
        <pt x="318" y="808" on="1"/>
        <pt x="390" y="883" on="1"/>
        <pt x="465" y="808" on="1"/>
        <pt x="602" y="808" on="1"/>
        <pt x="464" y="969" on="1"/>
        <pt x="316" y="969" on="1"/>
        <pt x="179" y="808" on="1"/>
      </contour>
      <contour>
        <pt x="332" y="740" on="1"/>
        <pt x="332" y="588" on="1"/>
        <pt x="263" y="588" on="1"/>
        <pt x="263" y="294" on="1"/>
        <pt x="263" y="225" on="0"/>
        <pt x="322" y="161" on="0"/>
        <pt x="373" y="161" on="1"/>
        <pt x="427" y="161" on="0"/>
        <pt x="483" y="221" on="0"/>
        <pt x="483" y="294" on="1"/>
        <pt x="483" y="588" on="1"/>
        <pt x="401" y="588" on="1"/>
        <pt x="401" y="740" on="1"/>
        <pt x="718" y="740" on="1"/>
        <pt x="718" y="588" on="1"/>
        <pt x="662" y="588" on="1"/>
        <pt x="662" y="317" on="1"/>
        <pt x="662" y="216" on="0"/>
        <pt x="585" y="68" on="0"/>
        <pt x="452" y="-10" on="0"/>
        <pt x="370" y="-10" on="1"/>
        <pt x="289" y="-10" on="0"/>
        <pt x="157" y="67" on="0"/>
        <pt x="81" y="212" on="0"/>
        <pt x="81" y="308" on="1"/>
        <pt x="81" y="588" on="1"/>
        <pt x="14" y="588" on="1"/>
        <pt x="14" y="740" on="1"/>
      </contour>
    </TTGlyph>
    <TTGlyph name="Udieresis" xMin="14" yMin="-10" xMax="718" yMax="982">
      <contour>
        <pt x="159" y="926" on="0"/>
        <pt x="214" y="982" on="0"/>
        <pt x="254" y="982" on="1"/>
        <pt x="293" y="982" on="0"/>
        <pt x="348" y="926" on="0"/>
        <pt x="348" y="886" on="1"/>
        <pt x="348" y="847" on="0"/>
        <pt x="293" y="791" on="0"/>
        <pt x="254" y="791" on="1"/>
        <pt x="214" y="791" on="0"/>
        <pt x="159" y="847" on="0"/>
        <pt x="159" y="886" on="1"/>
      </contour>
      <contour>
        <pt x="396" y="926" on="0"/>
        <pt x="451" y="982" on="0"/>
        <pt x="491" y="982" on="1"/>
        <pt x="530" y="982" on="0"/>
        <pt x="585" y="926" on="0"/>
        <pt x="585" y="886" on="1"/>
        <pt x="585" y="847" on="0"/>
        <pt x="530" y="791" on="0"/>
        <pt x="491" y="791" on="1"/>
        <pt x="451" y="791" on="0"/>
        <pt x="396" y="847" on="0"/>
        <pt x="396" y="886" on="1"/>
      </contour>
      <contour>
        <pt x="332" y="740" on="1"/>
        <pt x="332" y="588" on="1"/>
        <pt x="263" y="588" on="1"/>
        <pt x="263" y="294" on="1"/>
        <pt x="263" y="225" on="0"/>
        <pt x="322" y="161" on="0"/>
        <pt x="373" y="161" on="1"/>
        <pt x="427" y="161" on="0"/>
        <pt x="483" y="221" on="0"/>
        <pt x="483" y="294" on="1"/>
        <pt x="483" y="588" on="1"/>
        <pt x="401" y="588" on="1"/>
        <pt x="401" y="740" on="1"/>
        <pt x="718" y="740" on="1"/>
        <pt x="718" y="588" on="1"/>
        <pt x="662" y="588" on="1"/>
        <pt x="662" y="317" on="1"/>
        <pt x="662" y="216" on="0"/>
        <pt x="585" y="68" on="0"/>
        <pt x="452" y="-10" on="0"/>
        <pt x="370" y="-10" on="1"/>
        <pt x="289" y="-10" on="0"/>
        <pt x="157" y="67" on="0"/>
        <pt x="81" y="212" on="0"/>
        <pt x="81" y="308" on="1"/>
        <pt x="81" y="588" on="1"/>
        <pt x="14" y="588" on="1"/>
        <pt x="14" y="740" on="1"/>
      </contour>
    </TTGlyph>
    <TTGlyph name="Ugrave" xMin="14" yMin="-10" xMax="718" yMax="963">
      <contour>
        <pt x="455" y="809" on="1"/>
        <pt x="357" y="963" on="1"/>
        <pt x="184" y="963" on="1"/>
        <pt x="184" y="950" on="1"/>
        <pt x="328" y="809" on="1"/>
      </contour>
      <contour>
        <pt x="332" y="740" on="1"/>
        <pt x="332" y="588" on="1"/>
        <pt x="263" y="588" on="1"/>
        <pt x="263" y="294" on="1"/>
        <pt x="263" y="225" on="0"/>
        <pt x="322" y="161" on="0"/>
        <pt x="373" y="161" on="1"/>
        <pt x="427" y="161" on="0"/>
        <pt x="483" y="221" on="0"/>
        <pt x="483" y="294" on="1"/>
        <pt x="483" y="588" on="1"/>
        <pt x="401" y="588" on="1"/>
        <pt x="401" y="740" on="1"/>
        <pt x="718" y="740" on="1"/>
        <pt x="718" y="588" on="1"/>
        <pt x="662" y="588" on="1"/>
        <pt x="662" y="317" on="1"/>
        <pt x="662" y="216" on="0"/>
        <pt x="585" y="68" on="0"/>
        <pt x="452" y="-10" on="0"/>
        <pt x="370" y="-10" on="1"/>
        <pt x="289" y="-10" on="0"/>
        <pt x="157" y="67" on="0"/>
        <pt x="81" y="212" on="0"/>
        <pt x="81" y="308" on="1"/>
        <pt x="81" y="588" on="1"/>
        <pt x="14" y="588" on="1"/>
        <pt x="14" y="740" on="1"/>
      </contour>
    </TTGlyph>
    <TTGlyph name="V" xMin="12" yMin="0" xMax="743" yMax="740">
      <contour>
        <pt x="399" y="740" on="1"/>
        <pt x="743" y="740" on="1"/>
        <pt x="743" y="588" on="1"/>
        <pt x="680" y="588" on="1"/>
        <pt x="487" y="0" on="1"/>
        <pt x="269" y="0" on="1"/>
        <pt x="85" y="588" on="1"/>
        <pt x="12" y="588" on="1"/>
        <pt x="12" y="740" on="1"/>
        <pt x="356" y="740" on="1"/>
        <pt x="356" y="588" on="1"/>
        <pt x="272" y="588" on="1"/>
        <pt x="383" y="222" on="1"/>
        <pt x="491" y="588" on="1"/>
        <pt x="399" y="588" on="1"/>
      </contour>
    </TTGlyph>
    <TTGlyph name="W" xMin="13" yMin="0" xMax="1155" yMax="740">
      <contour>
        <pt x="810" y="740" on="1"/>
        <pt x="1155" y="740" on="1"/>
        <pt x="1155" y="588" on="1"/>
        <pt x="1085" y="588" on="1"/>
        <pt x="924" y="0" on="1"/>
        <pt x="686" y="0" on="1"/>
        <pt x="590" y="423" on="1"/>
        <pt x="492" y="0" on="1"/>
        <pt x="257" y="0" on="1"/>
        <pt x="90" y="588" on="1"/>
        <pt x="13" y="588" on="1"/>
        <pt x="13" y="740" on="1"/>
        <pt x="357" y="740" on="1"/>
        <pt x="357" y="588" on="1"/>
        <pt x="280" y="588" on="1"/>
        <pt x="369" y="250" on="1"/>
        <pt x="483" y="739" on="1"/>
        <pt x="695" y="739" on="1"/>
        <pt x="807" y="250" on="1"/>
        <pt x="896" y="588" on="1"/>
        <pt x="810" y="588" on="1"/>
      </contour>
    </TTGlyph>
    <TTGlyph name="X" xMin="-7" yMin="0" xMax="743" yMax="740">
      <contour>
        <pt x="621" y="488" on="0"/>
        <pt x="571" y="438" on="1"/>
        <pt x="495" y="364" on="1"/>
        <pt x="662" y="205" on="1"/>
        <pt x="717" y="152" on="1"/>
        <pt x="741" y="152" on="1"/>
        <pt x="741" y="0" on="1"/>
        <pt x="400" y="0" on="1"/>
        <pt x="400" y="152" on="1"/>
        <pt x="470" y="152" on="1"/>
        <pt x="370" y="237" on="1"/>
        <pt x="274" y="152" on="1"/>
        <pt x="333" y="152" on="1"/>
        <pt x="333" y="0" on="1"/>
        <pt x="-7" y="0" on="1"/>
        <pt x="-7" y="152" on="1"/>
        <pt x="21" y="152" on="1"/>
        <pt x="76" y="205" on="1"/>
        <pt x="246" y="364" on="1"/>
        <pt x="197" y="410" on="0"/>
        <pt x="101" y="504" on="1"/>
        <pt x="14" y="588" on="1"/>
        <pt x="-4" y="588" on="1"/>
        <pt x="-4" y="740" on="1"/>
        <pt x="335" y="740" on="1"/>
        <pt x="335" y="588" on="1"/>
        <pt x="259" y="588" on="1"/>
        <pt x="369" y="490" on="1"/>
        <pt x="435" y="549" on="1"/>
        <pt x="478" y="588" on="1"/>
        <pt x="403" y="588" on="1"/>
        <pt x="403" y="740" on="1"/>
        <pt x="743" y="740" on="1"/>
        <pt x="743" y="588" on="1"/>
        <pt x="725" y="588" on="1"/>
      </contour>
    </TTGlyph>
    <TTGlyph name="Y" xMin="22" yMin="0" xMax="757" yMax="740">
      <contour>
        <pt x="22" y="740" on="1"/>
        <pt x="367" y="740" on="1"/>
        <pt x="367" y="588" on="1"/>
        <pt x="308" y="588" on="1"/>
        <pt x="392" y="442" on="1"/>
        <pt x="482" y="588" on="1"/>
        <pt x="413" y="588" on="1"/>
        <pt x="413" y="740" on="1"/>
        <pt x="757" y="740" on="1"/>
        <pt x="757" y="588" on="1"/>
        <pt x="705" y="588" on="1"/>
        <pt x="481" y="295" on="1"/>
        <pt x="481" y="152" on="1"/>
        <pt x="576" y="152" on="1"/>
        <pt x="576" y="0" on="1"/>
        <pt x="214" y="0" on="1"/>
        <pt x="214" y="152" on="1"/>
        <pt x="301" y="152" on="1"/>
        <pt x="301" y="297" on="1"/>
        <pt x="90" y="588" on="1"/>
        <pt x="22" y="588" on="1"/>
      </contour>
    </TTGlyph>
    <TTGlyph name="Yacute" xMin="22" yMin="0" xMax="757" yMax="963">
      <contour>
        <pt x="460" y="963" on="1"/>
        <pt x="634" y="963" on="1"/>
        <pt x="634" y="950" on="1"/>
        <pt x="484" y="809" on="1"/>
        <pt x="354" y="809" on="1"/>
      </contour>
      <contour>
        <pt x="22" y="740" on="1"/>
        <pt x="367" y="740" on="1"/>
        <pt x="367" y="588" on="1"/>
        <pt x="308" y="588" on="1"/>
        <pt x="392" y="442" on="1"/>
        <pt x="482" y="588" on="1"/>
        <pt x="413" y="588" on="1"/>
        <pt x="413" y="740" on="1"/>
        <pt x="757" y="740" on="1"/>
        <pt x="757" y="588" on="1"/>
        <pt x="705" y="588" on="1"/>
        <pt x="481" y="295" on="1"/>
        <pt x="481" y="152" on="1"/>
        <pt x="576" y="152" on="1"/>
        <pt x="576" y="0" on="1"/>
        <pt x="214" y="0" on="1"/>
        <pt x="214" y="152" on="1"/>
        <pt x="301" y="152" on="1"/>
        <pt x="301" y="297" on="1"/>
        <pt x="90" y="588" on="1"/>
        <pt x="22" y="588" on="1"/>
      </contour>
    </TTGlyph>
    <TTGlyph name="Ydieresis" xMin="22" yMin="0" xMax="757" yMax="982">
      <component glyphName="Y" x="0" y="0" flags="0x0"/>
      <component glyphName="dotaccent" x="156" y="223" flags="0x4"/>
      <component glyphName="dotaccent" x="394" y="223" flags="0x4"/>
    </TTGlyph>
    <TTGlyph name="Z" xMin="30" yMin="0" xMax="602" yMax="740">
      <contour>
        <pt x="602" y="571" on="1"/>
        <pt x="261" y="167" on="1"/>
        <pt x="420" y="167" on="1"/>
        <pt x="420" y="279" on="1"/>
        <pt x="602" y="279" on="1"/>
        <pt x="602" y="0" on="1"/>
        <pt x="32" y="0" on="1"/>
        <pt x="32" y="168" on="1"/>
        <pt x="363" y="573" on="1"/>
        <pt x="212" y="573" on="1"/>
        <pt x="212" y="459" on="1"/>
        <pt x="30" y="459" on="1"/>
        <pt x="30" y="740" on="1"/>
        <pt x="602" y="740" on="1"/>
      </contour>
    </TTGlyph>
    <TTGlyph name="Zcaron" xMin="30" yMin="0" xMax="602" yMax="947">
      <component glyphName="Z" x="0" y="0" flags="0x0"/>
      <component glyphName="caron" x="107" y="234" flags="0x4"/>
    </TTGlyph>
    <TTGlyph name="a" xMin="39" yMin="-11" xMax="589" yMax="517">
      <contour>
        <pt x="319" y="1" on="0"/>
        <pt x="274" y="-11" on="0"/>
        <pt x="240" y="-11" on="1"/>
        <pt x="146" y="-11" on="0"/>
        <pt x="39" y="82" on="0"/>
        <pt x="39" y="156" on="1"/>
        <pt x="39" y="224" on="0"/>
        <pt x="136" y="316" on="0"/>
        <pt x="234" y="316" on="1"/>
        <pt x="301" y="316" on="0"/>
        <pt x="355" y="302" on="1"/>
        <pt x="354" y="308" on="1"/>
        <pt x="354" y="339" on="0"/>
        <pt x="302" y="369" on="0"/>
        <pt x="257" y="369" on="1"/>
        <pt x="212" y="369" on="0"/>
        <pt x="144" y="353" on="0"/>
        <pt x="107" y="335" on="1"/>
        <pt x="54" y="441" on="1"/>
        <pt x="110" y="479" on="0"/>
        <pt x="224" y="517" on="0"/>
        <pt x="288" y="517" on="1"/>
        <pt x="393" y="517" on="0"/>
        <pt x="516" y="420" on="0"/>
        <pt x="516" y="311" on="1"/>
        <pt x="517" y="152" on="1"/>
        <pt x="589" y="152" on="1"/>
        <pt x="589" y="0" on="1"/>
        <pt x="355" y="0" on="1"/>
        <pt x="355" y="20" on="1"/>
      </contour>
      <contour>
        <pt x="310" y="118" on="0"/>
        <pt x="355" y="151" on="1"/>
        <pt x="355" y="196" on="1"/>
        <pt x="233" y="196" on="1"/>
        <pt x="220" y="196" on="0"/>
        <pt x="194" y="176" on="0"/>
        <pt x="194" y="160" on="1"/>
        <pt x="194" y="143" on="0"/>
        <pt x="221" y="118" on="0"/>
        <pt x="248" y="118" on="1"/>
      </contour>
    </TTGlyph>
    <TTGlyph name="aacute" xMin="39" yMin="-11" xMax="589" yMax="729">
      <contour>
        <pt x="316" y="729" on="1"/>
        <pt x="490" y="729" on="1"/>
        <pt x="490" y="716" on="1"/>
        <pt x="340" y="575" on="1"/>
        <pt x="210" y="575" on="1"/>
      </contour>
      <contour>
        <pt x="319" y="1" on="0"/>
        <pt x="274" y="-11" on="0"/>
        <pt x="240" y="-11" on="1"/>
        <pt x="146" y="-11" on="0"/>
        <pt x="39" y="82" on="0"/>
        <pt x="39" y="156" on="1"/>
        <pt x="39" y="224" on="0"/>
        <pt x="136" y="316" on="0"/>
        <pt x="234" y="316" on="1"/>
        <pt x="301" y="316" on="0"/>
        <pt x="355" y="302" on="1"/>
        <pt x="354" y="308" on="1"/>
        <pt x="354" y="339" on="0"/>
        <pt x="302" y="369" on="0"/>
        <pt x="257" y="369" on="1"/>
        <pt x="212" y="369" on="0"/>
        <pt x="144" y="353" on="0"/>
        <pt x="107" y="335" on="1"/>
        <pt x="54" y="441" on="1"/>
        <pt x="110" y="479" on="0"/>
        <pt x="224" y="517" on="0"/>
        <pt x="288" y="517" on="1"/>
        <pt x="393" y="517" on="0"/>
        <pt x="516" y="420" on="0"/>
        <pt x="516" y="311" on="1"/>
        <pt x="517" y="152" on="1"/>
        <pt x="589" y="152" on="1"/>
        <pt x="589" y="0" on="1"/>
        <pt x="355" y="0" on="1"/>
        <pt x="355" y="20" on="1"/>
      </contour>
      <contour>
        <pt x="310" y="118" on="0"/>
        <pt x="355" y="151" on="1"/>
        <pt x="355" y="196" on="1"/>
        <pt x="233" y="196" on="1"/>
        <pt x="220" y="196" on="0"/>
        <pt x="194" y="176" on="0"/>
        <pt x="194" y="160" on="1"/>
        <pt x="194" y="143" on="0"/>
        <pt x="221" y="118" on="0"/>
        <pt x="248" y="118" on="1"/>
      </contour>
    </TTGlyph>
    <TTGlyph name="acircumflex" xMin="39" yMin="-11" xMax="589" yMax="735">
      <contour>
        <pt x="202" y="574" on="1"/>
        <pt x="274" y="649" on="1"/>
        <pt x="349" y="574" on="1"/>
        <pt x="486" y="574" on="1"/>
        <pt x="348" y="735" on="1"/>
        <pt x="200" y="735" on="1"/>
        <pt x="63" y="574" on="1"/>
      </contour>
      <contour>
        <pt x="319" y="1" on="0"/>
        <pt x="274" y="-11" on="0"/>
        <pt x="240" y="-11" on="1"/>
        <pt x="146" y="-11" on="0"/>
        <pt x="39" y="82" on="0"/>
        <pt x="39" y="156" on="1"/>
        <pt x="39" y="224" on="0"/>
        <pt x="136" y="316" on="0"/>
        <pt x="234" y="316" on="1"/>
        <pt x="301" y="316" on="0"/>
        <pt x="355" y="302" on="1"/>
        <pt x="354" y="308" on="1"/>
        <pt x="354" y="339" on="0"/>
        <pt x="302" y="369" on="0"/>
        <pt x="257" y="369" on="1"/>
        <pt x="212" y="369" on="0"/>
        <pt x="144" y="353" on="0"/>
        <pt x="107" y="335" on="1"/>
        <pt x="54" y="441" on="1"/>
        <pt x="110" y="479" on="0"/>
        <pt x="224" y="517" on="0"/>
        <pt x="288" y="517" on="1"/>
        <pt x="393" y="517" on="0"/>
        <pt x="516" y="420" on="0"/>
        <pt x="516" y="311" on="1"/>
        <pt x="517" y="152" on="1"/>
        <pt x="589" y="152" on="1"/>
        <pt x="589" y="0" on="1"/>
        <pt x="355" y="0" on="1"/>
        <pt x="355" y="20" on="1"/>
      </contour>
      <contour>
        <pt x="310" y="118" on="0"/>
        <pt x="355" y="151" on="1"/>
        <pt x="355" y="196" on="1"/>
        <pt x="233" y="196" on="1"/>
        <pt x="220" y="196" on="0"/>
        <pt x="194" y="176" on="0"/>
        <pt x="194" y="160" on="1"/>
        <pt x="194" y="143" on="0"/>
        <pt x="221" y="118" on="0"/>
        <pt x="248" y="118" on="1"/>
      </contour>
    </TTGlyph>
    <TTGlyph name="acute" xMin="12" yMin="575" xMax="292" yMax="729">
      <contour>
        <pt x="118" y="729" on="1"/>
        <pt x="292" y="729" on="1"/>
        <pt x="292" y="716" on="1"/>
        <pt x="142" y="575" on="1"/>
        <pt x="12" y="575" on="1"/>
      </contour>
    </TTGlyph>
    <TTGlyph name="adieresis" xMin="39" yMin="-11" xMax="589" yMax="748">
      <contour>
        <pt x="43" y="692" on="0"/>
        <pt x="98" y="748" on="0"/>
        <pt x="138" y="748" on="1"/>
        <pt x="177" y="748" on="0"/>
        <pt x="232" y="692" on="0"/>
        <pt x="232" y="652" on="1"/>
        <pt x="232" y="613" on="0"/>
        <pt x="177" y="557" on="0"/>
        <pt x="138" y="557" on="1"/>
        <pt x="98" y="557" on="0"/>
        <pt x="43" y="613" on="0"/>
        <pt x="43" y="652" on="1"/>
      </contour>
      <contour>
        <pt x="280" y="692" on="0"/>
        <pt x="335" y="748" on="0"/>
        <pt x="375" y="748" on="1"/>
        <pt x="414" y="748" on="0"/>
        <pt x="469" y="692" on="0"/>
        <pt x="469" y="652" on="1"/>
        <pt x="469" y="613" on="0"/>
        <pt x="414" y="557" on="0"/>
        <pt x="375" y="557" on="1"/>
        <pt x="335" y="557" on="0"/>
        <pt x="280" y="613" on="0"/>
        <pt x="280" y="652" on="1"/>
      </contour>
      <contour>
        <pt x="319" y="1" on="0"/>
        <pt x="274" y="-11" on="0"/>
        <pt x="240" y="-11" on="1"/>
        <pt x="146" y="-11" on="0"/>
        <pt x="39" y="82" on="0"/>
        <pt x="39" y="156" on="1"/>
        <pt x="39" y="224" on="0"/>
        <pt x="136" y="316" on="0"/>
        <pt x="234" y="316" on="1"/>
        <pt x="301" y="316" on="0"/>
        <pt x="355" y="302" on="1"/>
        <pt x="354" y="308" on="1"/>
        <pt x="354" y="339" on="0"/>
        <pt x="302" y="369" on="0"/>
        <pt x="257" y="369" on="1"/>
        <pt x="212" y="369" on="0"/>
        <pt x="144" y="353" on="0"/>
        <pt x="107" y="335" on="1"/>
        <pt x="54" y="441" on="1"/>
        <pt x="110" y="479" on="0"/>
        <pt x="224" y="517" on="0"/>
        <pt x="288" y="517" on="1"/>
        <pt x="393" y="517" on="0"/>
        <pt x="516" y="420" on="0"/>
        <pt x="516" y="311" on="1"/>
        <pt x="517" y="152" on="1"/>
        <pt x="589" y="152" on="1"/>
        <pt x="589" y="0" on="1"/>
        <pt x="355" y="0" on="1"/>
        <pt x="355" y="20" on="1"/>
      </contour>
      <contour>
        <pt x="310" y="118" on="0"/>
        <pt x="355" y="151" on="1"/>
        <pt x="355" y="196" on="1"/>
        <pt x="233" y="196" on="1"/>
        <pt x="220" y="196" on="0"/>
        <pt x="194" y="176" on="0"/>
        <pt x="194" y="160" on="1"/>
        <pt x="194" y="143" on="0"/>
        <pt x="221" y="118" on="0"/>
        <pt x="248" y="118" on="1"/>
      </contour>
    </TTGlyph>
    <TTGlyph name="ae" xMin="39" yMin="-13" xMax="891" yMax="531">
      <contour>
        <pt x="514" y="214" on="1"/>
        <pt x="515" y="217" on="0"/>
        <pt x="512" y="220" on="1"/>
        <pt x="519" y="180" on="0"/>
        <pt x="592" y="134" on="0"/>
        <pt x="637" y="134" on="1"/>
        <pt x="670" y="134" on="0"/>
        <pt x="723" y="145" on="0"/>
        <pt x="764" y="157" on="1"/>
        <pt x="788" y="164" on="1"/>
        <pt x="848" y="50" on="1"/>
        <pt x="802" y="23" on="0"/>
        <pt x="750" y="-1" on="0"/>
        <pt x="686" y="-13" on="0"/>
        <pt x="637" y="-13" on="1"/>
        <pt x="566" y="-13" on="0"/>
        <pt x="455" y="36" on="0"/>
        <pt x="417" y="78" on="1"/>
        <pt x="426" y="62" on="1"/>
        <pt x="383" y="28" on="0"/>
        <pt x="301" y="-11" on="0"/>
        <pt x="237" y="-11" on="1"/>
        <pt x="145" y="-11" on="0"/>
        <pt x="39" y="82" on="0"/>
        <pt x="39" y="156" on="1"/>
        <pt x="39" y="224" on="0"/>
        <pt x="136" y="316" on="0"/>
        <pt x="234" y="316" on="1"/>
        <pt x="292" y="316" on="0"/>
        <pt x="350" y="304" on="1"/>
        <pt x="350" y="308" on="1"/>
        <pt x="350" y="369" on="0"/>
        <pt x="257" y="369" on="1"/>
        <pt x="212" y="369" on="0"/>
        <pt x="144" y="353" on="0"/>
        <pt x="107" y="335" on="1"/>
        <pt x="54" y="441" on="1"/>
        <pt x="110" y="479" on="0"/>
        <pt x="224" y="517" on="0"/>
        <pt x="288" y="517" on="1"/>
        <pt x="393" y="517" on="0"/>
        <pt x="449" y="471" on="1"/>
        <pt x="485" y="500" on="0"/>
        <pt x="575" y="531" on="0"/>
        <pt x="625" y="531" on="1"/>
        <pt x="704" y="531" on="0"/>
        <pt x="824" y="460" on="0"/>
        <pt x="890" y="334" on="0"/>
        <pt x="890" y="254" on="1"/>
        <pt x="891" y="248" on="0"/>
        <pt x="891" y="234" on="1"/>
        <pt x="891" y="221" on="0"/>
        <pt x="890" y="214" on="1"/>
      </contour>
      <contour>
        <pt x="541" y="393" on="0"/>
        <pt x="519" y="328" on="1"/>
        <pt x="711" y="328" on="1"/>
        <pt x="702" y="358" on="0"/>
        <pt x="663" y="393" on="0"/>
        <pt x="622" y="393" on="1"/>
      </contour>
      <contour>
        <pt x="284" y="118" on="0"/>
        <pt x="341" y="136" on="0"/>
        <pt x="370" y="153" on="1"/>
        <pt x="363" y="168" on="0"/>
        <pt x="356" y="198" on="1"/>
        <pt x="356" y="196" on="1"/>
        <pt x="233" y="196" on="1"/>
        <pt x="220" y="196" on="0"/>
        <pt x="194" y="176" on="0"/>
        <pt x="194" y="160" on="1"/>
        <pt x="194" y="143" on="0"/>
        <pt x="221" y="118" on="0"/>
        <pt x="248" y="118" on="1"/>
      </contour>
    </TTGlyph>
    <TTGlyph name="agrave" xMin="39" yMin="-11" xMax="589" yMax="729">
      <contour>
        <pt x="369" y="575" on="1"/>
        <pt x="271" y="729" on="1"/>
        <pt x="98" y="729" on="1"/>
        <pt x="98" y="716" on="1"/>
        <pt x="242" y="575" on="1"/>
      </contour>
      <contour>
        <pt x="319" y="1" on="0"/>
        <pt x="274" y="-11" on="0"/>
        <pt x="240" y="-11" on="1"/>
        <pt x="146" y="-11" on="0"/>
        <pt x="39" y="82" on="0"/>
        <pt x="39" y="156" on="1"/>
        <pt x="39" y="224" on="0"/>
        <pt x="136" y="316" on="0"/>
        <pt x="234" y="316" on="1"/>
        <pt x="301" y="316" on="0"/>
        <pt x="355" y="302" on="1"/>
        <pt x="354" y="308" on="1"/>
        <pt x="354" y="339" on="0"/>
        <pt x="302" y="369" on="0"/>
        <pt x="257" y="369" on="1"/>
        <pt x="212" y="369" on="0"/>
        <pt x="144" y="353" on="0"/>
        <pt x="107" y="335" on="1"/>
        <pt x="54" y="441" on="1"/>
        <pt x="110" y="479" on="0"/>
        <pt x="224" y="517" on="0"/>
        <pt x="288" y="517" on="1"/>
        <pt x="393" y="517" on="0"/>
        <pt x="516" y="420" on="0"/>
        <pt x="516" y="311" on="1"/>
        <pt x="517" y="152" on="1"/>
        <pt x="589" y="152" on="1"/>
        <pt x="589" y="0" on="1"/>
        <pt x="355" y="0" on="1"/>
        <pt x="355" y="20" on="1"/>
      </contour>
      <contour>
        <pt x="310" y="118" on="0"/>
        <pt x="355" y="151" on="1"/>
        <pt x="355" y="196" on="1"/>
        <pt x="233" y="196" on="1"/>
        <pt x="220" y="196" on="0"/>
        <pt x="194" y="176" on="0"/>
        <pt x="194" y="160" on="1"/>
        <pt x="194" y="143" on="0"/>
        <pt x="221" y="118" on="0"/>
        <pt x="248" y="118" on="1"/>
      </contour>
    </TTGlyph>
    <TTGlyph name="ampersand" xMin="35" yMin="-32" xMax="697" yMax="790">
      <contour>
        <pt x="654" y="44" on="1"/>
        <pt x="697" y="82" on="1"/>
        <pt x="637" y="143" on="1"/>
        <pt x="576" y="203" on="1"/>
        <pt x="619" y="298" on="0"/>
        <pt x="621" y="395" on="1"/>
        <pt x="456" y="395" on="1"/>
        <pt x="445" y="334" on="1"/>
        <pt x="389" y="392" on="1"/>
        <pt x="503" y="478" on="0"/>
        <pt x="503" y="586" on="1"/>
        <pt x="503" y="639" on="0"/>
        <pt x="450" y="733" on="0"/>
        <pt x="353" y="790" on="0"/>
        <pt x="290" y="790" on="1"/>
        <pt x="230" y="790" on="0"/>
        <pt x="130" y="733" on="0"/>
        <pt x="72" y="639" on="0"/>
        <pt x="72" y="585" on="1"/>
        <pt x="72" y="534" on="0"/>
        <pt x="100" y="465" on="0"/>
        <pt x="135" y="421" on="1"/>
        <pt x="117" y="399" on="0"/>
        <pt x="102" y="382" on="1"/>
        <pt x="76" y="353" on="0"/>
        <pt x="51" y="315" on="0"/>
        <pt x="35" y="264" on="0"/>
        <pt x="35" y="227" on="1"/>
        <pt x="35" y="162" on="0"/>
        <pt x="99" y="55" on="0"/>
        <pt x="210" y="-7" on="0"/>
        <pt x="277" y="-7" on="1"/>
        <pt x="392" y="-7" on="0"/>
        <pt x="476" y="66" on="1"/>
        <pt x="568" y="-32" on="1"/>
      </contour>
      <contour>
        <pt x="301" y="521" on="0"/>
        <pt x="274" y="504" on="1"/>
        <pt x="254" y="526" on="1"/>
        <pt x="245" y="534" on="0"/>
        <pt x="233" y="567" on="0"/>
        <pt x="233" y="586" on="1"/>
        <pt x="233" y="608" on="0"/>
        <pt x="265" y="637" on="0"/>
        <pt x="290" y="637" on="1"/>
        <pt x="310" y="637" on="0"/>
        <pt x="338" y="607" on="0"/>
        <pt x="338" y="586" on="1"/>
        <pt x="338" y="564" on="0"/>
        <pt x="326" y="535" on="0"/>
        <pt x="310" y="525" on="1"/>
      </contour>
      <contour>
        <pt x="268" y="301" on="0"/>
        <pt x="276" y="275" on="1"/>
        <pt x="360" y="187" on="1"/>
        <pt x="328" y="165" on="0"/>
        <pt x="281" y="165" on="1"/>
        <pt x="250" y="165" on="0"/>
        <pt x="213" y="205" on="0"/>
        <pt x="213" y="230" on="1"/>
        <pt x="213" y="257" on="0"/>
        <pt x="236" y="285" on="0"/>
        <pt x="266" y="307" on="1"/>
      </contour>
    </TTGlyph>
    <TTGlyph name="aring" xMin="39" yMin="-11" xMax="589" yMax="933">
      <contour>
        <pt x="301" y="933" on="0"/>
        <pt x="377" y="888" on="0"/>
        <pt x="422" y="812" on="0"/>
        <pt x="422" y="767" on="1"/>
        <pt x="422" y="722" on="0"/>
        <pt x="377" y="646" on="0"/>
        <pt x="301" y="601" on="0"/>
        <pt x="256" y="601" on="1"/>
        <pt x="211" y="601" on="0"/>
        <pt x="135" y="646" on="0"/>
        <pt x="91" y="722" on="0"/>
        <pt x="91" y="767" on="1"/>
        <pt x="91" y="812" on="0"/>
        <pt x="135" y="888" on="0"/>
        <pt x="211" y="933" on="0"/>
        <pt x="256" y="933" on="1"/>
      </contour>
      <contour>
        <pt x="192" y="739" on="0"/>
        <pt x="229" y="702" on="0"/>
        <pt x="256" y="702" on="1"/>
        <pt x="284" y="702" on="0"/>
        <pt x="320" y="739" on="0"/>
        <pt x="320" y="767" on="1"/>
        <pt x="320" y="794" on="0"/>
        <pt x="284" y="830" on="0"/>
        <pt x="256" y="830" on="1"/>
        <pt x="229" y="830" on="0"/>
        <pt x="192" y="794" on="0"/>
        <pt x="192" y="767" on="1"/>
      </contour>
      <contour>
        <pt x="319" y="1" on="0"/>
        <pt x="274" y="-11" on="0"/>
        <pt x="240" y="-11" on="1"/>
        <pt x="146" y="-11" on="0"/>
        <pt x="39" y="82" on="0"/>
        <pt x="39" y="156" on="1"/>
        <pt x="39" y="224" on="0"/>
        <pt x="136" y="316" on="0"/>
        <pt x="234" y="316" on="1"/>
        <pt x="301" y="316" on="0"/>
        <pt x="355" y="302" on="1"/>
        <pt x="354" y="308" on="1"/>
        <pt x="354" y="339" on="0"/>
        <pt x="302" y="369" on="0"/>
        <pt x="257" y="369" on="1"/>
        <pt x="212" y="369" on="0"/>
        <pt x="144" y="353" on="0"/>
        <pt x="107" y="335" on="1"/>
        <pt x="54" y="441" on="1"/>
        <pt x="110" y="479" on="0"/>
        <pt x="224" y="517" on="0"/>
        <pt x="288" y="517" on="1"/>
        <pt x="393" y="517" on="0"/>
        <pt x="516" y="420" on="0"/>
        <pt x="516" y="311" on="1"/>
        <pt x="517" y="152" on="1"/>
        <pt x="589" y="152" on="1"/>
        <pt x="589" y="0" on="1"/>
        <pt x="355" y="0" on="1"/>
        <pt x="355" y="20" on="1"/>
      </contour>
      <contour>
        <pt x="310" y="118" on="0"/>
        <pt x="355" y="151" on="1"/>
        <pt x="355" y="196" on="1"/>
        <pt x="233" y="196" on="1"/>
        <pt x="220" y="196" on="0"/>
        <pt x="194" y="176" on="0"/>
        <pt x="194" y="160" on="1"/>
        <pt x="194" y="143" on="0"/>
        <pt x="221" y="118" on="0"/>
        <pt x="248" y="118" on="1"/>
      </contour>
    </TTGlyph>
    <TTGlyph name="asciicircum" xMin="34" yMin="353" xMax="564" yMax="739">
      <contour>
        <pt x="367" y="739" on="1"/>
        <pt x="564" y="353" on="1"/>
        <pt x="420" y="353" on="1"/>
        <pt x="301" y="594" on="1"/>
        <pt x="175" y="353" on="1"/>
        <pt x="34" y="353" on="1"/>
        <pt x="239" y="739" on="1"/>
      </contour>
    </TTGlyph>
    <TTGlyph name="asciitilde" xMin="-33" yMin="232" xMax="428" yMax="442">
      <contour>
        <pt x="-33" y="269" on="0"/>
        <pt x="-33" y="286" on="1"/>
        <pt x="-33" y="322" on="0"/>
        <pt x="-6" y="394" on="0"/>
        <pt x="56" y="442" on="0"/>
        <pt x="106" y="442" on="1"/>
        <pt x="118" y="442" on="0"/>
        <pt x="159" y="424" on="0"/>
        <pt x="191" y="407" on="1"/>
        <pt x="228" y="388" on="0"/>
        <pt x="269" y="370" on="0"/>
        <pt x="282" y="370" on="1"/>
        <pt x="301" y="370" on="0"/>
        <pt x="318" y="387" on="0"/>
        <pt x="318" y="405" on="1"/>
        <pt x="318" y="415" on="0"/>
        <pt x="317" y="421" on="1"/>
        <pt x="426" y="414" on="1"/>
        <pt x="428" y="406" on="0"/>
        <pt x="428" y="386" on="1"/>
        <pt x="428" y="350" on="0"/>
        <pt x="399" y="280" on="0"/>
        <pt x="331" y="232" on="0"/>
        <pt x="276" y="232" on="1"/>
        <pt x="249" y="232" on="0"/>
        <pt x="200" y="253" on="0"/>
        <pt x="167" y="273" on="1"/>
        <pt x="163" y="275" on="0"/>
        <pt x="133" y="292" on="0"/>
        <pt x="111" y="300" on="0"/>
        <pt x="103" y="300" on="1"/>
        <pt x="68" y="300" on="0"/>
        <pt x="68" y="270" on="1"/>
        <pt x="68" y="263" on="0"/>
        <pt x="71" y="251" on="1"/>
        <pt x="-30" y="255" on="1"/>
      </contour>
    </TTGlyph>
    <TTGlyph name="asterisk" xMin="30" yMin="357" xMax="493" yMax="801">
      <contour>
        <pt x="332" y="678" on="1"/>
        <pt x="448" y="715" on="1"/>
        <pt x="493" y="579" on="1"/>
        <pt x="377" y="541" on="1"/>
        <pt x="448" y="443" on="1"/>
        <pt x="333" y="358" on="1"/>
        <pt x="261" y="459" on="1"/>
        <pt x="189" y="357" on="1"/>
        <pt x="74" y="443" on="1"/>
        <pt x="144" y="541" on="1"/>
        <pt x="30" y="579" on="1"/>
        <pt x="75" y="714" on="1"/>
        <pt x="190" y="677" on="1"/>
        <pt x="190" y="801" on="1"/>
        <pt x="332" y="801" on="1"/>
      </contour>
    </TTGlyph>
    <TTGlyph name="at" xMin="100" yMin="-218" xMax="1019" yMax="699">
      <contour>
        <pt x="630" y="467" on="1"/>
        <pt x="786" y="467" on="1"/>
        <pt x="742" y="509" on="0"/>
        <pt x="625" y="557" on="0"/>
        <pt x="559" y="557" on="1"/>
        <pt x="473" y="557" on="0"/>
        <pt x="328" y="472" on="0"/>
        <pt x="244" y="327" on="0"/>
        <pt x="244" y="241" on="1"/>
        <pt x="244" y="155" on="0"/>
        <pt x="328" y="9" on="0"/>
        <pt x="473" y="-76" on="0"/>
        <pt x="559" y="-76" on="1"/>
        <pt x="643" y="-76" on="0"/>
        <pt x="743" y="-17" on="1"/>
        <pt x="818" y="-140" on="1"/>
        <pt x="755" y="-178" on="0"/>
        <pt x="622" y="-218" on="0"/>
        <pt x="559" y="-218" on="1"/>
        <pt x="434" y="-218" on="0"/>
        <pt x="223" y="-95" on="0"/>
        <pt x="100" y="116" on="0"/>
        <pt x="100" y="241" on="1"/>
        <pt x="100" y="366" on="0"/>
        <pt x="223" y="576" on="0"/>
        <pt x="434" y="699" on="0"/>
        <pt x="559" y="699" on="1"/>
        <pt x="685" y="699" on="0"/>
        <pt x="896" y="581" on="0"/>
        <pt x="1019" y="381" on="0"/>
        <pt x="1019" y="264" on="1"/>
        <pt x="1019" y="196" on="0"/>
        <pt x="965" y="71" on="0"/>
        <pt x="861" y="-8" on="0"/>
        <pt x="790" y="-8" on="1"/>
        <pt x="715" y="-8" on="0"/>
        <pt x="674" y="37" on="1"/>
        <pt x="647" y="14" on="0"/>
        <pt x="579" y="-13" on="0"/>
        <pt x="550" y="-13" on="1"/>
        <pt x="478" y="-13" on="0"/>
        <pt x="363" y="55" on="0"/>
        <pt x="297" y="169" on="0"/>
        <pt x="297" y="234" on="1"/>
        <pt x="297" y="298" on="0"/>
        <pt x="358" y="409" on="0"/>
        <pt x="468" y="476" on="0"/>
        <pt x="537" y="476" on="1"/>
        <pt x="582" y="476" on="0"/>
        <pt x="630" y="461" on="1"/>
      </contour>
      <contour>
        <pt x="877" y="320" on="0"/>
        <pt x="830" y="425" on="0"/>
        <pt x="788" y="465" on="1"/>
        <pt x="788" y="154" on="1"/>
        <pt x="787" y="136" on="0"/>
        <pt x="802" y="115" on="0"/>
        <pt x="813" y="115" on="1"/>
        <pt x="848" y="115" on="0"/>
        <pt x="877" y="199" on="0"/>
        <pt x="877" y="263" on="1"/>
      </contour>
      <contour>
        <pt x="630" y="262" on="1"/>
        <pt x="619" y="289" on="0"/>
        <pt x="576" y="321" on="0"/>
        <pt x="552" y="321" on="1"/>
        <pt x="518" y="321" on="0"/>
        <pt x="466" y="270" on="0"/>
        <pt x="466" y="234" on="1"/>
        <pt x="466" y="196" on="0"/>
        <pt x="516" y="149" on="0"/>
        <pt x="550" y="149" on="1"/>
        <pt x="573" y="149" on="0"/>
        <pt x="616" y="176" on="0"/>
        <pt x="630" y="201" on="1"/>
      </contour>
    </TTGlyph>
    <TTGlyph name="atilde" xMin="15" yMin="-11" xMax="589" yMax="733">
      <contour>
        <pt x="182" y="733" on="0"/>
        <pt x="215" y="722" on="0"/>
        <pt x="245" y="710" on="1"/>
        <pt x="272" y="699" on="0"/>
        <pt x="300" y="690" on="0"/>
        <pt x="314" y="690" on="1"/>
        <pt x="338" y="690" on="0"/>
        <pt x="372" y="704" on="0"/>
        <pt x="387" y="721" on="1"/>
        <pt x="471" y="681" on="1"/>
        <pt x="453" y="634" on="0"/>
        <pt x="373" y="570" on="0"/>
        <pt x="327" y="570" on="1"/>
        <pt x="303" y="570" on="0"/>
        <pt x="262" y="581" on="0"/>
        <pt x="236" y="592" on="1"/>
        <pt x="190" y="611" on="0"/>
        <pt x="162" y="611" on="1"/>
        <pt x="144" y="611" on="0"/>
        <pt x="118" y="598" on="0"/>
        <pt x="100" y="584" on="0"/>
        <pt x="97" y="582" on="1"/>
        <pt x="15" y="619" on="1"/>
        <pt x="24" y="653" on="0"/>
        <pt x="77" y="705" on="0"/>
        <pt x="141" y="733" on="0"/>
        <pt x="165" y="733" on="1"/>
      </contour>
      <contour>
        <pt x="319" y="1" on="0"/>
        <pt x="274" y="-11" on="0"/>
        <pt x="240" y="-11" on="1"/>
        <pt x="146" y="-11" on="0"/>
        <pt x="39" y="82" on="0"/>
        <pt x="39" y="156" on="1"/>
        <pt x="39" y="224" on="0"/>
        <pt x="136" y="316" on="0"/>
        <pt x="234" y="316" on="1"/>
        <pt x="301" y="316" on="0"/>
        <pt x="355" y="302" on="1"/>
        <pt x="354" y="308" on="1"/>
        <pt x="354" y="339" on="0"/>
        <pt x="302" y="369" on="0"/>
        <pt x="257" y="369" on="1"/>
        <pt x="212" y="369" on="0"/>
        <pt x="144" y="353" on="0"/>
        <pt x="107" y="335" on="1"/>
        <pt x="54" y="441" on="1"/>
        <pt x="110" y="479" on="0"/>
        <pt x="224" y="517" on="0"/>
        <pt x="288" y="517" on="1"/>
        <pt x="393" y="517" on="0"/>
        <pt x="516" y="420" on="0"/>
        <pt x="516" y="311" on="1"/>
        <pt x="517" y="152" on="1"/>
        <pt x="589" y="152" on="1"/>
        <pt x="589" y="0" on="1"/>
        <pt x="355" y="0" on="1"/>
        <pt x="355" y="20" on="1"/>
      </contour>
      <contour>
        <pt x="310" y="118" on="0"/>
        <pt x="355" y="151" on="1"/>
        <pt x="355" y="196" on="1"/>
        <pt x="233" y="196" on="1"/>
        <pt x="220" y="196" on="0"/>
        <pt x="194" y="176" on="0"/>
        <pt x="194" y="160" on="1"/>
        <pt x="194" y="143" on="0"/>
        <pt x="221" y="118" on="0"/>
        <pt x="248" y="118" on="1"/>
      </contour>
    </TTGlyph>
    <TTGlyph name="b" xMin="9" yMin="-9" xMax="621" yMax="760">
      <contour>
        <pt x="424" y="522" on="0"/>
        <pt x="549" y="448" on="0"/>
        <pt x="621" y="325" on="0"/>
        <pt x="621" y="254" on="1"/>
        <pt x="621" y="184" on="0"/>
        <pt x="553" y="63" on="0"/>
        <pt x="431" y="-9" on="0"/>
        <pt x="356" y="-9" on="1"/>
        <pt x="304" y="-9" on="0"/>
        <pt x="250" y="8" on="1"/>
        <pt x="250" y="0" on="1"/>
        <pt x="79" y="0" on="1"/>
        <pt x="79" y="608" on="1"/>
        <pt x="9" y="608" on="1"/>
        <pt x="9" y="760" on="1"/>
        <pt x="250" y="760" on="1"/>
        <pt x="250" y="506" on="1"/>
        <pt x="299" y="522" on="0"/>
        <pt x="348" y="522" on="1"/>
      </contour>
      <contour>
        <pt x="389" y="146" on="0"/>
        <pt x="453" y="207" on="0"/>
        <pt x="453" y="254" on="1"/>
        <pt x="453" y="304" on="0"/>
        <pt x="389" y="367" on="0"/>
        <pt x="343" y="367" on="1"/>
        <pt x="283" y="367" on="0"/>
        <pt x="250" y="311" on="1"/>
        <pt x="250" y="202" on="1"/>
        <pt x="266" y="176" on="0"/>
        <pt x="315" y="146" on="0"/>
        <pt x="343" y="146" on="1"/>
      </contour>
    </TTGlyph>
    <TTGlyph name="backslash" xMin="-3" yMin="-190" xMax="381" yMax="642">
      <contour>
        <pt x="-3" y="642" on="1"/>
        <pt x="125" y="642" on="1"/>
        <pt x="381" y="-190" on="1"/>
        <pt x="249" y="-190" on="1"/>
      </contour>
    </TTGlyph>
    <TTGlyph name="bar" xMin="55" yMin="-132" xMax="195" yMax="844">
      <contour>
        <pt x="55" y="844" on="1"/>
        <pt x="195" y="844" on="1"/>
        <pt x="195" y="-132" on="1"/>
        <pt x="55" y="-132" on="1"/>
      </contour>
    </TTGlyph>
    <TTGlyph name="braceleft" xMin="45" yMin="-177" xMax="453" yMax="903">
      <contour>
        <pt x="65" y="418" on="0"/>
        <pt x="85" y="418" on="1"/>
        <pt x="117" y="417" on="1"/>
        <pt x="139" y="417" on="0"/>
        <pt x="162" y="436" on="0"/>
        <pt x="173" y="501" on="0"/>
        <pt x="173" y="570" on="1"/>
        <pt x="173" y="731" on="1"/>
        <pt x="173" y="773" on="0"/>
        <pt x="178" y="794" on="1"/>
        <pt x="192" y="856" on="0"/>
        <pt x="264" y="903" on="0"/>
        <pt x="336" y="903" on="1"/>
        <pt x="370" y="903" on="0"/>
        <pt x="420" y="900" on="0"/>
        <pt x="447" y="897" on="0"/>
        <pt x="441" y="897" on="1"/>
        <pt x="441" y="818" on="1"/>
        <pt x="453" y="716" on="1"/>
        <pt x="416" y="714" on="0"/>
        <pt x="384" y="704" on="0"/>
        <pt x="373" y="679" on="0"/>
        <pt x="373" y="649" on="1"/>
        <pt x="373" y="438" on="1"/>
        <pt x="373" y="410" on="0"/>
        <pt x="358" y="379" on="0"/>
        <pt x="327" y="364" on="1"/>
        <pt x="357" y="352" on="0"/>
        <pt x="380" y="304" on="0"/>
        <pt x="380" y="272" on="1"/>
        <pt x="380" y="254" on="0"/>
        <pt x="376" y="222" on="1"/>
        <pt x="375" y="214" on="0"/>
        <pt x="373" y="195" on="0"/>
        <pt x="373" y="184" on="1"/>
        <pt x="373" y="97" on="1"/>
        <pt x="373" y="61" on="0"/>
        <pt x="383" y="33" on="0"/>
        <pt x="413" y="25" on="0"/>
        <pt x="453" y="23" on="1"/>
        <pt x="441" y="-85" on="1"/>
        <pt x="441" y="-172" on="1"/>
        <pt x="441" y="-173" on="0"/>
        <pt x="420" y="-175" on="0"/>
        <pt x="370" y="-177" on="0"/>
        <pt x="336" y="-177" on="1"/>
        <pt x="277" y="-177" on="0"/>
        <pt x="207" y="-144" on="0"/>
        <pt x="173" y="-64" on="0"/>
        <pt x="173" y="7" on="1"/>
        <pt x="173" y="206" on="1"/>
        <pt x="173" y="249" on="0"/>
        <pt x="161" y="294" on="0"/>
        <pt x="138" y="309" on="0"/>
        <pt x="119" y="309" on="1"/>
        <pt x="110" y="309" on="0"/>
        <pt x="89" y="307" on="0"/>
        <pt x="76" y="307" on="1"/>
        <pt x="62" y="307" on="0"/>
        <pt x="45" y="310" on="1"/>
        <pt x="45" y="414" on="1"/>
      </contour>
    </TTGlyph>
    <TTGlyph name="braceright" xMin="16" yMin="-177" xMax="424" yMax="903">
      <contour>
        <pt x="28" y="-173" on="0"/>
        <pt x="49" y="-175" on="0"/>
        <pt x="99" y="-177" on="0"/>
        <pt x="133" y="-177" on="1"/>
        <pt x="204" y="-177" on="0"/>
        <pt x="277" y="-130" on="0"/>
        <pt x="291" y="-70" on="1"/>
        <pt x="296" y="-46" on="0"/>
        <pt x="296" y="-5" on="1"/>
        <pt x="296" y="153" on="1"/>
        <pt x="296" y="222" on="0"/>
        <pt x="307" y="287" on="0"/>
        <pt x="331" y="307" on="0"/>
        <pt x="353" y="307" on="1"/>
        <pt x="385" y="306" on="1"/>
        <pt x="405" y="306" on="0"/>
        <pt x="424" y="310" on="1"/>
        <pt x="424" y="414" on="1"/>
        <pt x="404" y="418" on="0"/>
        <pt x="383" y="418" on="1"/>
        <pt x="353" y="417" on="1"/>
        <pt x="331" y="417" on="0"/>
        <pt x="307" y="436" on="0"/>
        <pt x="296" y="501" on="0"/>
        <pt x="296" y="570" on="1"/>
        <pt x="296" y="731" on="1"/>
        <pt x="296" y="773" on="0"/>
        <pt x="291" y="795" on="1"/>
        <pt x="277" y="856" on="0"/>
        <pt x="204" y="903" on="0"/>
        <pt x="133" y="903" on="1"/>
        <pt x="99" y="903" on="0"/>
        <pt x="49" y="900" on="0"/>
        <pt x="22" y="897" on="0"/>
        <pt x="28" y="897" on="1"/>
        <pt x="28" y="818" on="1"/>
        <pt x="16" y="716" on="1"/>
        <pt x="53" y="714" on="0"/>
        <pt x="85" y="704" on="0"/>
        <pt x="96" y="678" on="0"/>
        <pt x="96" y="649" on="1"/>
        <pt x="96" y="438" on="1"/>
        <pt x="96" y="418" on="0"/>
        <pt x="100" y="396" on="0"/>
        <pt x="119" y="374" on="0"/>
        <pt x="141" y="364" on="1"/>
        <pt x="110" y="350" on="0"/>
        <pt x="96" y="312" on="0"/>
        <pt x="96" y="282" on="1"/>
        <pt x="96" y="97" on="1"/>
        <pt x="96" y="61" on="0"/>
        <pt x="85" y="33" on="0"/>
        <pt x="56" y="25" on="0"/>
        <pt x="16" y="23" on="1"/>
        <pt x="28" y="-85" on="1"/>
        <pt x="28" y="-172" on="1"/>
      </contour>
    </TTGlyph>
    <TTGlyph name="bracketleft" xMin="13" yMin="-274" xMax="305" yMax="797">
      <contour>
        <pt x="13" y="797" on="1"/>
        <pt x="305" y="797" on="1"/>
        <pt x="305" y="660" on="1"/>
        <pt x="195" y="660" on="1"/>
        <pt x="195" y="-136" on="1"/>
        <pt x="305" y="-136" on="1"/>
        <pt x="305" y="-274" on="1"/>
        <pt x="13" y="-274" on="1"/>
      </contour>
    </TTGlyph>
    <TTGlyph name="bracketright" xMin="15" yMin="-274" xMax="307" yMax="797">
      <contour>
        <pt x="124" y="660" on="1"/>
        <pt x="15" y="660" on="1"/>
        <pt x="15" y="797" on="1"/>
        <pt x="307" y="797" on="1"/>
        <pt x="307" y="-274" on="1"/>
        <pt x="15" y="-274" on="1"/>
        <pt x="15" y="-136" on="1"/>
        <pt x="124" y="-136" on="1"/>
      </contour>
    </TTGlyph>
    <TTGlyph name="breve" xMin="6" yMin="566" xMax="461" yMax="723">
      <contour>
        <pt x="170" y="566" on="0"/>
        <pt x="84" y="600" on="0"/>
        <pt x="28" y="668" on="0"/>
        <pt x="6" y="723" on="1"/>
        <pt x="152" y="723" on="1"/>
        <pt x="165" y="699" on="0"/>
        <pt x="203" y="679" on="0"/>
        <pt x="235" y="679" on="1"/>
        <pt x="265" y="679" on="0"/>
        <pt x="302" y="697" on="0"/>
        <pt x="317" y="723" on="1"/>
        <pt x="461" y="723" on="1"/>
        <pt x="433" y="642" on="0"/>
        <pt x="330" y="566" on="0"/>
        <pt x="235" y="566" on="1"/>
      </contour>
    </TTGlyph>
    <TTGlyph name="brokenbar" xMin="55" yMin="-132" xMax="195" yMax="844">
      <contour>
        <pt x="55" y="844" on="1"/>
        <pt x="195" y="844" on="1"/>
        <pt x="195" y="473" on="1"/>
        <pt x="55" y="473" on="1"/>
      </contour>
      <contour>
        <pt x="55" y="239" on="1"/>
        <pt x="195" y="239" on="1"/>
        <pt x="195" y="-132" on="1"/>
        <pt x="55" y="-132" on="1"/>
      </contour>
    </TTGlyph>
    <TTGlyph name="bullet" xMin="93" yMin="204" xMax="443" yMax="554">
      <contour>
        <pt x="93" y="427" on="0"/>
        <pt x="140" y="507" on="0"/>
        <pt x="221" y="554" on="0"/>
        <pt x="269" y="554" on="1"/>
        <pt x="316" y="554" on="0"/>
        <pt x="396" y="507" on="0"/>
        <pt x="443" y="427" on="0"/>
        <pt x="443" y="380" on="1"/>
        <pt x="443" y="332" on="0"/>
        <pt x="396" y="251" on="0"/>
        <pt x="316" y="204" on="0"/>
        <pt x="269" y="204" on="1"/>
        <pt x="221" y="204" on="0"/>
        <pt x="140" y="251" on="0"/>
        <pt x="93" y="332" on="0"/>
        <pt x="93" y="380" on="1"/>
      </contour>
    </TTGlyph>
    <TTGlyph name="c" xMin="32" yMin="-11" xMax="580" yMax="530">
      <contour>
        <pt x="394" y="347" on="0"/>
        <pt x="346" y="370" on="0"/>
        <pt x="315" y="370" on="1"/>
        <pt x="263" y="370" on="0"/>
        <pt x="197" y="306" on="0"/>
        <pt x="197" y="259" on="1"/>
        <pt x="197" y="211" on="0"/>
        <pt x="264" y="148" on="0"/>
        <pt x="315" y="148" on="1"/>
        <pt x="356" y="148" on="0"/>
        <pt x="414" y="199" on="0"/>
        <pt x="425" y="230" on="1"/>
        <pt x="515" y="207" on="0"/>
        <pt x="580" y="190" on="1"/>
        <pt x="571" y="146" on="0"/>
        <pt x="503" y="53" on="0"/>
        <pt x="384" y="-11" on="0"/>
        <pt x="306" y="-11" on="1"/>
        <pt x="228" y="-11" on="0"/>
        <pt x="103" y="62" on="0"/>
        <pt x="32" y="187" on="0"/>
        <pt x="32" y="261" on="1"/>
        <pt x="32" y="335" on="0"/>
        <pt x="102" y="459" on="0"/>
        <pt x="228" y="530" on="0"/>
        <pt x="306" y="530" on="1"/>
        <pt x="374" y="530" on="0"/>
        <pt x="454" y="496" on="1"/>
        <pt x="567" y="496" on="1"/>
        <pt x="567" y="326" on="1"/>
        <pt x="477" y="326" on="1"/>
        <pt x="437" y="326" on="0"/>
        <pt x="417" y="327" on="1"/>
        <pt x="417" y="326" on="1"/>
      </contour>
    </TTGlyph>
    <TTGlyph name="caron" xMin="18" yMin="555" xMax="443" yMax="713">
      <contour>
        <pt x="303" y="713" on="1"/>
        <pt x="230" y="642" on="1"/>
        <pt x="156" y="713" on="1"/>
        <pt x="18" y="713" on="1"/>
        <pt x="156" y="555" on="1"/>
        <pt x="306" y="555" on="1"/>
        <pt x="443" y="713" on="1"/>
      </contour>
    </TTGlyph>
    <TTGlyph name="ccaron" xMin="32" yMin="-11" xMax="580" yMax="713">
      <component glyphName="c" x="0" y="0" flags="0x0"/>
      <component glyphName="caron" x="70" y="0" flags="0x0"/>
    </TTGlyph>
    <TTGlyph name="ccaron.001" xMin="32" yMin="-11" xMax="580" yMax="713">
      <component glyphName="c" x="0" y="0" flags="0x0"/>
      <component glyphName="caron" x="70" y="0" flags="0x0"/>
    </TTGlyph>
    <TTGlyph name="ccedilla" xMin="32" yMin="-226" xMax="580" yMax="530">
      <component glyphName="c" x="0" y="0" flags="0x0"/>
      <component glyphName="cedilla" x="50" y="0" flags="0x0"/>
    </TTGlyph>
    <TTGlyph name="cedilla" xMin="89" yMin="-226" xMax="328" yMax="-22">
      <contour>
        <pt x="127" y="-137" on="0"/>
        <pt x="183" y="-78" on="0"/>
        <pt x="193" y="-22" on="1"/>
        <pt x="328" y="-71" on="1"/>
        <pt x="305" y="-148" on="0"/>
        <pt x="188" y="-224" on="0"/>
        <pt x="104" y="-226" on="1"/>
        <pt x="89" y="-141" on="1"/>
      </contour>
    </TTGlyph>
    <TTGlyph name="cent" xMin="28" yMin="-92" xMax="576" yMax="771">
      <contour>
        <pt x="565" y="217" on="0"/>
        <pt x="474" y="109" on="0"/>
        <pt x="401" y="85" on="1"/>
        <pt x="401" y="-92" on="1"/>
        <pt x="215" y="-92" on="1"/>
        <pt x="215" y="82" on="1"/>
        <pt x="130" y="108" on="0"/>
        <pt x="28" y="251" on="0"/>
        <pt x="28" y="341" on="1"/>
        <pt x="28" y="432" on="0"/>
        <pt x="130" y="571" on="0"/>
        <pt x="215" y="597" on="1"/>
        <pt x="215" y="771" on="1"/>
        <pt x="401" y="771" on="1"/>
        <pt x="401" y="594" on="1"/>
        <pt x="425" y="587" on="0"/>
        <pt x="450" y="576" on="1"/>
        <pt x="563" y="576" on="1"/>
        <pt x="563" y="406" on="1"/>
        <pt x="473" y="406" on="1"/>
        <pt x="433" y="406" on="0"/>
        <pt x="413" y="407" on="1"/>
        <pt x="413" y="406" on="1"/>
        <pt x="390" y="427" on="0"/>
        <pt x="342" y="450" on="0"/>
        <pt x="311" y="450" on="1"/>
        <pt x="259" y="450" on="0"/>
        <pt x="193" y="386" on="0"/>
        <pt x="193" y="339" on="1"/>
        <pt x="193" y="291" on="0"/>
        <pt x="260" y="228" on="0"/>
        <pt x="311" y="228" on="1"/>
        <pt x="352" y="228" on="0"/>
        <pt x="410" y="279" on="0"/>
        <pt x="421" y="310" on="1"/>
        <pt x="511" y="287" on="0"/>
        <pt x="576" y="270" on="1"/>
      </contour>
    </TTGlyph>
    <TTGlyph name="circumflex" xMin="19" yMin="574" xMax="442" yMax="735">
      <contour>
        <pt x="158" y="574" on="1"/>
        <pt x="230" y="649" on="1"/>
        <pt x="305" y="574" on="1"/>
        <pt x="442" y="574" on="1"/>
        <pt x="304" y="735" on="1"/>
        <pt x="156" y="735" on="1"/>
        <pt x="19" y="574" on="1"/>
      </contour>
    </TTGlyph>
    <TTGlyph name="colon" xMin="31" yMin="-20" xMax="220" yMax="539">
      <component glyphName="dotaccent" x="0" y="-220" flags="0x4"/>
      <component glyphName="dotaccent" x="0" y="-588" flags="0x4"/>
    </TTGlyph>
    <TTGlyph name="comma" xMin="10" yMin="-182" xMax="264" yMax="138">
      <contour>
        <pt x="100" y="138" on="1"/>
        <pt x="264" y="82" on="1"/>
        <pt x="121" y="-182" on="1"/>
        <pt x="10" y="-140" on="1"/>
      </contour>
    </TTGlyph>
    <TTGlyph name="copyright" xMin="50" yMin="-12" xMax="887" yMax="823">
      <contour>
        <pt x="50" y="520" on="0"/>
        <pt x="162" y="711" on="0"/>
        <pt x="354" y="823" on="0"/>
        <pt x="468" y="823" on="1"/>
        <pt x="582" y="823" on="0"/>
        <pt x="774" y="711" on="0"/>
        <pt x="887" y="520" on="0"/>
        <pt x="887" y="406" on="1"/>
        <pt x="887" y="292" on="0"/>
        <pt x="774" y="100" on="0"/>
        <pt x="582" y="-12" on="0"/>
        <pt x="468" y="-12" on="1"/>
        <pt x="354" y="-12" on="0"/>
        <pt x="162" y="100" on="0"/>
        <pt x="50" y="292" on="0"/>
        <pt x="50" y="406" on="1"/>
      </contour>
      <contour>
        <pt x="161" y="321" on="0"/>
        <pt x="243" y="180" on="0"/>
        <pt x="383" y="98" on="0"/>
        <pt x="468" y="98" on="1"/>
        <pt x="553" y="98" on="0"/>
        <pt x="693" y="180" on="0"/>
        <pt x="775" y="321" on="0"/>
        <pt x="775" y="406" on="1"/>
        <pt x="775" y="491" on="0"/>
        <pt x="693" y="631" on="0"/>
        <pt x="553" y="713" on="0"/>
        <pt x="468" y="713" on="1"/>
        <pt x="383" y="713" on="0"/>
        <pt x="243" y="631" on="0"/>
        <pt x="161" y="491" on="0"/>
        <pt x="161" y="406" on="1"/>
      </contour>
      <contour>
        <pt x="530" y="518" on="0"/>
        <pt x="473" y="518" on="1"/>
        <pt x="426" y="518" on="0"/>
        <pt x="361" y="453" on="0"/>
        <pt x="361" y="406" on="1"/>
        <pt x="361" y="359" on="0"/>
        <pt x="426" y="292" on="0"/>
        <pt x="473" y="292" on="1"/>
        <pt x="502" y="292" on="0"/>
        <pt x="551" y="316" on="0"/>
        <pt x="568" y="338" on="1"/>
        <pt x="668" y="238" on="1"/>
        <pt x="589" y="154" on="0"/>
        <pt x="473" y="154" on="1"/>
        <pt x="405" y="154" on="0"/>
        <pt x="289" y="222" on="0"/>
        <pt x="221" y="337" on="0"/>
        <pt x="221" y="406" on="1"/>
        <pt x="221" y="475" on="0"/>
        <pt x="289" y="590" on="0"/>
        <pt x="405" y="657" on="0"/>
        <pt x="473" y="657" on="1"/>
        <pt x="530" y="657" on="0"/>
        <pt x="628" y="614" on="0"/>
        <pt x="665" y="573" on="1"/>
        <pt x="566" y="471" on="1"/>
      </contour>
    </TTGlyph>
    <TTGlyph name="currency" xMin="21" yMin="6" xMax="733" yMax="732">
      <contour>
        <pt x="99" y="425" on="0"/>
        <pt x="124" y="480" on="1"/>
        <pt x="21" y="590" on="1"/>
        <pt x="171" y="729" on="1"/>
        <pt x="274" y="620" on="1"/>
        <pt x="322" y="640" on="0"/>
        <pt x="378" y="640" on="1"/>
        <pt x="433" y="640" on="0"/>
        <pt x="482" y="620" on="1"/>
        <pt x="586" y="732" on="1"/>
        <pt x="733" y="592" on="1"/>
        <pt x="630" y="482" on="1"/>
        <pt x="657" y="427" on="0"/>
        <pt x="657" y="362" on="1"/>
        <pt x="657" y="295" on="0"/>
        <pt x="629" y="240" on="1"/>
        <pt x="723" y="144" on="1"/>
        <pt x="574" y="6" on="1"/>
        <pt x="481" y="102" on="1"/>
        <pt x="433" y="83" on="0"/>
        <pt x="378" y="83" on="1"/>
        <pt x="324" y="83" on="0"/>
        <pt x="271" y="104" on="1"/>
        <pt x="180" y="7" on="1"/>
        <pt x="34" y="147" on="1"/>
        <pt x="124" y="242" on="1"/>
        <pt x="99" y="300" on="0"/>
        <pt x="99" y="362" on="1"/>
      </contour>
      <contour>
        <pt x="259" y="317" on="0"/>
        <pt x="328" y="248" on="0"/>
        <pt x="377" y="248" on="1"/>
        <pt x="427" y="248" on="0"/>
        <pt x="495" y="317" on="0"/>
        <pt x="495" y="366" on="1"/>
        <pt x="495" y="416" on="0"/>
        <pt x="427" y="484" on="0"/>
        <pt x="377" y="484" on="1"/>
        <pt x="328" y="484" on="0"/>
        <pt x="259" y="415" on="0"/>
        <pt x="259" y="366" on="1"/>
      </contour>
    </TTGlyph>
    <TTGlyph name="d" xMin="-3" yMin="-10" xMax="651" yMax="760">
      <contour>
        <pt x="543" y="760" on="1"/>
        <pt x="543" y="713" on="1"/>
        <pt x="544" y="635" on="1"/>
        <pt x="544" y="152" on="1"/>
        <pt x="651" y="152" on="1"/>
        <pt x="651" y="0" on="1"/>
        <pt x="373" y="0" on="1"/>
        <pt x="373" y="12" on="1"/>
        <pt x="315" y="-10" on="0"/>
        <pt x="270" y="-10" on="1"/>
        <pt x="191" y="-10" on="0"/>
        <pt x="67" y="64" on="0"/>
        <pt x="-3" y="187" on="0"/>
        <pt x="-3" y="257" on="1"/>
        <pt x="-3" y="329" on="0"/>
        <pt x="66" y="451" on="0"/>
        <pt x="188" y="522" on="0"/>
        <pt x="264" y="522" on="1"/>
        <pt x="307" y="522" on="0"/>
        <pt x="373" y="504" on="1"/>
        <pt x="373" y="608" on="1"/>
        <pt x="301" y="608" on="1"/>
        <pt x="301" y="760" on="1"/>
      </contour>
      <contour>
        <pt x="305" y="147" on="0"/>
        <pt x="355" y="178" on="0"/>
        <pt x="373" y="208" on="1"/>
        <pt x="373" y="308" on="1"/>
        <pt x="358" y="336" on="0"/>
        <pt x="306" y="367" on="0"/>
        <pt x="277" y="367" on="1"/>
        <pt x="231" y="367" on="0"/>
        <pt x="166" y="304" on="0"/>
        <pt x="166" y="255" on="1"/>
        <pt x="166" y="208" on="0"/>
        <pt x="232" y="147" on="0"/>
        <pt x="276" y="147" on="1"/>
      </contour>
    </TTGlyph>
    <TTGlyph name="degree" xMin="50" yMin="498" xMax="373" yMax="828">
      <contour>
        <pt x="168" y="828" on="0"/>
        <pt x="93" y="784" on="0"/>
        <pt x="50" y="708" on="0"/>
        <pt x="50" y="664" on="1"/>
        <pt x="50" y="619" on="0"/>
        <pt x="93" y="542" on="0"/>
        <pt x="167" y="498" on="0"/>
        <pt x="212" y="498" on="1"/>
        <pt x="257" y="498" on="0"/>
        <pt x="330" y="542" on="0"/>
        <pt x="373" y="618" on="0"/>
        <pt x="373" y="663" on="1"/>
        <pt x="373" y="710" on="0"/>
        <pt x="331" y="785" on="0"/>
        <pt x="257" y="828" on="0"/>
        <pt x="212" y="828" on="1"/>
      </contour>
      <contour>
        <pt x="135" y="694" on="0"/>
        <pt x="179" y="741" on="0"/>
        <pt x="211" y="741" on="1"/>
        <pt x="244" y="741" on="0"/>
        <pt x="286" y="698" on="0"/>
        <pt x="286" y="662" on="1"/>
        <pt x="286" y="627" on="0"/>
        <pt x="243" y="585" on="0"/>
        <pt x="208" y="585" on="1"/>
        <pt x="179" y="585" on="0"/>
        <pt x="135" y="630" on="0"/>
        <pt x="135" y="659" on="1"/>
      </contour>
    </TTGlyph>
    <TTGlyph name="dieresis" xMin="24" yMin="558" xMax="452" yMax="749">
      <contour>
        <pt x="24" y="693" on="0"/>
        <pt x="80" y="749" on="0"/>
        <pt x="120" y="749" on="1"/>
        <pt x="160" y="749" on="0"/>
        <pt x="215" y="693" on="0"/>
        <pt x="215" y="653" on="1"/>
        <pt x="215" y="614" on="0"/>
        <pt x="160" y="558" on="0"/>
        <pt x="120" y="558" on="1"/>
        <pt x="80" y="558" on="0"/>
        <pt x="24" y="614" on="0"/>
        <pt x="24" y="653" on="1"/>
      </contour>
      <contour>
        <pt x="261" y="693" on="0"/>
        <pt x="317" y="749" on="0"/>
        <pt x="357" y="749" on="1"/>
        <pt x="397" y="749" on="0"/>
        <pt x="452" y="693" on="0"/>
        <pt x="452" y="653" on="1"/>
        <pt x="452" y="614" on="0"/>
        <pt x="397" y="558" on="0"/>
        <pt x="357" y="558" on="1"/>
        <pt x="317" y="558" on="0"/>
        <pt x="261" y="614" on="0"/>
        <pt x="261" y="653" on="1"/>
      </contour>
    </TTGlyph>
    <TTGlyph name="divide" xMin="25" yMin="-20" xMax="525" yMax="539">
      <component glyphName="dotaccent" x="155" y="-220" flags="0x4"/>
      <component glyphName="dotaccent" x="155" y="-588" flags="0x4"/>
      <component glyphName="endash" x="-43" y="-35" flags="0x4"/>
    </TTGlyph>
    <TTGlyph name="dollar" xMin="42" yMin="-92" xMax="552" yMax="771">
      <contour>
        <pt x="452" y="414" on="1"/>
        <pt x="366" y="414" on="1"/>
        <pt x="367" y="445" on="0"/>
        <pt x="329" y="484" on="0"/>
        <pt x="294" y="484" on="1"/>
        <pt x="280" y="484" on="0"/>
        <pt x="265" y="472" on="0"/>
        <pt x="265" y="462" on="1"/>
        <pt x="265" y="454" on="0"/>
        <pt x="298" y="434" on="0"/>
        <pt x="326" y="425" on="1"/>
        <pt x="412" y="397" on="0"/>
        <pt x="495" y="357" on="0"/>
        <pt x="538" y="294" on="0"/>
        <pt x="538" y="239" on="1"/>
        <pt x="538" y="177" on="0"/>
        <pt x="465" y="86" on="0"/>
        <pt x="401" y="65" on="1"/>
        <pt x="401" y="-92" on="1"/>
        <pt x="215" y="-92" on="1"/>
        <pt x="215" y="65" on="1"/>
        <pt x="209" y="68" on="0"/>
        <pt x="157" y="91" on="0"/>
        <pt x="138" y="106" on="1"/>
        <pt x="42" y="106" on="1"/>
        <pt x="42" y="275" on="1"/>
        <pt x="225" y="275" on="1"/>
        <pt x="225" y="228" on="0"/>
        <pt x="288" y="169" on="0"/>
        <pt x="344" y="170" on="1"/>
        <pt x="344" y="199" on="0"/>
        <pt x="305" y="199" on="1"/>
        <pt x="321" y="199" on="0"/>
        <pt x="338" y="213" on="0"/>
        <pt x="338" y="223" on="1"/>
        <pt x="338" y="231" on="0"/>
        <pt x="314" y="249" on="0"/>
        <pt x="298" y="255" on="1"/>
        <pt x="263" y="267" on="1"/>
        <pt x="206" y="285" on="1"/>
        <pt x="70" y="328" on="0"/>
        <pt x="70" y="449" on="1"/>
        <pt x="70" y="519" on="0"/>
        <pt x="149" y="602" on="0"/>
        <pt x="215" y="616" on="1"/>
        <pt x="215" y="771" on="1"/>
        <pt x="401" y="771" on="1"/>
        <pt x="401" y="604" on="1"/>
        <pt x="447" y="585" on="0"/>
        <pt x="450" y="584" on="1"/>
        <pt x="552" y="584" on="1"/>
        <pt x="552" y="414" on="1"/>
      </contour>
    </TTGlyph>
    <TTGlyph name="dotaccent" xMin="31" yMin="568" xMax="220" yMax="759">
      <contour>
        <pt x="31" y="703" on="0"/>
        <pt x="86" y="759" on="0"/>
        <pt x="126" y="759" on="1"/>
        <pt x="165" y="759" on="0"/>
        <pt x="220" y="703" on="0"/>
        <pt x="220" y="663" on="1"/>
        <pt x="220" y="624" on="0"/>
        <pt x="165" y="568" on="0"/>
        <pt x="126" y="568" on="1"/>
        <pt x="86" y="568" on="0"/>
        <pt x="31" y="624" on="0"/>
        <pt x="31" y="663" on="1"/>
      </contour>
    </TTGlyph>
    <TTGlyph name="dotlessi" xMin="29" yMin="0" xMax="347" yMax="506">
      <contour>
        <pt x="29" y="506" on="1"/>
        <pt x="280" y="506" on="1"/>
        <pt x="280" y="152" on="1"/>
        <pt x="347" y="152" on="1"/>
        <pt x="347" y="0" on="1"/>
        <pt x="30" y="0" on="1"/>
        <pt x="30" y="152" on="1"/>
        <pt x="107" y="152" on="1"/>
        <pt x="107" y="354" on="1"/>
        <pt x="29" y="354" on="1"/>
      </contour>
    </TTGlyph>
    <TTGlyph name="e" xMin="18" yMin="-13" xMax="560" yMax="531">
      <contour>
        <pt x="184" y="217" on="0"/>
        <pt x="181" y="220" on="1"/>
        <pt x="188" y="180" on="0"/>
        <pt x="261" y="134" on="0"/>
        <pt x="306" y="134" on="1"/>
        <pt x="339" y="134" on="0"/>
        <pt x="392" y="145" on="0"/>
        <pt x="433" y="157" on="1"/>
        <pt x="457" y="164" on="1"/>
        <pt x="517" y="50" on="1"/>
        <pt x="471" y="23" on="0"/>
        <pt x="419" y="-1" on="0"/>
        <pt x="355" y="-13" on="0"/>
        <pt x="306" y="-13" on="1"/>
        <pt x="215" y="-13" on="0"/>
        <pt x="85" y="64" on="0"/>
        <pt x="18" y="190" on="0"/>
        <pt x="18" y="262" on="1"/>
        <pt x="18" y="336" on="0"/>
        <pt x="90" y="459" on="0"/>
        <pt x="217" y="531" on="0"/>
        <pt x="294" y="531" on="1"/>
        <pt x="373" y="531" on="0"/>
        <pt x="493" y="460" on="0"/>
        <pt x="559" y="334" on="0"/>
        <pt x="559" y="254" on="1"/>
        <pt x="560" y="248" on="0"/>
        <pt x="560" y="234" on="1"/>
        <pt x="560" y="221" on="0"/>
        <pt x="559" y="214" on="1"/>
        <pt x="183" y="214" on="1"/>
      </contour>
      <contour>
        <pt x="210" y="393" on="0"/>
        <pt x="188" y="328" on="1"/>
        <pt x="380" y="328" on="1"/>
        <pt x="371" y="358" on="0"/>
        <pt x="332" y="393" on="0"/>
        <pt x="291" y="393" on="1"/>
      </contour>
    </TTGlyph>
    <TTGlyph name="eacute" xMin="18" yMin="-13" xMax="560" yMax="729">
      <component glyphName="e" x="0" y="0" flags="0x0"/>
      <component glyphName="acute" x="228" y="0" flags="0x0"/>
    </TTGlyph>
    <TTGlyph name="ecircumflex" xMin="18" yMin="-13" xMax="560" yMax="735">
      <component glyphName="e" x="0" y="0" flags="0x0"/>
      <component glyphName="circumflex" x="74" y="0" flags="0x0"/>
    </TTGlyph>
    <TTGlyph name="edieresis" xMin="18" yMin="-13" xMax="560" yMax="748">
      <component glyphName="e" x="0" y="0" flags="0x0"/>
      <component glyphName="dotaccent" x="42" y="-11" flags="0x4"/>
      <component glyphName="dotaccent" x="280" y="-11" flags="0x4"/>
    </TTGlyph>
    <TTGlyph name="egrave" xMin="18" yMin="-13" xMax="560" yMax="729">
      <component glyphName="e" x="0" y="0" flags="0x0"/>
      <component glyphName="grave" x="19" y="0" flags="0x0"/>
    </TTGlyph>
    <TTGlyph name="eight" xMin="50" yMin="-15" xMax="578" yMax="754">
      <contour>
        <pt x="382" y="754" on="0"/>
        <pt x="499" y="692" on="0"/>
        <pt x="567" y="587" on="0"/>
        <pt x="567" y="527" on="1"/>
        <pt x="567" y="487" on="0"/>
        <pt x="530" y="412" on="0"/>
        <pt x="497" y="382" on="1"/>
        <pt x="535" y="354" on="0"/>
        <pt x="578" y="274" on="0"/>
        <pt x="578" y="228" on="1"/>
        <pt x="578" y="164" on="0"/>
        <pt x="509" y="52" on="0"/>
        <pt x="387" y="-15" on="0"/>
        <pt x="314" y="-15" on="1"/>
        <pt x="241" y="-15" on="0"/>
        <pt x="120" y="54" on="0"/>
        <pt x="50" y="166" on="0"/>
        <pt x="50" y="226" on="1"/>
        <pt x="50" y="274" on="0"/>
        <pt x="94" y="355" on="0"/>
        <pt x="133" y="385" on="1"/>
        <pt x="100" y="413" on="0"/>
        <pt x="63" y="486" on="0"/>
        <pt x="63" y="523" on="1"/>
        <pt x="63" y="585" on="0"/>
        <pt x="131" y="691" on="0"/>
        <pt x="246" y="754" on="0"/>
        <pt x="313" y="754" on="1"/>
      </contour>
      <contour>
        <pt x="226" y="490" on="0"/>
        <pt x="277" y="448" on="0"/>
        <pt x="313" y="448" on="1"/>
        <pt x="350" y="448" on="0"/>
        <pt x="403" y="490" on="0"/>
        <pt x="403" y="517" on="1"/>
        <pt x="403" y="546" on="0"/>
        <pt x="350" y="591" on="0"/>
        <pt x="313" y="591" on="1"/>
        <pt x="277" y="591" on="0"/>
        <pt x="226" y="546" on="0"/>
        <pt x="226" y="517" on="1"/>
      </contour>
      <contour>
        <pt x="211" y="196" on="0"/>
        <pt x="271" y="146" on="0"/>
        <pt x="314" y="146" on="1"/>
        <pt x="357" y="146" on="0"/>
        <pt x="416" y="196" on="0"/>
        <pt x="416" y="230" on="1"/>
        <pt x="416" y="263" on="0"/>
        <pt x="357" y="311" on="0"/>
        <pt x="314" y="311" on="1"/>
        <pt x="270" y="311" on="0"/>
        <pt x="211" y="263" on="0"/>
        <pt x="211" y="230" on="1"/>
      </contour>
    </TTGlyph>
    <TTGlyph name="ellipsis" xMin="-15" yMin="-16" xMax="529" yMax="163">
      <contour>
        <pt x="469" y="163" on="0"/>
        <pt x="529" y="111" on="0"/>
        <pt x="529" y="74" on="1"/>
        <pt x="529" y="38" on="0"/>
        <pt x="468" y="-16" on="0"/>
        <pt x="429" y="-16" on="1"/>
        <pt x="402" y="-16" on="0"/>
        <pt x="356" y="10" on="0"/>
        <pt x="343" y="32" on="1"/>
        <pt x="329" y="10" on="0"/>
        <pt x="282" y="-16" on="0"/>
        <pt x="256" y="-16" on="1"/>
        <pt x="229" y="-16" on="0"/>
        <pt x="183" y="10" on="0"/>
        <pt x="170" y="32" on="1"/>
        <pt x="156" y="11" on="0"/>
        <pt x="109" y="-16" on="0"/>
        <pt x="82" y="-16" on="1"/>
        <pt x="42" y="-16" on="0"/>
        <pt x="-15" y="38" on="0"/>
        <pt x="-15" y="74" on="1"/>
        <pt x="-15" y="112" on="0"/>
        <pt x="41" y="163" on="0"/>
        <pt x="82" y="163" on="1"/>
        <pt x="109" y="163" on="0"/>
        <pt x="156" y="138" on="0"/>
        <pt x="170" y="118" on="1"/>
        <pt x="183" y="139" on="0"/>
        <pt x="229" y="163" on="0"/>
        <pt x="256" y="163" on="1"/>
        <pt x="283" y="163" on="0"/>
        <pt x="329" y="139" on="0"/>
        <pt x="343" y="118" on="1"/>
        <pt x="356" y="139" on="0"/>
        <pt x="402" y="163" on="0"/>
        <pt x="429" y="163" on="1"/>
      </contour>
    </TTGlyph>
    <TTGlyph name="emdash" xMin="0" yMin="219" xMax="864" yMax="373">
      <contour>
        <pt x="0" y="373" on="1"/>
        <pt x="864" y="373" on="1"/>
        <pt x="864" y="219" on="1"/>
        <pt x="0" y="219" on="1"/>
      </contour>
    </TTGlyph>
    <TTGlyph name="endash" xMin="68" yMin="219" xMax="568" yMax="373">
      <contour>
        <pt x="68" y="373" on="1"/>
        <pt x="568" y="373" on="1"/>
        <pt x="568" y="219" on="1"/>
        <pt x="68" y="219" on="1"/>
      </contour>
    </TTGlyph>
    <TTGlyph name="equal" xMin="26" yMin="133" xMax="473" yMax="524">
      <contour>
        <pt x="26" y="524" on="1"/>
        <pt x="473" y="524" on="1"/>
        <pt x="473" y="359" on="1"/>
        <pt x="26" y="359" on="1"/>
      </contour>
      <contour>
        <pt x="26" y="298" on="1"/>
        <pt x="473" y="298" on="1"/>
        <pt x="473" y="133" on="1"/>
        <pt x="26" y="133" on="1"/>
      </contour>
    </TTGlyph>
    <TTGlyph name="eth" xMin="54" yMin="3" xMax="563" yMax="750">
      <contour>
        <pt x="318" y="750" on="1"/>
        <pt x="354" y="684" on="1"/>
        <pt x="163" y="684" on="1"/>
        <pt x="127" y="750" on="1"/>
      </contour>
      <contour>
        <pt x="114" y="684" on="1"/>
        <pt x="163" y="684" on="1"/>
        <pt x="247" y="532" on="1"/>
        <pt x="114" y="532" on="1"/>
      </contour>
      <contour>
        <pt x="476" y="532" on="1"/>
        <pt x="438" y="532" on="1"/>
        <pt x="354" y="684" on="1"/>
        <pt x="476" y="684" on="1"/>
      </contour>
      <contour>
        <pt x="533" y="363" on="0"/>
        <pt x="563" y="289" on="0"/>
        <pt x="563" y="244" on="1"/>
        <pt x="563" y="179" on="0"/>
        <pt x="495" y="68" on="0"/>
        <pt x="378" y="3" on="0"/>
        <pt x="309" y="3" on="1"/>
        <pt x="239" y="3" on="0"/>
        <pt x="122" y="69" on="0"/>
        <pt x="54" y="181" on="0"/>
        <pt x="54" y="247" on="1"/>
        <pt x="54" y="328" on="0"/>
        <pt x="158" y="457" on="0"/>
        <pt x="240" y="478" on="1"/>
        <pt x="246" y="480" on="0"/>
        <pt x="265" y="486" on="0"/>
        <pt x="271" y="489" on="1"/>
        <pt x="247" y="532" on="1"/>
        <pt x="438" y="532" on="1"/>
        <pt x="502" y="417" on="1"/>
      </contour>
      <contour>
        <pt x="341" y="167" on="0"/>
        <pt x="381" y="195" on="0"/>
        <pt x="399" y="232" on="0"/>
        <pt x="399" y="247" on="1"/>
        <pt x="399" y="273" on="0"/>
        <pt x="382" y="299" on="1"/>
        <pt x="369" y="312" on="0"/>
        <pt x="331" y="325" on="0"/>
        <pt x="309" y="325" on="1"/>
        <pt x="271" y="325" on="0"/>
        <pt x="218" y="279" on="0"/>
        <pt x="218" y="246" on="1"/>
        <pt x="218" y="209" on="0"/>
        <pt x="274" y="167" on="0"/>
        <pt x="309" y="167" on="1"/>
      </contour>
    </TTGlyph>
    <TTGlyph name="exclam" xMin="55" yMin="-20" xMax="254" yMax="770">
      <contour>
        <pt x="55" y="770" on="1"/>
        <pt x="254" y="770" on="1"/>
        <pt x="234" y="267" on="1"/>
        <pt x="75" y="267" on="1"/>
      </contour>
      <contour>
        <pt x="56" y="115" on="0"/>
        <pt x="111" y="171" on="0"/>
        <pt x="151" y="171" on="1"/>
        <pt x="190" y="171" on="0"/>
        <pt x="245" y="115" on="0"/>
        <pt x="245" y="75" on="1"/>
        <pt x="245" y="36" on="0"/>
        <pt x="190" y="-20" on="0"/>
        <pt x="151" y="-20" on="1"/>
        <pt x="111" y="-20" on="0"/>
        <pt x="56" y="36" on="0"/>
        <pt x="56" y="75" on="1"/>
      </contour>
    </TTGlyph>
    <TTGlyph name="exclamdown" xMin="55" yMin="-230" xMax="254" yMax="572">
      <contour>
        <pt x="56" y="516" on="0"/>
        <pt x="111" y="572" on="0"/>
        <pt x="151" y="572" on="1"/>
        <pt x="190" y="572" on="0"/>
        <pt x="245" y="516" on="0"/>
        <pt x="245" y="476" on="1"/>
        <pt x="245" y="437" on="0"/>
        <pt x="190" y="381" on="0"/>
        <pt x="151" y="381" on="1"/>
        <pt x="111" y="381" on="0"/>
        <pt x="56" y="437" on="0"/>
        <pt x="56" y="476" on="1"/>
      </contour>
      <contour>
        <pt x="55" y="-230" on="1"/>
        <pt x="254" y="-230" on="1"/>
        <pt x="234" y="273" on="1"/>
        <pt x="75" y="273" on="1"/>
      </contour>
    </TTGlyph>
    <TTGlyph name="f" xMin="36" yMin="0" xMax="446" yMax="775">
      <contour>
        <pt x="360" y="506" on="1"/>
        <pt x="360" y="359" on="1"/>
        <pt x="277" y="359" on="1"/>
        <pt x="277" y="152" on="1"/>
        <pt x="375" y="152" on="1"/>
        <pt x="375" y="0" on="1"/>
        <pt x="36" y="0" on="1"/>
        <pt x="36" y="152" on="1"/>
        <pt x="113" y="152" on="1"/>
        <pt x="113" y="359" on="1"/>
        <pt x="43" y="359" on="1"/>
        <pt x="43" y="506" on="1"/>
        <pt x="113" y="506" on="1"/>
        <pt x="113" y="592" on="1"/>
        <pt x="113" y="649" on="0"/>
        <pt x="168" y="732" on="0"/>
        <pt x="259" y="775" on="0"/>
        <pt x="311" y="775" on="1"/>
        <pt x="361" y="775" on="0"/>
        <pt x="432" y="745" on="0"/>
        <pt x="446" y="728" on="1"/>
        <pt x="380" y="611" on="1"/>
        <pt x="369" y="620" on="0"/>
        <pt x="348" y="629" on="0"/>
        <pt x="332" y="629" on="1"/>
        <pt x="309" y="629" on="0"/>
        <pt x="277" y="599" on="0"/>
        <pt x="277" y="573" on="1"/>
        <pt x="277" y="506" on="1"/>
      </contour>
    </TTGlyph>
    <TTGlyph name="five" xMin="60" yMin="-15" xMax="584" yMax="740">
      <contour>
        <pt x="288" y="472" on="0"/>
        <pt x="338" y="472" on="1"/>
        <pt x="404" y="472" on="0"/>
        <pt x="516" y="421" on="0"/>
        <pt x="584" y="316" on="0"/>
        <pt x="584" y="239" on="1"/>
        <pt x="584" y="155" on="0"/>
        <pt x="509" y="41" on="0"/>
        <pt x="390" y="-15" on="0"/>
        <pt x="326" y="-15" on="1"/>
        <pt x="222" y="-15" on="0"/>
        <pt x="75" y="94" on="0"/>
        <pt x="60" y="199" on="1"/>
        <pt x="237" y="240" on="1"/>
        <pt x="239" y="197" on="0"/>
        <pt x="288" y="148" on="0"/>
        <pt x="326" y="148" on="1"/>
        <pt x="364" y="148" on="0"/>
        <pt x="409" y="202" on="0"/>
        <pt x="409" y="243" on="1"/>
        <pt x="409" y="275" on="0"/>
        <pt x="359" y="327" on="0"/>
        <pt x="318" y="327" on="1"/>
        <pt x="289" y="327" on="0"/>
        <pt x="250" y="322" on="0"/>
        <pt x="225" y="314" on="1"/>
        <pt x="71" y="343" on="1"/>
        <pt x="71" y="740" on="1"/>
        <pt x="560" y="740" on="1"/>
        <pt x="560" y="567" on="1"/>
        <pt x="234" y="567" on="1"/>
        <pt x="234" y="457" on="1"/>
      </contour>
    </TTGlyph>
    <TTGlyph name="four" xMin="-9" yMin="0" xMax="595" yMax="740">
      <contour>
        <pt x="-9" y="340" on="1"/>
        <pt x="254" y="740" on="1"/>
        <pt x="438" y="740" on="1"/>
        <pt x="176" y="336" on="1"/>
        <pt x="320" y="336" on="1"/>
        <pt x="320" y="487" on="1"/>
        <pt x="493" y="487" on="1"/>
        <pt x="493" y="336" on="1"/>
        <pt x="594" y="336" on="1"/>
        <pt x="594" y="198" on="1"/>
        <pt x="493" y="198" on="1"/>
        <pt x="493" y="152" on="1"/>
        <pt x="595" y="152" on="1"/>
        <pt x="595" y="0" on="1"/>
        <pt x="250" y="0" on="1"/>
        <pt x="250" y="152" on="1"/>
        <pt x="320" y="152" on="1"/>
        <pt x="320" y="198" on="1"/>
        <pt x="-9" y="198" on="1"/>
      </contour>
    </TTGlyph>
    <TTGlyph name="fraction" xMin="-103" yMin="-30" xMax="639" yMax="770">
      <contour>
        <pt x="504" y="770" on="1"/>
        <pt x="639" y="770" on="1"/>
        <pt x="36" y="-30" on="1"/>
        <pt x="-103" y="-30" on="1"/>
      </contour>
    </TTGlyph>
    <TTGlyph name="g" xMin="23" yMin="-228" xMax="572" yMax="529">
      <contour>
        <pt x="355" y="0" on="0"/>
        <pt x="302" y="0" on="1"/>
        <pt x="222" y="0" on="0"/>
        <pt x="95" y="71" on="0"/>
        <pt x="23" y="191" on="0"/>
        <pt x="23" y="262" on="1"/>
        <pt x="23" y="332" on="0"/>
        <pt x="92" y="455" on="0"/>
        <pt x="214" y="529" on="0"/>
        <pt x="290" y="529" on="1"/>
        <pt x="342" y="529" on="0"/>
        <pt x="404" y="507" on="1"/>
        <pt x="404" y="522" on="1"/>
        <pt x="572" y="522" on="1"/>
        <pt x="572" y="21" on="1"/>
        <pt x="572" y="-61" on="0"/>
        <pt x="492" y="-174" on="0"/>
        <pt x="363" y="-228" on="0"/>
        <pt x="291" y="-228" on="1"/>
        <pt x="167" y="-228" on="0"/>
        <pt x="65" y="-163" on="1"/>
        <pt x="90" y="-117" on="1"/>
        <pt x="103" y="-92" on="0"/>
        <pt x="131" y="-42" on="1"/>
        <pt x="169" y="-63" on="0"/>
        <pt x="245" y="-84" on="0"/>
        <pt x="291" y="-84" on="1"/>
        <pt x="341" y="-84" on="0"/>
        <pt x="404" y="-36" on="0"/>
        <pt x="404" y="19" on="1"/>
        <pt x="404" y="20" on="1"/>
      </contour>
      <contour>
        <pt x="333" y="156" on="0"/>
        <pt x="388" y="191" on="0"/>
        <pt x="404" y="222" on="1"/>
        <pt x="404" y="298" on="1"/>
        <pt x="391" y="331" on="0"/>
        <pt x="336" y="371" on="0"/>
        <pt x="303" y="371" on="1"/>
        <pt x="258" y="371" on="0"/>
        <pt x="192" y="306" on="0"/>
        <pt x="192" y="262" on="1"/>
        <pt x="192" y="216" on="0"/>
        <pt x="256" y="156" on="0"/>
        <pt x="302" y="156" on="1"/>
      </contour>
    </TTGlyph>
    <TTGlyph name="germandbls" xMin="22" yMin="-6" xMax="650" yMax="771">
      <contour>
        <pt x="349" y="372" on="0"/>
        <pt x="349" y="477" on="1"/>
        <pt x="383" y="477" on="1"/>
        <pt x="385" y="477" on="1"/>
        <pt x="407" y="478" on="0"/>
        <pt x="437" y="524" on="0"/>
        <pt x="437" y="546" on="1"/>
        <pt x="437" y="581" on="0"/>
        <pt x="398" y="622" on="0"/>
        <pt x="362" y="622" on="1"/>
        <pt x="331" y="622" on="0"/>
        <pt x="293" y="580" on="0"/>
        <pt x="293" y="545" on="1"/>
        <pt x="293" y="1" on="1"/>
        <pt x="291" y="1" on="1"/>
        <pt x="291" y="0" on="1"/>
        <pt x="22" y="0" on="1"/>
        <pt x="22" y="152" on="1"/>
        <pt x="127" y="152" on="1"/>
        <pt x="127" y="577" on="1"/>
        <pt x="127" y="624" on="0"/>
        <pt x="184" y="714" on="0"/>
        <pt x="291" y="771" on="0"/>
        <pt x="362" y="771" on="1"/>
        <pt x="433" y="771" on="0"/>
        <pt x="539" y="718" on="0"/>
        <pt x="595" y="627" on="0"/>
        <pt x="595" y="572" on="1"/>
        <pt x="595" y="485" on="0"/>
        <pt x="543" y="437" on="1"/>
        <pt x="594" y="406" on="0"/>
        <pt x="650" y="306" on="0"/>
        <pt x="650" y="242" on="1"/>
        <pt x="650" y="118" on="0"/>
        <pt x="504" y="-6" on="0"/>
        <pt x="383" y="-6" on="1"/>
        <pt x="368" y="-6" on="0"/>
        <pt x="348" y="-3" on="1"/>
        <pt x="354" y="101" on="0"/>
        <pt x="358" y="148" on="1"/>
        <pt x="365" y="147" on="0"/>
        <pt x="378" y="147" on="0"/>
        <pt x="381" y="147" on="1"/>
        <pt x="418" y="147" on="0"/>
        <pt x="467" y="197" on="0"/>
        <pt x="467" y="236" on="1"/>
        <pt x="467" y="272" on="0"/>
        <pt x="418" y="321" on="0"/>
        <pt x="382" y="321" on="1"/>
        <pt x="351" y="321" on="1"/>
      </contour>
    </TTGlyph>
    <TTGlyph name="grave" xMin="79" yMin="575" xMax="350" yMax="729">
      <contour>
        <pt x="350" y="575" on="1"/>
        <pt x="252" y="729" on="1"/>
        <pt x="79" y="729" on="1"/>
        <pt x="79" y="716" on="1"/>
        <pt x="223" y="575" on="1"/>
      </contour>
    </TTGlyph>
    <TTGlyph name="greater" xMin="18" yMin="75" xMax="381" yMax="468">
      <contour>
        <pt x="381" y="212" on="1"/>
        <pt x="18" y="75" on="1"/>
        <pt x="18" y="216" on="1"/>
        <pt x="207" y="272" on="1"/>
        <pt x="18" y="323" on="1"/>
        <pt x="18" y="468" on="1"/>
        <pt x="381" y="340" on="1"/>
      </contour>
    </TTGlyph>
    <TTGlyph name="guillemotleft" xMin="27" yMin="73" xMax="504" yMax="475">
      <contour>
        <pt x="286" y="73" on="1"/>
        <pt x="168" y="73" on="1"/>
        <pt x="36" y="250" on="1"/>
        <pt x="27" y="282" on="1"/>
        <pt x="171" y="475" on="1"/>
        <pt x="285" y="475" on="1"/>
        <pt x="185" y="275" on="1"/>
      </contour>
      <contour>
        <pt x="504" y="73" on="1"/>
        <pt x="386" y="73" on="1"/>
        <pt x="254" y="250" on="1"/>
        <pt x="245" y="282" on="1"/>
        <pt x="388" y="475" on="1"/>
        <pt x="503" y="475" on="1"/>
        <pt x="403" y="275" on="1"/>
      </contour>
    </TTGlyph>
    <TTGlyph name="guillemotright" xMin="2" yMin="73" xMax="480" yMax="475">
      <contour>
        <pt x="2" y="73" on="1"/>
        <pt x="121" y="73" on="1"/>
        <pt x="252" y="250" on="1"/>
        <pt x="262" y="282" on="1"/>
        <pt x="118" y="475" on="1"/>
        <pt x="4" y="475" on="1"/>
        <pt x="104" y="275" on="1"/>
      </contour>
      <contour>
        <pt x="220" y="73" on="1"/>
        <pt x="339" y="73" on="1"/>
        <pt x="470" y="250" on="1"/>
        <pt x="480" y="282" on="1"/>
        <pt x="336" y="475" on="1"/>
        <pt x="222" y="475" on="1"/>
        <pt x="321" y="275" on="1"/>
      </contour>
    </TTGlyph>
    <TTGlyph name="guilsinglleft" xMin="27" yMin="155" xMax="286" yMax="556">
      <contour>
        <pt x="286" y="155" on="1"/>
        <pt x="168" y="155" on="1"/>
        <pt x="36" y="332" on="1"/>
        <pt x="27" y="363" on="1"/>
        <pt x="171" y="556" on="1"/>
        <pt x="285" y="556" on="1"/>
        <pt x="185" y="356" on="1"/>
      </contour>
    </TTGlyph>
    <TTGlyph name="guilsinglright" xMin="2" yMin="155" xMax="262" yMax="556">
      <contour>
        <pt x="2" y="155" on="1"/>
        <pt x="121" y="155" on="1"/>
        <pt x="252" y="332" on="1"/>
        <pt x="262" y="363" on="1"/>
        <pt x="118" y="556" on="1"/>
        <pt x="4" y="556" on="1"/>
        <pt x="104" y="356" on="1"/>
      </contour>
    </TTGlyph>
    <TTGlyph name="h" xMin="15" yMin="0" xMax="670" yMax="790">
      <contour>
        <pt x="271" y="760" on="1"/>
        <pt x="271" y="790" on="1"/>
        <pt x="272" y="790" on="1"/>
        <pt x="272" y="462" on="1"/>
        <pt x="327" y="515" on="0"/>
        <pt x="405" y="515" on="1"/>
        <pt x="492" y="515" on="0"/>
        <pt x="597" y="407" on="0"/>
        <pt x="597" y="311" on="1"/>
        <pt x="597" y="152" on="1"/>
        <pt x="670" y="152" on="1"/>
        <pt x="670" y="0" on="1"/>
        <pt x="442" y="0" on="1"/>
        <pt x="442" y="152" on="1"/>
        <pt x="424" y="152" on="1"/>
        <pt x="424" y="269" on="1"/>
        <pt x="424" y="305" on="0"/>
        <pt x="389" y="350" on="0"/>
        <pt x="363" y="350" on="1"/>
        <pt x="324" y="350" on="0"/>
        <pt x="272" y="304" on="1"/>
        <pt x="272" y="152" on="1"/>
        <pt x="346" y="152" on="1"/>
        <pt x="346" y="0" on="1"/>
        <pt x="29" y="0" on="1"/>
        <pt x="29" y="152" on="1"/>
        <pt x="101" y="152" on="1"/>
        <pt x="101" y="608" on="1"/>
        <pt x="15" y="608" on="1"/>
        <pt x="15" y="760" on="1"/>
      </contour>
    </TTGlyph>
    <TTGlyph name="hungarumlaut" xMin="42" yMin="702" xMax="483" yMax="856">
      <contour>
        <pt x="226" y="854" on="0"/>
        <pt x="276" y="856" on="1"/>
        <pt x="203" y="774" on="0"/>
        <pt x="149" y="710" on="1"/>
        <pt x="108" y="708" on="0"/>
        <pt x="42" y="702" on="1"/>
        <pt x="124" y="848" on="1"/>
      </contour>
      <contour>
        <pt x="431" y="854" on="0"/>
        <pt x="483" y="856" on="1"/>
        <pt x="388" y="759" on="1"/>
        <pt x="340" y="710" on="1"/>
        <pt x="233" y="702" on="1"/>
        <pt x="329" y="848" on="1"/>
      </contour>
    </TTGlyph>
    <TTGlyph name="hyphen" xMin="24" yMin="211" xMax="344" yMax="363">
      <contour>
        <pt x="24" y="211" on="1"/>
        <pt x="24" y="363" on="1"/>
        <pt x="344" y="363" on="1"/>
        <pt x="344" y="211" on="1"/>
      </contour>
    </TTGlyph>
    <TTGlyph name="i" xMin="24" yMin="0" xMax="342" yMax="759">
      <contour>
        <pt x="97" y="703" on="0"/>
        <pt x="152" y="759" on="0"/>
        <pt x="192" y="759" on="1"/>
        <pt x="231" y="759" on="0"/>
        <pt x="286" y="703" on="0"/>
        <pt x="286" y="663" on="1"/>
        <pt x="286" y="624" on="0"/>
        <pt x="231" y="568" on="0"/>
        <pt x="192" y="568" on="1"/>
        <pt x="152" y="568" on="0"/>
        <pt x="97" y="624" on="0"/>
        <pt x="97" y="663" on="1"/>
      </contour>
      <contour>
        <pt x="24" y="506" on="1"/>
        <pt x="274" y="506" on="1"/>
        <pt x="274" y="152" on="1"/>
        <pt x="342" y="152" on="1"/>
        <pt x="342" y="0" on="1"/>
        <pt x="24" y="0" on="1"/>
        <pt x="24" y="152" on="1"/>
        <pt x="102" y="152" on="1"/>
        <pt x="102" y="354" on="1"/>
        <pt x="24" y="354" on="1"/>
      </contour>
    </TTGlyph>
    <TTGlyph name="iacute" xMin="29" yMin="0" xMax="458" yMax="729">
      <contour>
        <pt x="284" y="729" on="1"/>
        <pt x="458" y="729" on="1"/>
        <pt x="458" y="716" on="1"/>
        <pt x="308" y="575" on="1"/>
        <pt x="178" y="575" on="1"/>
      </contour>
      <contour>
        <pt x="29" y="506" on="1"/>
        <pt x="280" y="506" on="1"/>
        <pt x="280" y="152" on="1"/>
        <pt x="347" y="152" on="1"/>
        <pt x="347" y="0" on="1"/>
        <pt x="30" y="0" on="1"/>
        <pt x="30" y="152" on="1"/>
        <pt x="107" y="152" on="1"/>
        <pt x="107" y="354" on="1"/>
        <pt x="29" y="354" on="1"/>
      </contour>
    </TTGlyph>
    <TTGlyph name="icircumflex" xMin="29" yMin="0" xMax="454" yMax="735">
      <contour>
        <pt x="170" y="574" on="1"/>
        <pt x="242" y="649" on="1"/>
        <pt x="317" y="574" on="1"/>
        <pt x="454" y="574" on="1"/>
        <pt x="316" y="735" on="1"/>
        <pt x="168" y="735" on="1"/>
        <pt x="31" y="574" on="1"/>
      </contour>
      <contour>
        <pt x="29" y="506" on="1"/>
        <pt x="280" y="506" on="1"/>
        <pt x="280" y="152" on="1"/>
        <pt x="347" y="152" on="1"/>
        <pt x="347" y="0" on="1"/>
        <pt x="30" y="0" on="1"/>
        <pt x="30" y="152" on="1"/>
        <pt x="107" y="152" on="1"/>
        <pt x="107" y="354" on="1"/>
        <pt x="29" y="354" on="1"/>
      </contour>
    </TTGlyph>
    <TTGlyph name="idieresis" xMin="11" yMin="0" xMax="438" yMax="748">
      <contour>
        <pt x="11" y="692" on="0"/>
        <pt x="66" y="748" on="0"/>
        <pt x="106" y="748" on="1"/>
        <pt x="145" y="748" on="0"/>
        <pt x="200" y="692" on="0"/>
        <pt x="200" y="652" on="1"/>
        <pt x="200" y="613" on="0"/>
        <pt x="145" y="557" on="0"/>
        <pt x="106" y="557" on="1"/>
        <pt x="66" y="557" on="0"/>
        <pt x="11" y="613" on="0"/>
        <pt x="11" y="652" on="1"/>
      </contour>
      <contour>
        <pt x="249" y="692" on="0"/>
        <pt x="304" y="748" on="0"/>
        <pt x="344" y="748" on="1"/>
        <pt x="383" y="748" on="0"/>
        <pt x="438" y="692" on="0"/>
        <pt x="438" y="652" on="1"/>
        <pt x="438" y="613" on="0"/>
        <pt x="383" y="557" on="0"/>
        <pt x="344" y="557" on="1"/>
        <pt x="304" y="557" on="0"/>
        <pt x="249" y="613" on="0"/>
        <pt x="249" y="652" on="1"/>
      </contour>
      <contour>
        <pt x="29" y="506" on="1"/>
        <pt x="280" y="506" on="1"/>
        <pt x="280" y="152" on="1"/>
        <pt x="347" y="152" on="1"/>
        <pt x="347" y="0" on="1"/>
        <pt x="30" y="0" on="1"/>
        <pt x="30" y="152" on="1"/>
        <pt x="107" y="152" on="1"/>
        <pt x="107" y="354" on="1"/>
        <pt x="29" y="354" on="1"/>
      </contour>
    </TTGlyph>
    <TTGlyph name="igrave" xMin="29" yMin="0" xMax="347" yMax="729">
      <contour>
        <pt x="307" y="575" on="1"/>
        <pt x="209" y="729" on="1"/>
        <pt x="36" y="729" on="1"/>
        <pt x="36" y="716" on="1"/>
        <pt x="180" y="575" on="1"/>
      </contour>
      <contour>
        <pt x="29" y="506" on="1"/>
        <pt x="280" y="506" on="1"/>
        <pt x="280" y="152" on="1"/>
        <pt x="347" y="152" on="1"/>
        <pt x="347" y="0" on="1"/>
        <pt x="30" y="0" on="1"/>
        <pt x="30" y="152" on="1"/>
        <pt x="107" y="152" on="1"/>
        <pt x="107" y="354" on="1"/>
        <pt x="29" y="354" on="1"/>
      </contour>
    </TTGlyph>
    <TTGlyph name="j" xMin="19" yMin="-230" xMax="279" yMax="761">
      <contour>
        <pt x="85" y="704" on="0"/>
        <pt x="141" y="761" on="0"/>
        <pt x="182" y="761" on="1"/>
        <pt x="221" y="761" on="0"/>
        <pt x="279" y="703" on="0"/>
        <pt x="279" y="663" on="1"/>
        <pt x="279" y="623" on="0"/>
        <pt x="221" y="566" on="0"/>
        <pt x="182" y="566" on="1"/>
        <pt x="141" y="566" on="0"/>
        <pt x="85" y="623" on="0"/>
        <pt x="85" y="663" on="1"/>
      </contour>
      <contour>
        <pt x="275" y="506" on="1"/>
        <pt x="275" y="324" on="1"/>
        <pt x="262" y="324" on="1"/>
        <pt x="262" y="2" on="1"/>
        <pt x="262" y="-121" on="0"/>
        <pt x="144" y="-230" on="0"/>
        <pt x="27" y="-229" on="1"/>
        <pt x="26" y="-165" on="1"/>
        <pt x="27" y="-102" on="1"/>
        <pt x="58" y="-102" on="0"/>
        <pt x="91" y="-56" on="0"/>
        <pt x="91" y="-15" on="1"/>
        <pt x="91" y="354" on="1"/>
        <pt x="19" y="354" on="1"/>
        <pt x="19" y="506" on="1"/>
      </contour>
    </TTGlyph>
    <TTGlyph name="k" xMin="18" yMin="0" xMax="639" yMax="760">
      <contour>
        <pt x="285" y="760" on="1"/>
        <pt x="285" y="671" on="1"/>
        <pt x="286" y="671" on="1"/>
        <pt x="286" y="331" on="1"/>
        <pt x="337" y="331" on="1"/>
        <pt x="340" y="337" on="0"/>
        <pt x="343" y="349" on="0"/>
        <pt x="345" y="354" on="1"/>
        <pt x="350" y="354" on="1"/>
        <pt x="350" y="506" on="1"/>
        <pt x="639" y="506" on="1"/>
        <pt x="639" y="354" on="1"/>
        <pt x="539" y="354" on="1"/>
        <pt x="466" y="263" on="1"/>
        <pt x="508" y="209" on="1"/>
        <pt x="517" y="196" on="0"/>
        <pt x="537" y="170" on="1"/>
        <pt x="629" y="170" on="1"/>
        <pt x="629" y="0" on="1"/>
        <pt x="481" y="0" on="1"/>
        <pt x="332" y="214" on="1"/>
        <pt x="286" y="214" on="1"/>
        <pt x="286" y="152" on="1"/>
        <pt x="341" y="152" on="1"/>
        <pt x="341" y="0" on="1"/>
        <pt x="38" y="0" on="1"/>
        <pt x="38" y="152" on="1"/>
        <pt x="115" y="152" on="1"/>
        <pt x="115" y="608" on="1"/>
        <pt x="18" y="608" on="1"/>
        <pt x="18" y="760" on="1"/>
      </contour>
    </TTGlyph>
    <TTGlyph name="l" xMin="25" yMin="0" xMax="352" yMax="760">
      <contour>
        <pt x="25" y="760" on="1"/>
        <pt x="276" y="760" on="1"/>
        <pt x="276" y="578" on="1"/>
        <pt x="274" y="152" on="1"/>
        <pt x="352" y="152" on="1"/>
        <pt x="352" y="0" on="1"/>
        <pt x="26" y="0" on="1"/>
        <pt x="26" y="152" on="1"/>
        <pt x="103" y="152" on="1"/>
        <pt x="103" y="608" on="1"/>
        <pt x="25" y="608" on="1"/>
      </contour>
    </TTGlyph>
    <TTGlyph name="less" xMin="19" yMin="75" xMax="381" yMax="468">
      <contour>
        <pt x="19" y="339" on="1"/>
        <pt x="381" y="468" on="1"/>
        <pt x="381" y="323" on="1"/>
        <pt x="193" y="272" on="1"/>
        <pt x="381" y="216" on="1"/>
        <pt x="381" y="75" on="1"/>
        <pt x="19" y="211" on="1"/>
      </contour>
    </TTGlyph>
    <TTGlyph name="logicalnot" xMin="25" yMin="89" xMax="812" yMax="512">
      <contour>
        <pt x="25" y="512" on="1"/>
        <pt x="25" y="376" on="1"/>
        <pt x="654" y="376" on="1"/>
        <pt x="654" y="89" on="1"/>
        <pt x="812" y="89" on="1"/>
        <pt x="812" y="512" on="1"/>
      </contour>
    </TTGlyph>
    <TTGlyph name="m" xMin="24" yMin="0" xMax="1043" yMax="516">
      <contour>
        <pt x="242" y="506" on="1"/>
        <pt x="233" y="503" on="0"/>
        <pt x="223" y="503" on="1"/>
        <pt x="223" y="442" on="1"/>
        <pt x="266" y="477" on="0"/>
        <pt x="373" y="516" on="0"/>
        <pt x="428" y="516" on="1"/>
        <pt x="546" y="516" on="0"/>
        <pt x="595" y="435" on="1"/>
        <pt x="627" y="472" on="0"/>
        <pt x="722" y="516" on="0"/>
        <pt x="774" y="516" on="1"/>
        <pt x="870" y="516" on="0"/>
        <pt x="971" y="410" on="0"/>
        <pt x="971" y="311" on="1"/>
        <pt x="971" y="152" on="1"/>
        <pt x="1043" y="152" on="1"/>
        <pt x="1043" y="0" on="1"/>
        <pt x="815" y="0" on="1"/>
        <pt x="815" y="83" on="1"/>
        <pt x="789" y="83" on="1"/>
        <pt x="789" y="281" on="1"/>
        <pt x="789" y="319" on="0"/>
        <pt x="750" y="364" on="0"/>
        <pt x="716" y="364" on="1"/>
        <pt x="689" y="364" on="0"/>
        <pt x="649" y="339" on="0"/>
        <pt x="627" y="305" on="1"/>
        <pt x="627" y="293" on="1"/>
        <pt x="627" y="152" on="1"/>
        <pt x="700" y="152" on="1"/>
        <pt x="700" y="0" on="1"/>
        <pt x="472" y="0" on="1"/>
        <pt x="472" y="152" on="1"/>
        <pt x="446" y="152" on="1"/>
        <pt x="446" y="282" on="1"/>
        <pt x="446" y="316" on="0"/>
        <pt x="404" y="362" on="0"/>
        <pt x="373" y="364" on="1"/>
        <pt x="346" y="364" on="0"/>
        <pt x="301" y="342" on="0"/>
        <pt x="281" y="312" on="1"/>
        <pt x="281" y="152" on="1"/>
        <pt x="365" y="152" on="1"/>
        <pt x="365" y="0" on="1"/>
        <pt x="24" y="0" on="1"/>
        <pt x="24" y="152" on="1"/>
        <pt x="100" y="152" on="1"/>
        <pt x="100" y="354" on="1"/>
        <pt x="26" y="354" on="1"/>
        <pt x="26" y="506" on="1"/>
      </contour>
    </TTGlyph>
    <TTGlyph name="macron" xMin="48" yMin="565" xMax="371" yMax="687">
      <contour>
        <pt x="371" y="565" on="1"/>
        <pt x="48" y="565" on="1"/>
        <pt x="48" y="687" on="1"/>
        <pt x="371" y="687" on="1"/>
      </contour>
    </TTGlyph>
    <TTGlyph name="minus" xMin="68" yMin="219" xMax="568" yMax="373">
      <contour>
        <pt x="68" y="373" on="1"/>
        <pt x="568" y="373" on="1"/>
        <pt x="568" y="219" on="1"/>
        <pt x="68" y="219" on="1"/>
      </contour>
    </TTGlyph>
    <TTGlyph name="multiply" xMin="14" yMin="45" xMax="580" yMax="616">
      <contour>
        <pt x="185" y="323" on="1"/>
        <pt x="14" y="501" on="1"/>
        <pt x="135" y="613" on="1"/>
        <pt x="297" y="444" on="1"/>
        <pt x="461" y="616" on="1"/>
        <pt x="580" y="503" on="1"/>
        <pt x="409" y="324" on="1"/>
        <pt x="571" y="156" on="1"/>
        <pt x="451" y="45" on="1"/>
        <pt x="296" y="205" on="1"/>
        <pt x="143" y="46" on="1"/>
        <pt x="26" y="158" on="1"/>
      </contour>
    </TTGlyph>
    <TTGlyph name="n" xMin="24" yMin="0" xMax="697" yMax="515">
      <contour>
        <pt x="443" y="152" on="1"/>
        <pt x="443" y="282" on="1"/>
        <pt x="443" y="318" on="0"/>
        <pt x="403" y="364" on="0"/>
        <pt x="373" y="364" on="1"/>
        <pt x="346" y="364" on="0"/>
        <pt x="300" y="342" on="0"/>
        <pt x="279" y="311" on="1"/>
        <pt x="279" y="152" on="1"/>
        <pt x="365" y="152" on="1"/>
        <pt x="365" y="0" on="1"/>
        <pt x="24" y="0" on="1"/>
        <pt x="24" y="152" on="1"/>
        <pt x="99" y="152" on="1"/>
        <pt x="99" y="354" on="1"/>
        <pt x="26" y="354" on="1"/>
        <pt x="26" y="506" on="1"/>
        <pt x="279" y="506" on="1"/>
        <pt x="279" y="466" on="1"/>
        <pt x="310" y="490" on="0"/>
        <pt x="389" y="515" on="0"/>
        <pt x="431" y="515" on="1"/>
        <pt x="524" y="515" on="0"/>
        <pt x="625" y="409" on="0"/>
        <pt x="625" y="311" on="1"/>
        <pt x="625" y="152" on="1"/>
        <pt x="697" y="152" on="1"/>
        <pt x="697" y="0" on="1"/>
        <pt x="470" y="0" on="1"/>
        <pt x="470" y="152" on="1"/>
      </contour>
    </TTGlyph>
    <TTGlyph name="nine" xMin="54" yMin="-1" xMax="563" yMax="746">
      <contour>
        <pt x="271" y="260" on="1"/>
        <pt x="265" y="263" on="0"/>
        <pt x="246" y="269" on="0"/>
        <pt x="240" y="271" on="1"/>
        <pt x="158" y="292" on="0"/>
        <pt x="54" y="421" on="0"/>
        <pt x="54" y="502" on="1"/>
        <pt x="54" y="568" on="0"/>
        <pt x="122" y="680" on="0"/>
        <pt x="239" y="746" on="0"/>
        <pt x="309" y="746" on="1"/>
        <pt x="378" y="746" on="0"/>
        <pt x="495" y="681" on="0"/>
        <pt x="563" y="570" on="0"/>
        <pt x="563" y="505" on="1"/>
        <pt x="563" y="460" on="0"/>
        <pt x="533" y="386" on="0"/>
        <pt x="502" y="332" on="1"/>
        <pt x="318" y="-1" on="1"/>
        <pt x="127" y="-1" on="1"/>
      </contour>
      <contour>
        <pt x="331" y="424" on="0"/>
        <pt x="369" y="437" on="0"/>
        <pt x="382" y="450" on="1"/>
        <pt x="399" y="476" on="0"/>
        <pt x="399" y="502" on="1"/>
        <pt x="399" y="517" on="0"/>
        <pt x="381" y="554" on="0"/>
        <pt x="341" y="582" on="0"/>
        <pt x="309" y="582" on="1"/>
        <pt x="274" y="582" on="0"/>
        <pt x="218" y="540" on="0"/>
        <pt x="218" y="503" on="1"/>
        <pt x="218" y="470" on="0"/>
        <pt x="271" y="424" on="0"/>
        <pt x="309" y="424" on="1"/>
      </contour>
    </TTGlyph>
    <TTGlyph name="ntilde" xMin="28" yMin="0" xMax="675" yMax="733">
      <contour>
        <pt x="365" y="733" on="0"/>
        <pt x="398" y="722" on="0"/>
        <pt x="428" y="710" on="1"/>
        <pt x="455" y="699" on="0"/>
        <pt x="483" y="690" on="0"/>
        <pt x="497" y="690" on="1"/>
        <pt x="521" y="690" on="0"/>
        <pt x="555" y="704" on="0"/>
        <pt x="570" y="721" on="1"/>
        <pt x="654" y="681" on="1"/>
        <pt x="636" y="634" on="0"/>
        <pt x="556" y="570" on="0"/>
        <pt x="510" y="570" on="1"/>
        <pt x="487" y="570" on="0"/>
        <pt x="445" y="581" on="0"/>
        <pt x="419" y="592" on="1"/>
        <pt x="373" y="611" on="0"/>
        <pt x="345" y="611" on="1"/>
        <pt x="327" y="611" on="0"/>
        <pt x="301" y="598" on="0"/>
        <pt x="283" y="584" on="0"/>
        <pt x="280" y="582" on="1"/>
        <pt x="198" y="619" on="1"/>
        <pt x="207" y="653" on="0"/>
        <pt x="260" y="705" on="0"/>
        <pt x="324" y="733" on="0"/>
        <pt x="348" y="733" on="1"/>
      </contour>
      <contour>
        <pt x="447" y="152" on="1"/>
        <pt x="447" y="282" on="1"/>
        <pt x="447" y="318" on="0"/>
        <pt x="407" y="364" on="0"/>
        <pt x="377" y="364" on="1"/>
        <pt x="349" y="364" on="0"/>
        <pt x="304" y="342" on="0"/>
        <pt x="283" y="311" on="1"/>
        <pt x="283" y="152" on="1"/>
        <pt x="368" y="152" on="1"/>
        <pt x="368" y="0" on="1"/>
        <pt x="28" y="0" on="1"/>
        <pt x="28" y="152" on="1"/>
        <pt x="102" y="152" on="1"/>
        <pt x="102" y="354" on="1"/>
        <pt x="30" y="354" on="1"/>
        <pt x="30" y="506" on="1"/>
        <pt x="282" y="506" on="1"/>
        <pt x="282" y="466" on="1"/>
        <pt x="346" y="515" on="0"/>
        <pt x="434" y="515" on="1"/>
        <pt x="528" y="515" on="0"/>
        <pt x="629" y="409" on="0"/>
        <pt x="629" y="311" on="1"/>
        <pt x="629" y="152" on="1"/>
        <pt x="675" y="152" on="1"/>
        <pt x="675" y="0" on="1"/>
        <pt x="448" y="0" on="1"/>
        <pt x="448" y="152" on="1"/>
      </contour>
    </TTGlyph>
    <TTGlyph name="numbersign" xMin="2" yMin="0" xMax="751" yMax="740">
      <contour>
        <pt x="80" y="585" on="1"/>
        <pt x="156" y="585" on="1"/>
        <pt x="187" y="740" on="1"/>
        <pt x="373" y="740" on="1"/>
        <pt x="343" y="585" on="1"/>
        <pt x="498" y="585" on="1"/>
        <pt x="528" y="740" on="1"/>
        <pt x="715" y="740" on="1"/>
        <pt x="685" y="585" on="1"/>
        <pt x="751" y="585" on="1"/>
        <pt x="716" y="432" on="1"/>
        <pt x="655" y="432" on="1"/>
        <pt x="623" y="270" on="1"/>
        <pt x="706" y="270" on="1"/>
        <pt x="670" y="118" on="1"/>
        <pt x="593" y="118" on="1"/>
        <pt x="571" y="0" on="1"/>
        <pt x="383" y="0" on="1"/>
        <pt x="406" y="118" on="1"/>
        <pt x="254" y="118" on="1"/>
        <pt x="231" y="0" on="1"/>
        <pt x="41" y="0" on="1"/>
        <pt x="65" y="118" on="1"/>
        <pt x="2" y="118" on="1"/>
        <pt x="37" y="270" on="1"/>
        <pt x="94" y="270" on="1"/>
        <pt x="126" y="432" on="1"/>
        <pt x="45" y="432" on="1"/>
      </contour>
      <contour>
        <pt x="283" y="270" on="1"/>
        <pt x="436" y="270" on="1"/>
        <pt x="467" y="432" on="1"/>
        <pt x="314" y="432" on="1"/>
      </contour>
    </TTGlyph>
    <TTGlyph name="o" xMin="31" yMin="-11" xMax="581" yMax="521">
      <contour>
        <pt x="31" y="327" on="0"/>
        <pt x="103" y="448" on="0"/>
        <pt x="229" y="521" on="0"/>
        <pt x="307" y="521" on="1"/>
        <pt x="385" y="521" on="0"/>
        <pt x="510" y="448" on="0"/>
        <pt x="581" y="326" on="0"/>
        <pt x="581" y="255" on="1"/>
        <pt x="581" y="184" on="0"/>
        <pt x="512" y="62" on="0"/>
        <pt x="387" y="-11" on="0"/>
        <pt x="307" y="-11" on="1"/>
        <pt x="226" y="-11" on="0"/>
        <pt x="100" y="61" on="0"/>
        <pt x="31" y="184" on="0"/>
        <pt x="31" y="256" on="1"/>
      </contour>
      <contour>
        <pt x="196" y="209" on="0"/>
        <pt x="261" y="144" on="0"/>
        <pt x="307" y="144" on="1"/>
        <pt x="353" y="144" on="0"/>
        <pt x="415" y="208" on="0"/>
        <pt x="415" y="256" on="1"/>
        <pt x="415" y="305" on="0"/>
        <pt x="353" y="366" on="0"/>
        <pt x="307" y="366" on="1"/>
        <pt x="260" y="366" on="0"/>
        <pt x="196" y="305" on="0"/>
        <pt x="196" y="256" on="1"/>
      </contour>
    </TTGlyph>
    <TTGlyph name="oacute" xMin="24" yMin="-11" xMax="574" yMax="729">
      <component glyphName="o" x="-7" y="0" flags="0x0"/>
      <component glyphName="acute" x="236" y="0" flags="0x0"/>
    </TTGlyph>
    <TTGlyph name="ocircumflex" xMin="24" yMin="-11" xMax="574" yMax="735">
      <component glyphName="o" x="-7" y="0" flags="0x0"/>
      <component glyphName="circumflex" x="81" y="0" flags="0x0"/>
    </TTGlyph>
    <TTGlyph name="odieresis" xMin="31" yMin="-11" xMax="581" yMax="748">
      <component glyphName="o" x="0" y="0" flags="0x0"/>
      <component glyphName="dotaccent" x="56" y="-11" flags="0x4"/>
      <component glyphName="dotaccent" x="294" y="-11" flags="0x4"/>
    </TTGlyph>
    <TTGlyph name="ogonek" xMin="14" yMin="-223" xMax="238" yMax="52">
      <contour>
        <pt x="166" y="-13" on="0"/>
        <pt x="114" y="-66" on="0"/>
        <pt x="114" y="-100" on="1"/>
        <pt x="114" y="-117" on="0"/>
        <pt x="140" y="-133" on="0"/>
        <pt x="159" y="-133" on="1"/>
        <pt x="190" y="-133" on="0"/>
        <pt x="214" y="-122" on="1"/>
        <pt x="238" y="-203" on="1"/>
        <pt x="226" y="-210" on="0"/>
        <pt x="172" y="-223" on="0"/>
        <pt x="151" y="-223" on="1"/>
        <pt x="90" y="-223" on="0"/>
        <pt x="14" y="-170" on="0"/>
        <pt x="14" y="-122" on="1"/>
        <pt x="14" y="-76" on="0"/>
        <pt x="72" y="-3" on="0"/>
        <pt x="153" y="43" on="0"/>
        <pt x="187" y="52" on="1"/>
        <pt x="229" y="14" on="1"/>
      </contour>
    </TTGlyph>
    <TTGlyph name="ograve" xMin="24" yMin="-11" xMax="574" yMax="729">
      <component glyphName="o" x="-7" y="0" flags="0x0"/>
      <component glyphName="grave" x="27" y="0" flags="0x0"/>
    </TTGlyph>
    <TTGlyph name="one" xMin="13" yMin="0" xMax="378" yMax="735">
      <contour>
        <pt x="34" y="152" on="1"/>
        <pt x="114" y="152" on="1"/>
        <pt x="114" y="482" on="1"/>
        <pt x="13" y="419" on="1"/>
        <pt x="13" y="613" on="1"/>
        <pt x="216" y="735" on="1"/>
        <pt x="299" y="734" on="1"/>
        <pt x="299" y="152" on="1"/>
        <pt x="378" y="152" on="1"/>
        <pt x="378" y="0" on="1"/>
        <pt x="34" y="0" on="1"/>
      </contour>
    </TTGlyph>
    <TTGlyph name="onehalf" xMin="287" yMin="-30" xMax="1096" yMax="770">
      <component glyphName="fraction" x="390" y="0" flags="0x0"/>
      <component glyphName="uni2082" x="0" y="0" flags="0x0"/>
      <component glyphName="uni00B9" x="291" y="-30" flags="0x4"/>
    </TTGlyph>
    <TTGlyph name="onequarter" xMin="287" yMin="-30" xMax="1114" yMax="770">
      <component glyphName="fraction" x="390" y="0" flags="0x0"/>
      <component glyphName="uni2084" x="0" y="0" flags="0x0"/>
      <component glyphName="uni00B9" x="291" y="-30" flags="0x4"/>
    </TTGlyph>
    <TTGlyph name="ordfeminine" xMin="85" yMin="382" xMax="451" yMax="755">
      <contour>
        <pt x="264" y="387" on="0"/>
        <pt x="231" y="382" on="0"/>
        <pt x="209" y="382" on="1"/>
        <pt x="152" y="382" on="0"/>
        <pt x="85" y="447" on="0"/>
        <pt x="85" y="500" on="1"/>
        <pt x="85" y="541" on="0"/>
        <pt x="135" y="606" on="0"/>
        <pt x="201" y="606" on="1"/>
        <pt x="233" y="606" on="0"/>
        <pt x="281" y="598" on="1"/>
        <pt x="281" y="624" on="1"/>
        <pt x="281" y="636" on="0"/>
        <pt x="252" y="645" on="0"/>
        <pt x="224" y="645" on="1"/>
        <pt x="194" y="645" on="0"/>
        <pt x="154" y="638" on="0"/>
        <pt x="129" y="626" on="1"/>
        <pt x="90" y="703" on="1"/>
        <pt x="130" y="730" on="0"/>
        <pt x="205" y="755" on="0"/>
        <pt x="249" y="755" on="1"/>
        <pt x="402" y="755" on="0"/>
        <pt x="402" y="627" on="1"/>
        <pt x="402" y="500" on="1"/>
        <pt x="451" y="500" on="1"/>
        <pt x="451" y="389" on="1"/>
        <pt x="283" y="389" on="1"/>
        <pt x="283" y="393" on="1"/>
      </contour>
      <contour>
        <pt x="260" y="476" on="0"/>
        <pt x="281" y="486" on="1"/>
        <pt x="281" y="516" on="1"/>
        <pt x="220" y="516" on="1"/>
        <pt x="202" y="516" on="0"/>
        <pt x="202" y="496" on="1"/>
        <pt x="202" y="488" on="0"/>
        <pt x="211" y="476" on="0"/>
        <pt x="221" y="476" on="1"/>
      </contour>
    </TTGlyph>
    <TTGlyph name="ordmasculine" xMin="23" yMin="394" xMax="399" yMax="755">
      <contour>
        <pt x="23" y="621" on="0"/>
        <pt x="72" y="704" on="0"/>
        <pt x="159" y="755" on="0"/>
        <pt x="212" y="755" on="1"/>
        <pt x="264" y="755" on="0"/>
        <pt x="350" y="704" on="0"/>
        <pt x="399" y="620" on="0"/>
        <pt x="399" y="575" on="1"/>
        <pt x="399" y="529" on="0"/>
        <pt x="351" y="445" on="0"/>
        <pt x="266" y="394" on="0"/>
        <pt x="212" y="394" on="1"/>
        <pt x="157" y="394" on="0"/>
        <pt x="71" y="445" on="0"/>
        <pt x="23" y="529" on="0"/>
        <pt x="23" y="575" on="1"/>
      </contour>
      <contour>
        <pt x="146" y="558" on="0"/>
        <pt x="186" y="523" on="0"/>
        <pt x="212" y="523" on="1"/>
        <pt x="237" y="523" on="0"/>
        <pt x="275" y="558" on="0"/>
        <pt x="275" y="575" on="1"/>
        <pt x="275" y="593" on="0"/>
        <pt x="238" y="625" on="0"/>
        <pt x="212" y="625" on="1"/>
        <pt x="185" y="625" on="0"/>
        <pt x="146" y="593" on="0"/>
        <pt x="146" y="575" on="1"/>
      </contour>
    </TTGlyph>
    <TTGlyph name="oslash" xMin="-9" yMin="-30" xMax="579" yMax="570">
      <contour>
        <pt x="529" y="412" on="0"/>
        <pt x="574" y="311" on="0"/>
        <pt x="574" y="255" on="1"/>
        <pt x="574" y="184" on="0"/>
        <pt x="505" y="62" on="0"/>
        <pt x="380" y="-11" on="0"/>
        <pt x="300" y="-11" on="1"/>
        <pt x="226" y="-11" on="0"/>
        <pt x="167" y="20" on="1"/>
        <pt x="130" y="-30" on="1"/>
        <pt x="-9" y="-30" on="1"/>
        <pt x="81" y="89" on="1"/>
        <pt x="24" y="163" on="0"/>
        <pt x="24" y="256" on="1"/>
        <pt x="24" y="327" on="0"/>
        <pt x="96" y="448" on="0"/>
        <pt x="222" y="521" on="0"/>
        <pt x="300" y="521" on="1"/>
        <pt x="349" y="521" on="0"/>
        <pt x="395" y="505" on="1"/>
        <pt x="444" y="570" on="1"/>
        <pt x="579" y="570" on="1"/>
        <pt x="489" y="449" on="1"/>
      </contour>
      <contour>
        <pt x="189" y="249" on="0"/>
        <pt x="191" y="235" on="1"/>
        <pt x="290" y="366" on="1"/>
        <pt x="246" y="362" on="0"/>
        <pt x="189" y="302" on="0"/>
        <pt x="189" y="256" on="1"/>
      </contour>
      <contour>
        <pt x="346" y="144" on="0"/>
        <pt x="408" y="208" on="0"/>
        <pt x="408" y="256" on="1"/>
        <pt x="408" y="292" on="0"/>
        <pt x="391" y="318" on="1"/>
        <pt x="265" y="150" on="1"/>
        <pt x="282" y="144" on="0"/>
        <pt x="300" y="144" on="1"/>
      </contour>
    </TTGlyph>
    <TTGlyph name="otilde" xMin="24" yMin="-11" xMax="574" yMax="733">
      <component glyphName="o" x="-7" y="0" flags="0x0"/>
      <component glyphName="tilde" x="62" y="0" flags="0x0"/>
    </TTGlyph>
    <TTGlyph name="p" xMin="30" yMin="-230" xMax="664" yMax="522">
      <contour>
        <pt x="85" y="506" on="1"/>
        <pt x="85" y="522" on="1"/>
        <pt x="177" y="503" on="0"/>
        <pt x="236" y="503" on="1"/>
        <pt x="236" y="502" on="1"/>
        <pt x="258" y="502" on="1"/>
        <pt x="258" y="492" on="1"/>
        <pt x="328" y="522" on="0"/>
        <pt x="391" y="522" on="1"/>
        <pt x="467" y="522" on="0"/>
        <pt x="592" y="448" on="0"/>
        <pt x="664" y="324" on="0"/>
        <pt x="664" y="254" on="1"/>
        <pt x="664" y="184" on="0"/>
        <pt x="596" y="64" on="0"/>
        <pt x="474" y="-8" on="0"/>
        <pt x="398" y="-8" on="1"/>
        <pt x="341" y="-8" on="0"/>
        <pt x="289" y="14" on="1"/>
        <pt x="289" y="-78" on="1"/>
        <pt x="392" y="-78" on="1"/>
        <pt x="392" y="-230" on="1"/>
        <pt x="30" y="-230" on="1"/>
        <pt x="30" y="-78" on="1"/>
        <pt x="118" y="-78" on="1"/>
        <pt x="118" y="354" on="1"/>
        <pt x="68" y="354" on="1"/>
        <pt x="68" y="506" on="1"/>
      </contour>
      <contour>
        <pt x="355" y="367" on="0"/>
        <pt x="305" y="335" on="0"/>
        <pt x="289" y="304" on="1"/>
        <pt x="289" y="207" on="1"/>
        <pt x="305" y="179" on="0"/>
        <pt x="356" y="147" on="0"/>
        <pt x="385" y="147" on="1"/>
        <pt x="431" y="147" on="0"/>
        <pt x="495" y="210" on="0"/>
        <pt x="495" y="254" on="1"/>
        <pt x="495" y="305" on="0"/>
        <pt x="432" y="367" on="0"/>
        <pt x="384" y="367" on="1"/>
      </contour>
    </TTGlyph>
    <TTGlyph name="paragraph" xMin="34" yMin="-176" xMax="687" yMax="740">
      <contour>
        <pt x="132" y="258" on="0"/>
        <pt x="34" y="385" on="0"/>
        <pt x="34" y="479" on="1"/>
        <pt x="34" y="549" on="0"/>
        <pt x="110" y="669" on="0"/>
        <pt x="248" y="740" on="0"/>
        <pt x="338" y="740" on="1"/>
        <pt x="687" y="740" on="1"/>
        <pt x="687" y="586" on="1"/>
        <pt x="607" y="586" on="1"/>
        <pt x="607" y="-176" on="1"/>
        <pt x="445" y="-176" on="1"/>
        <pt x="445" y="586" on="1"/>
        <pt x="371" y="586" on="1"/>
        <pt x="371" y="-176" on="1"/>
        <pt x="208" y="-176" on="1"/>
        <pt x="208" y="231" on="1"/>
      </contour>
    </TTGlyph>
    <TTGlyph name="parenleft" xMin="47" yMin="-231" xMax="387" yMax="888">
      <contour>
        <pt x="148" y="-111" on="0"/>
        <pt x="47" y="173" on="0"/>
        <pt x="47" y="326" on="1"/>
        <pt x="47" y="480" on="0"/>
        <pt x="149" y="768" on="0"/>
        <pt x="248" y="888" on="1"/>
        <pt x="387" y="794" on="1"/>
        <pt x="312" y="694" on="0"/>
        <pt x="229" y="450" on="0"/>
        <pt x="229" y="326" on="1"/>
        <pt x="229" y="202" on="0"/>
        <pt x="312" y="-44" on="0"/>
        <pt x="386" y="-144" on="1"/>
        <pt x="245" y="-231" on="1"/>
      </contour>
    </TTGlyph>
    <TTGlyph name="parenright" xMin="-5" yMin="-231" xMax="335" yMax="888">
      <contour>
        <pt x="70" y="-37" on="0"/>
        <pt x="153" y="208" on="0"/>
        <pt x="153" y="331" on="1"/>
        <pt x="153" y="456" on="0"/>
        <pt x="70" y="701" on="0"/>
        <pt x="-4" y="802" on="1"/>
        <pt x="136" y="888" on="1"/>
        <pt x="234" y="769" on="0"/>
        <pt x="335" y="484" on="0"/>
        <pt x="335" y="331" on="1"/>
        <pt x="335" y="177" on="0"/>
        <pt x="233" y="-111" on="0"/>
        <pt x="134" y="-231" on="1"/>
        <pt x="-5" y="-136" on="1"/>
      </contour>
    </TTGlyph>
    <TTGlyph name="percent" xMin="106" yMin="-8" xMax="877" yMax="756">
      <contour>
        <pt x="106" y="620" on="0"/>
        <pt x="156" y="706" on="0"/>
        <pt x="243" y="756" on="0"/>
        <pt x="298" y="756" on="1"/>
        <pt x="352" y="756" on="0"/>
        <pt x="440" y="706" on="0"/>
        <pt x="489" y="620" on="0"/>
        <pt x="489" y="570" on="1"/>
        <pt x="489" y="520" on="0"/>
        <pt x="441" y="435" on="0"/>
        <pt x="353" y="384" on="0"/>
        <pt x="298" y="384" on="1"/>
        <pt x="242" y="384" on="0"/>
        <pt x="154" y="435" on="0"/>
        <pt x="106" y="520" on="0"/>
        <pt x="106" y="570" on="1"/>
      </contour>
      <contour>
        <pt x="669" y="752" on="1"/>
        <pt x="812" y="752" on="1"/>
        <pt x="304" y="-8" on="1"/>
        <pt x="161" y="-8" on="1"/>
      </contour>
      <contour>
        <pt x="271" y="632" on="0"/>
        <pt x="235" y="597" on="0"/>
        <pt x="235" y="570" on="1"/>
        <pt x="235" y="544" on="0"/>
        <pt x="272" y="508" on="0"/>
        <pt x="298" y="508" on="1"/>
        <pt x="324" y="508" on="0"/>
        <pt x="360" y="544" on="0"/>
        <pt x="360" y="570" on="1"/>
        <pt x="360" y="597" on="0"/>
        <pt x="325" y="632" on="0"/>
        <pt x="298" y="632" on="1"/>
      </contour>
      <contour>
        <pt x="494" y="235" on="0"/>
        <pt x="543" y="321" on="0"/>
        <pt x="631" y="371" on="0"/>
        <pt x="685" y="371" on="1"/>
        <pt x="740" y="371" on="0"/>
        <pt x="827" y="321" on="0"/>
        <pt x="877" y="235" on="0"/>
        <pt x="877" y="185" on="1"/>
        <pt x="877" y="135" on="0"/>
        <pt x="828" y="50" on="0"/>
        <pt x="741" y="-1" on="0"/>
        <pt x="685" y="-1" on="1"/>
        <pt x="630" y="-1" on="0"/>
        <pt x="542" y="50" on="0"/>
        <pt x="494" y="135" on="0"/>
        <pt x="494" y="185" on="1"/>
      </contour>
      <contour>
        <pt x="658" y="247" on="0"/>
        <pt x="623" y="212" on="0"/>
        <pt x="623" y="185" on="1"/>
        <pt x="623" y="159" on="0"/>
        <pt x="659" y="123" on="0"/>
        <pt x="685" y="123" on="1"/>
        <pt x="711" y="123" on="0"/>
        <pt x="748" y="159" on="0"/>
        <pt x="748" y="185" on="1"/>
        <pt x="748" y="212" on="0"/>
        <pt x="712" y="247" on="0"/>
        <pt x="685" y="247" on="1"/>
      </contour>
    </TTGlyph>
    <TTGlyph name="period" xMin="31" yMin="-20" xMax="220" yMax="171">
      <component glyphName="dotaccent" x="0" y="-588" flags="0x4"/>
    </TTGlyph>
    <TTGlyph name="periodcentered" xMin="103" yMin="208" xMax="292" yMax="399">
      <component glyphName="dotaccent" x="72" y="-360" flags="0x4"/>
    </TTGlyph>
    <TTGlyph name="plus" xMin="43" yMin="15" xMax="543" yMax="515">
      <contour>
        <pt x="43" y="348" on="1"/>
        <pt x="210" y="348" on="1"/>
        <pt x="210" y="515" on="1"/>
        <pt x="375" y="515" on="1"/>
        <pt x="375" y="348" on="1"/>
        <pt x="543" y="348" on="1"/>
        <pt x="543" y="183" on="1"/>
        <pt x="375" y="183" on="1"/>
        <pt x="375" y="15" on="1"/>
        <pt x="210" y="15" on="1"/>
        <pt x="210" y="183" on="1"/>
        <pt x="43" y="183" on="1"/>
      </contour>
    </TTGlyph>
    <TTGlyph name="plusminus" xMin="50" yMin="-14" xMax="550" yMax="640">
      <contour>
        <pt x="50" y="473" on="1"/>
        <pt x="217" y="473" on="1"/>
        <pt x="217" y="640" on="1"/>
        <pt x="382" y="640" on="1"/>
        <pt x="382" y="473" on="1"/>
        <pt x="550" y="473" on="1"/>
        <pt x="550" y="308" on="1"/>
        <pt x="382" y="308" on="1"/>
        <pt x="382" y="163" on="1"/>
        <pt x="217" y="163" on="1"/>
        <pt x="217" y="308" on="1"/>
        <pt x="50" y="308" on="1"/>
      </contour>
      <contour>
        <pt x="50" y="140" on="1"/>
        <pt x="550" y="140" on="1"/>
        <pt x="550" y="-14" on="1"/>
        <pt x="50" y="-14" on="1"/>
      </contour>
    </TTGlyph>
    <TTGlyph name="q" xMin="25" yMin="-230" xMax="642" yMax="526">
      <contour>
        <pt x="396" y="-78" on="1"/>
        <pt x="396" y="10" on="1"/>
        <pt x="339" y="-10" on="0"/>
        <pt x="297" y="-10" on="1"/>
        <pt x="218" y="-10" on="0"/>
        <pt x="94" y="64" on="0"/>
        <pt x="25" y="187" on="0"/>
        <pt x="25" y="258" on="1"/>
        <pt x="25" y="328" on="0"/>
        <pt x="94" y="449" on="0"/>
        <pt x="215" y="522" on="0"/>
        <pt x="291" y="522" on="1"/>
        <pt x="343" y="522" on="0"/>
        <pt x="396" y="505" on="1"/>
        <pt x="396" y="526" on="1"/>
        <pt x="567" y="526" on="1"/>
        <pt x="567" y="-78" on="1"/>
        <pt x="642" y="-78" on="1"/>
        <pt x="642" y="-230" on="1"/>
        <pt x="280" y="-230" on="1"/>
        <pt x="280" y="-78" on="1"/>
      </contour>
      <contour>
        <pt x="331" y="147" on="0"/>
        <pt x="379" y="175" on="0"/>
        <pt x="396" y="201" on="1"/>
        <pt x="396" y="311" on="1"/>
        <pt x="382" y="337" on="0"/>
        <pt x="333" y="367" on="0"/>
        <pt x="305" y="367" on="1"/>
        <pt x="258" y="367" on="0"/>
        <pt x="193" y="304" on="0"/>
        <pt x="193" y="255" on="1"/>
        <pt x="193" y="208" on="0"/>
        <pt x="259" y="147" on="0"/>
        <pt x="305" y="147" on="1"/>
      </contour>
    </TTGlyph>
    <TTGlyph name="question" xMin="39" yMin="-20" xMax="504" yMax="755">
      <contour>
        <pt x="148" y="275" on="0"/>
        <pt x="158" y="341" on="0"/>
        <pt x="194" y="386" on="0"/>
        <pt x="238" y="415" on="1"/>
        <pt x="277" y="448" on="0"/>
        <pt x="299" y="500" on="0"/>
        <pt x="299" y="542" on="1"/>
        <pt x="299" y="589" on="0"/>
        <pt x="267" y="589" on="1"/>
        <pt x="265" y="589" on="0"/>
        <pt x="236" y="590" on="0"/>
        <pt x="218" y="556" on="0"/>
        <pt x="218" y="521" on="1"/>
        <pt x="39" y="539" on="1"/>
        <pt x="40" y="650" on="0"/>
        <pt x="167" y="755" on="0"/>
        <pt x="275" y="755" on="1"/>
        <pt x="338" y="755" on="0"/>
        <pt x="442" y="707" on="0"/>
        <pt x="504" y="610" on="0"/>
        <pt x="504" y="539" on="1"/>
        <pt x="504" y="485" on="0"/>
        <pt x="456" y="394" on="0"/>
        <pt x="405" y="353" on="1"/>
        <pt x="358" y="319" on="0"/>
        <pt x="324" y="258" on="0"/>
        <pt x="324" y="201" on="1"/>
        <pt x="148" y="201" on="1"/>
      </contour>
      <contour>
        <pt x="141" y="115" on="0"/>
        <pt x="196" y="171" on="0"/>
        <pt x="236" y="171" on="1"/>
        <pt x="275" y="171" on="0"/>
        <pt x="330" y="115" on="0"/>
        <pt x="330" y="75" on="1"/>
        <pt x="330" y="36" on="0"/>
        <pt x="275" y="-20" on="0"/>
        <pt x="236" y="-20" on="1"/>
        <pt x="196" y="-20" on="0"/>
        <pt x="141" y="36" on="0"/>
        <pt x="141" y="75" on="1"/>
      </contour>
    </TTGlyph>
    <TTGlyph name="questiondown" xMin="-20" yMin="-221" xMax="445" yMax="557">
      <contour>
        <pt x="129" y="501" on="0"/>
        <pt x="184" y="557" on="0"/>
        <pt x="224" y="557" on="1"/>
        <pt x="263" y="557" on="0"/>
        <pt x="318" y="501" on="0"/>
        <pt x="318" y="461" on="1"/>
        <pt x="318" y="422" on="0"/>
        <pt x="263" y="366" on="0"/>
        <pt x="224" y="366" on="1"/>
        <pt x="184" y="366" on="0"/>
        <pt x="129" y="422" on="0"/>
        <pt x="129" y="461" on="1"/>
      </contour>
      <contour>
        <pt x="335" y="259" on="0"/>
        <pt x="325" y="193" on="0"/>
        <pt x="289" y="148" on="0"/>
        <pt x="245" y="119" on="1"/>
        <pt x="206" y="87" on="0"/>
        <pt x="184" y="34" on="0"/>
        <pt x="184" y="-8" on="1"/>
        <pt x="184" y="-55" on="0"/>
        <pt x="217" y="-55" on="1"/>
        <pt x="219" y="-55" on="0"/>
        <pt x="247" y="-56" on="0"/>
        <pt x="265" y="-22" on="0"/>
        <pt x="265" y="13" on="1"/>
        <pt x="445" y="-5" on="1"/>
        <pt x="444" y="-116" on="0"/>
        <pt x="316" y="-221" on="0"/>
        <pt x="208" y="-221" on="1"/>
        <pt x="145" y="-221" on="0"/>
        <pt x="42" y="-173" on="0"/>
        <pt x="-20" y="-76" on="0"/>
        <pt x="-20" y="-5" on="1"/>
        <pt x="-20" y="50" on="0"/>
        <pt x="27" y="140" on="0"/>
        <pt x="78" y="181" on="1"/>
        <pt x="125" y="215" on="0"/>
        <pt x="159" y="276" on="0"/>
        <pt x="159" y="333" on="1"/>
        <pt x="335" y="333" on="1"/>
      </contour>
    </TTGlyph>
    <TTGlyph name="quotedbl" xMin="20" yMin="517" xMax="310" yMax="770">
      <contour>
        <pt x="141" y="517" on="1"/>
        <pt x="40" y="517" on="1"/>
        <pt x="20" y="770" on="1"/>
        <pt x="150" y="770" on="1"/>
      </contour>
      <contour>
        <pt x="287" y="517" on="1"/>
        <pt x="190" y="517" on="1"/>
        <pt x="183" y="770" on="1"/>
        <pt x="310" y="770" on="1"/>
      </contour>
    </TTGlyph>
    <TTGlyph name="quotedblbase" xMin="10" yMin="-182" xMax="518" yMax="138">
      <component glyphName="comma" x="0" y="0" flags="0x0"/>
      <component glyphName="comma" x="254" y="0" flags="0x0"/>
    </TTGlyph>
    <TTGlyph name="quotedblleft" xMin="-43" yMin="485" xMax="472" yMax="831">
      <contour>
        <pt x="116" y="831" on="1"/>
        <pt x="239" y="781" on="1"/>
        <pt x="113" y="492" on="1"/>
        <pt x="-43" y="549" on="1"/>
      </contour>
      <contour>
        <pt x="348" y="827" on="1"/>
        <pt x="472" y="782" on="1"/>
        <pt x="363" y="485" on="1"/>
        <pt x="207" y="542" on="1"/>
      </contour>
    </TTGlyph>
    <TTGlyph name="quotedblright" xMin="-20" yMin="485" xMax="495" yMax="831">
      <contour>
        <pt x="104" y="489" on="1"/>
        <pt x="-20" y="533" on="1"/>
        <pt x="89" y="831" on="1"/>
        <pt x="245" y="774" on="1"/>
      </contour>
      <contour>
        <pt x="336" y="485" on="1"/>
        <pt x="212" y="535" on="1"/>
        <pt x="339" y="824" on="1"/>
        <pt x="495" y="767" on="1"/>
      </contour>
    </TTGlyph>
    <TTGlyph name="quoteleft" xMin="-6" yMin="494" xMax="252" yMax="822">
      <contour>
        <pt x="139" y="822" on="1"/>
        <pt x="252" y="782" on="1"/>
        <pt x="163" y="494" on="1"/>
        <pt x="-6" y="551" on="1"/>
      </contour>
    </TTGlyph>
    <TTGlyph name="quoteright" xMin="-3" yMin="490" xMax="252" yMax="810">
      <contour>
        <pt x="87" y="810" on="1"/>
        <pt x="252" y="755" on="1"/>
        <pt x="108" y="490" on="1"/>
        <pt x="-3" y="532" on="1"/>
      </contour>
    </TTGlyph>
    <TTGlyph name="quotesingle" xMin="18" yMin="517" xMax="158" yMax="778">
      <contour>
        <pt x="125" y="517" on="1"/>
        <pt x="18" y="517" on="1"/>
        <pt x="18" y="770" on="1"/>
        <pt x="158" y="778" on="1"/>
      </contour>
    </TTGlyph>
    <TTGlyph name="r" xMin="36" yMin="0" xMax="534" yMax="506">
      <contour>
        <pt x="381" y="294" on="1"/>
        <pt x="381" y="354" on="1"/>
        <pt x="333" y="354" on="0"/>
        <pt x="289" y="337" on="0"/>
        <pt x="285" y="309" on="1"/>
        <pt x="285" y="152" on="1"/>
        <pt x="394" y="152" on="1"/>
        <pt x="394" y="0" on="1"/>
        <pt x="36" y="0" on="1"/>
        <pt x="36" y="152" on="1"/>
        <pt x="114" y="152" on="1"/>
        <pt x="114" y="354" on="1"/>
        <pt x="36" y="354" on="1"/>
        <pt x="36" y="506" on="1"/>
        <pt x="285" y="506" on="1"/>
        <pt x="285" y="482" on="1"/>
        <pt x="327" y="505" on="0"/>
        <pt x="391" y="505" on="1"/>
        <pt x="429" y="505" on="0"/>
        <pt x="449" y="504" on="1"/>
        <pt x="464" y="504" on="0"/>
        <pt x="508" y="503" on="0"/>
        <pt x="534" y="504" on="1"/>
        <pt x="534" y="294" on="1"/>
      </contour>
    </TTGlyph>
    <TTGlyph name="registered" xMin="-3" yMin="-92" xMax="940" yMax="849">
      <contour>
        <pt x="-3" y="507" on="0"/>
        <pt x="123" y="723" on="0"/>
        <pt x="339" y="849" on="0"/>
        <pt x="468" y="849" on="1"/>
        <pt x="596" y="849" on="0"/>
        <pt x="813" y="723" on="0"/>
        <pt x="940" y="507" on="0"/>
        <pt x="940" y="379" on="1"/>
        <pt x="940" y="250" on="0"/>
        <pt x="813" y="34" on="0"/>
        <pt x="596" y="-92" on="0"/>
        <pt x="468" y="-92" on="1"/>
        <pt x="339" y="-92" on="0"/>
        <pt x="123" y="34" on="0"/>
        <pt x="-3" y="250" on="0"/>
        <pt x="-3" y="379" on="1"/>
      </contour>
      <contour>
        <pt x="130" y="285" on="0"/>
        <pt x="220" y="130" on="0"/>
        <pt x="375" y="40" on="0"/>
        <pt x="468" y="40" on="1"/>
        <pt x="561" y="40" on="0"/>
        <pt x="716" y="130" on="0"/>
        <pt x="806" y="285" on="0"/>
        <pt x="806" y="379" on="1"/>
        <pt x="806" y="472" on="0"/>
        <pt x="716" y="627" on="0"/>
        <pt x="561" y="717" on="0"/>
        <pt x="468" y="717" on="1"/>
        <pt x="375" y="717" on="0"/>
        <pt x="220" y="627" on="0"/>
        <pt x="130" y="472" on="0"/>
        <pt x="130" y="379" on="1"/>
      </contour>
      <contour>
        <pt x="289" y="264" on="1"/>
        <pt x="289" y="499" on="1"/>
        <pt x="238" y="499" on="1"/>
        <pt x="238" y="615" on="1"/>
        <pt x="524" y="615" on="1"/>
        <pt x="575" y="615" on="0"/>
        <pt x="648" y="572" on="0"/>
        <pt x="684" y="509" on="0"/>
        <pt x="684" y="478" on="1"/>
        <pt x="684" y="431" on="0"/>
        <pt x="650" y="379" on="0"/>
        <pt x="604" y="361" on="1"/>
        <pt x="624" y="353" on="0"/>
        <pt x="650" y="320" on="0"/>
        <pt x="656" y="290" on="1"/>
        <pt x="662" y="264" on="1"/>
        <pt x="698" y="264" on="1"/>
        <pt x="699" y="147" on="1"/>
        <pt x="518" y="147" on="1"/>
        <pt x="516" y="228" on="1"/>
        <pt x="516" y="237" on="0"/>
        <pt x="515" y="287" on="0"/>
        <pt x="493" y="302" on="0"/>
        <pt x="466" y="302" on="1"/>
        <pt x="433" y="302" on="1"/>
        <pt x="433" y="264" on="1"/>
        <pt x="471" y="264" on="1"/>
        <pt x="471" y="147" on="1"/>
        <pt x="234" y="147" on="1"/>
        <pt x="234" y="264" on="1"/>
      </contour>
      <contour>
        <pt x="433" y="419" on="1"/>
        <pt x="452" y="419" on="1"/>
        <pt x="489" y="419" on="0"/>
        <pt x="526" y="437" on="0"/>
        <pt x="526" y="458" on="1"/>
        <pt x="526" y="477" on="0"/>
        <pt x="490" y="499" on="0"/>
        <pt x="461" y="499" on="1"/>
        <pt x="433" y="499" on="1"/>
      </contour>
    </TTGlyph>
    <TTGlyph name="ring" xMin="130" yMin="437" xMax="461" yMax="769">
      <contour>
        <pt x="340" y="769" on="0"/>
        <pt x="416" y="724" on="0"/>
        <pt x="461" y="648" on="0"/>
        <pt x="461" y="603" on="1"/>
        <pt x="461" y="558" on="0"/>
        <pt x="416" y="482" on="0"/>
        <pt x="340" y="437" on="0"/>
        <pt x="295" y="437" on="1"/>
        <pt x="250" y="437" on="0"/>
        <pt x="174" y="482" on="0"/>
        <pt x="130" y="558" on="0"/>
        <pt x="130" y="603" on="1"/>
        <pt x="130" y="648" on="0"/>
        <pt x="174" y="724" on="0"/>
        <pt x="250" y="769" on="0"/>
        <pt x="295" y="769" on="1"/>
      </contour>
      <contour>
        <pt x="231" y="575" on="0"/>
        <pt x="268" y="538" on="0"/>
        <pt x="295" y="538" on="1"/>
        <pt x="323" y="538" on="0"/>
        <pt x="359" y="575" on="0"/>
        <pt x="359" y="603" on="1"/>
        <pt x="359" y="630" on="0"/>
        <pt x="323" y="666" on="0"/>
        <pt x="295" y="666" on="1"/>
        <pt x="268" y="666" on="0"/>
        <pt x="231" y="630" on="0"/>
        <pt x="231" y="603" on="1"/>
      </contour>
    </TTGlyph>
    <TTGlyph name="s" xMin="19" yMin="-11" xMax="515" yMax="536">
      <contour>
        <pt x="370" y="364" on="0"/>
        <pt x="308" y="397" on="0"/>
        <pt x="252" y="397" on="1"/>
        <pt x="193" y="397" on="0"/>
        <pt x="193" y="367" on="1"/>
        <pt x="193" y="346" on="0"/>
        <pt x="229" y="341" on="1"/>
        <pt x="273" y="334" on="0"/>
        <pt x="369" y="317" on="0"/>
        <pt x="399" y="309" on="1"/>
        <pt x="462" y="287" on="0"/>
        <pt x="515" y="220" on="0"/>
        <pt x="515" y="171" on="1"/>
        <pt x="515" y="112" on="0"/>
        <pt x="441" y="30" on="0"/>
        <pt x="327" y="-11" on="0"/>
        <pt x="268" y="-11" on="1"/>
        <pt x="218" y="-11" on="0"/>
        <pt x="150" y="7" on="0"/>
        <pt x="124" y="24" on="1"/>
        <pt x="22" y="24" on="1"/>
        <pt x="22" y="179" on="1"/>
        <pt x="174" y="179" on="1"/>
        <pt x="174" y="155" on="0"/>
        <pt x="228" y="126" on="0"/>
        <pt x="268" y="126" on="1"/>
        <pt x="347" y="126" on="0"/>
        <pt x="347" y="156" on="1"/>
        <pt x="347" y="176" on="0"/>
        <pt x="281" y="196" on="0"/>
        <pt x="219" y="205" on="1"/>
        <pt x="167" y="212" on="0"/>
        <pt x="146" y="219" on="1"/>
        <pt x="19" y="260" on="0"/>
        <pt x="19" y="367" on="1"/>
        <pt x="19" y="417" on="0"/>
        <pt x="82" y="494" on="0"/>
        <pt x="188" y="536" on="0"/>
        <pt x="249" y="536" on="1"/>
        <pt x="305" y="536" on="0"/>
        <pt x="377" y="516" on="0"/>
        <pt x="407" y="499" on="1"/>
        <pt x="505" y="499" on="1"/>
        <pt x="505" y="344" on="1"/>
        <pt x="370" y="344" on="1"/>
      </contour>
    </TTGlyph>
    <TTGlyph name="scaron" xMin="19" yMin="-11" xMax="515" yMax="713">
      <component glyphName="s" x="0" y="0" flags="0x0"/>
      <component glyphName="caron" x="7" y="0" flags="0x0"/>
    </TTGlyph>
    <TTGlyph name="scaron.001" xMin="19" yMin="-11" xMax="515" yMax="713">
      <component glyphName="s" x="0" y="0" flags="0x0"/>
      <component glyphName="caron" x="7" y="0" flags="0x0"/>
    </TTGlyph>
    <TTGlyph name="section" xMin="6" yMin="-229" xMax="548" yMax="756">
      <contour>
        <pt x="520" y="116" on="0"/>
        <pt x="548" y="46" on="0"/>
        <pt x="548" y="3" on="1"/>
        <pt x="548" y="-66" on="0"/>
        <pt x="483" y="-172" on="0"/>
        <pt x="364" y="-229" on="0"/>
        <pt x="285" y="-229" on="1"/>
        <pt x="215" y="-229" on="0"/>
        <pt x="87" y="-170" on="0"/>
        <pt x="59" y="-115" on="1"/>
        <pt x="6" y="-115" on="1"/>
        <pt x="6" y="52" on="1"/>
        <pt x="195" y="52" on="1"/>
        <pt x="195" y="-2" on="1"/>
        <pt x="201" y="-28" on="0"/>
        <pt x="243" y="-61" on="0"/>
        <pt x="282" y="-61" on="1"/>
        <pt x="313" y="-61" on="0"/>
        <pt x="344" y="-35" on="0"/>
        <pt x="344" y="-12" on="1"/>
        <pt x="344" y="3" on="0"/>
        <pt x="321" y="18" on="0"/>
        <pt x="288" y="28" on="0"/>
        <pt x="279" y="31" on="1"/>
        <pt x="231" y="46" on="1"/>
        <pt x="217" y="50" on="0"/>
        <pt x="186" y="60" on="0"/>
        <pt x="169" y="66" on="1"/>
        <pt x="107" y="87" on="0"/>
        <pt x="19" y="190" on="0"/>
        <pt x="19" y="269" on="1"/>
        <pt x="19" y="348" on="0"/>
        <pt x="62" y="401" on="1"/>
        <pt x="7" y="461" on="0"/>
        <pt x="7" y="544" on="1"/>
        <pt x="7" y="647" on="0"/>
        <pt x="152" y="756" on="0"/>
        <pt x="264" y="756" on="1"/>
        <pt x="344" y="756" on="0"/>
        <pt x="465" y="689" on="0"/>
        <pt x="489" y="644" on="1"/>
        <pt x="540" y="644" on="1"/>
        <pt x="540" y="477" on="1"/>
        <pt x="372" y="477" on="1"/>
        <pt x="443" y="455" on="0"/>
        <pt x="533" y="366" on="0"/>
        <pt x="533" y="278" on="1"/>
        <pt x="533" y="199" on="0"/>
        <pt x="496" y="140" on="1"/>
      </contour>
      <contour>
        <pt x="304" y="495" on="0"/>
        <pt x="349" y="484" on="1"/>
        <pt x="349" y="500" on="1"/>
        <pt x="348" y="500" on="1"/>
        <pt x="349" y="515" on="1"/>
        <pt x="349" y="516" on="1"/>
        <pt x="352" y="547" on="0"/>
        <pt x="301" y="597" on="0"/>
        <pt x="266" y="597" on="1"/>
        <pt x="206" y="597" on="0"/>
        <pt x="206" y="556" on="1"/>
        <pt x="206" y="531" on="0"/>
        <pt x="235" y="513" on="0"/>
        <pt x="265" y="506" on="1"/>
        <pt x="294" y="498" on="1"/>
      </contour>
      <contour>
        <pt x="329" y="231" on="0"/>
        <pt x="329" y="263" on="1"/>
        <pt x="329" y="280" on="0"/>
        <pt x="307" y="296" on="0"/>
        <pt x="279" y="306" on="0"/>
        <pt x="273" y="308" on="1"/>
        <pt x="274" y="308" on="1"/>
        <pt x="274" y="309" on="1"/>
        <pt x="257" y="316" on="1"/>
        <pt x="240" y="314" on="0"/>
        <pt x="218" y="300" on="0"/>
        <pt x="218" y="280" on="1"/>
        <pt x="218" y="244" on="0"/>
        <pt x="258" y="234" on="1"/>
        <pt x="302" y="220" on="0"/>
        <pt x="308" y="218" on="1"/>
      </contour>
    </TTGlyph>
    <TTGlyph name="semicolon" xMin="-37" yMin="-182" xMax="220" yMax="539">
      <component glyphName="dotaccent" x="0" y="-220" flags="0x4"/>
      <component glyphName="comma" x="-47" y="0" flags="0x0"/>
    </TTGlyph>
    <TTGlyph name="seven" xMin="20" yMin="0" xMax="581" yMax="740">
      <contour>
        <pt x="170" y="152" on="1"/>
        <pt x="260" y="341" on="0"/>
        <pt x="358" y="567" on="1"/>
        <pt x="176" y="567" on="1"/>
        <pt x="176" y="474" on="1"/>
        <pt x="20" y="474" on="1"/>
        <pt x="20" y="740" on="1"/>
        <pt x="581" y="740" on="1"/>
        <pt x="581" y="617" on="1"/>
        <pt x="462" y="364" on="0"/>
        <pt x="358" y="152" on="1"/>
        <pt x="401" y="152" on="1"/>
        <pt x="401" y="0" on="1"/>
        <pt x="120" y="0" on="1"/>
        <pt x="120" y="152" on="1"/>
      </contour>
    </TTGlyph>
    <TTGlyph name="six" xMin="27" yMin="-6" xMax="536" yMax="741">
      <contour>
        <pt x="318" y="481" on="1"/>
        <pt x="328" y="476" on="0"/>
        <pt x="351" y="469" on="1"/>
        <pt x="432" y="448" on="0"/>
        <pt x="536" y="319" on="0"/>
        <pt x="536" y="238" on="1"/>
        <pt x="536" y="172" on="0"/>
        <pt x="467" y="60" on="0"/>
        <pt x="350" y="-6" on="0"/>
        <pt x="280" y="-6" on="1"/>
        <pt x="211" y="-6" on="0"/>
        <pt x="95" y="59" on="0"/>
        <pt x="27" y="170" on="0"/>
        <pt x="27" y="235" on="1"/>
        <pt x="27" y="280" on="0"/>
        <pt x="57" y="354" on="0"/>
        <pt x="88" y="408" on="1"/>
        <pt x="272" y="741" on="1"/>
        <pt x="464" y="741" on="1"/>
      </contour>
      <contour>
        <pt x="258" y="316" on="0"/>
        <pt x="217" y="301" on="0"/>
        <pt x="204" y="287" on="1"/>
        <pt x="190" y="264" on="0"/>
        <pt x="190" y="238" on="1"/>
        <pt x="190" y="223" on="0"/>
        <pt x="208" y="186" on="0"/>
        <pt x="248" y="158" on="0"/>
        <pt x="281" y="158" on="1"/>
        <pt x="315" y="158" on="0"/>
        <pt x="372" y="200" on="0"/>
        <pt x="372" y="237" on="1"/>
        <pt x="372" y="270" on="0"/>
        <pt x="319" y="316" on="0"/>
        <pt x="281" y="316" on="1"/>
      </contour>
    </TTGlyph>
    <TTGlyph name="slash" xMin="24" yMin="0" xMax="448" yMax="760">
      <contour>
        <pt x="308" y="760" on="1"/>
        <pt x="448" y="760" on="1"/>
        <pt x="167" y="0" on="1"/>
        <pt x="24" y="0" on="1"/>
      </contour>
    </TTGlyph>
    <TTGlyph name="sterling" xMin="21" yMin="-1" xMax="528" yMax="712">
      <contour>
        <pt x="54" y="409" on="1"/>
        <pt x="49" y="445" on="0"/>
        <pt x="50" y="500" on="1"/>
        <pt x="51" y="520" on="0"/>
        <pt x="57" y="549" on="1"/>
        <pt x="77" y="625" on="0"/>
        <pt x="200" y="712" on="0"/>
        <pt x="280" y="712" on="1"/>
        <pt x="393" y="712" on="0"/>
        <pt x="515" y="600" on="0"/>
        <pt x="528" y="482" on="1"/>
        <pt x="335" y="476" on="1"/>
        <pt x="331" y="546" on="0"/>
        <pt x="284" y="546" on="1"/>
        <pt x="266" y="546" on="0"/>
        <pt x="241" y="519" on="0"/>
        <pt x="241" y="488" on="1"/>
        <pt x="241" y="467" on="0"/>
        <pt x="247" y="438" on="0"/>
        <pt x="259" y="409" on="1"/>
        <pt x="388" y="409" on="1"/>
        <pt x="388" y="271" on="1"/>
        <pt x="314" y="271" on="1"/>
        <pt x="314" y="265" on="1"/>
        <pt x="314" y="259" on="0"/>
        <pt x="312" y="245" on="1"/>
        <pt x="308" y="191" on="0"/>
        <pt x="308" y="174" on="1"/>
        <pt x="308" y="159" on="0"/>
        <pt x="309" y="152" on="1"/>
        <pt x="503" y="152" on="1"/>
        <pt x="503" y="-1" on="1"/>
        <pt x="46" y="-1" on="1"/>
        <pt x="46" y="152" on="1"/>
        <pt x="133" y="152" on="1"/>
        <pt x="121" y="176" on="0"/>
        <pt x="114" y="225" on="0"/>
        <pt x="113" y="230" on="1"/>
        <pt x="111" y="236" on="0"/>
        <pt x="102" y="262" on="0"/>
        <pt x="98" y="271" on="1"/>
        <pt x="21" y="271" on="1"/>
        <pt x="21" y="409" on="1"/>
      </contour>
    </TTGlyph>
    <TTGlyph name="t" xMin="-2" yMin="-12" xMax="355" yMax="710">
      <contour>
        <pt x="337" y="506" on="1"/>
        <pt x="337" y="359" on="1"/>
        <pt x="242" y="359" on="1"/>
        <pt x="241" y="173" on="1"/>
        <pt x="241" y="142" on="0"/>
        <pt x="258" y="120" on="0"/>
        <pt x="276" y="120" on="1"/>
        <pt x="299" y="120" on="0"/>
        <pt x="330" y="130" on="0"/>
        <pt x="334" y="131" on="1"/>
        <pt x="355" y="25" on="1"/>
        <pt x="300" y="-12" on="0"/>
        <pt x="221" y="-12" on="1"/>
        <pt x="182" y="-12" on="0"/>
        <pt x="110" y="28" on="0"/>
        <pt x="66" y="104" on="0"/>
        <pt x="66" y="154" on="1"/>
        <pt x="68" y="359" on="1"/>
        <pt x="-2" y="359" on="1"/>
        <pt x="-2" y="506" on="1"/>
        <pt x="68" y="506" on="1"/>
        <pt x="69" y="627" on="1"/>
        <pt x="244" y="710" on="1"/>
        <pt x="243" y="506" on="1"/>
      </contour>
    </TTGlyph>
    <TTGlyph name="thorn" xMin="9" yMin="-230" xMax="621" yMax="770">
      <contour>
        <pt x="251" y="770" on="1"/>
        <pt x="251" y="618" on="1"/>
        <pt x="250" y="618" on="1"/>
        <pt x="250" y="509" on="1"/>
        <pt x="305" y="529" on="0"/>
        <pt x="341" y="529" on="1"/>
        <pt x="420" y="529" on="0"/>
        <pt x="548" y="454" on="0"/>
        <pt x="621" y="330" on="0"/>
        <pt x="621" y="258" on="1"/>
        <pt x="621" y="187" on="0"/>
        <pt x="553" y="65" on="0"/>
        <pt x="431" y="-8" on="0"/>
        <pt x="356" y="-8" on="1"/>
        <pt x="298" y="-8" on="0"/>
        <pt x="250" y="9" on="1"/>
        <pt x="250" y="-78" on="1"/>
        <pt x="372" y="-78" on="1"/>
        <pt x="372" y="-230" on="1"/>
        <pt x="9" y="-230" on="1"/>
        <pt x="9" y="-78" on="1"/>
        <pt x="79" y="-78" on="1"/>
        <pt x="79" y="618" on="1"/>
        <pt x="9" y="618" on="1"/>
        <pt x="9" y="770" on="1"/>
      </contour>
      <contour>
        <pt x="285" y="365" on="0"/>
        <pt x="250" y="312" on="1"/>
        <pt x="250" y="206" on="1"/>
        <pt x="265" y="180" on="0"/>
        <pt x="315" y="150" on="0"/>
        <pt x="343" y="150" on="1"/>
        <pt x="389" y="150" on="0"/>
        <pt x="453" y="214" on="0"/>
        <pt x="453" y="258" on="1"/>
        <pt x="453" y="304" on="0"/>
        <pt x="389" y="365" on="0"/>
        <pt x="343" y="365" on="1"/>
      </contour>
    </TTGlyph>
    <TTGlyph name="three" xMin="3" yMin="-10" xMax="531" yMax="758">
      <contour>
        <pt x="346" y="549" on="0"/>
        <pt x="299" y="590" on="0"/>
        <pt x="267" y="590" on="1"/>
        <pt x="235" y="590" on="0"/>
        <pt x="189" y="553" on="0"/>
        <pt x="189" y="520" on="1"/>
        <pt x="189" y="504" on="1"/>
        <pt x="16" y="505" on="1"/>
        <pt x="15" y="573" on="0"/>
        <pt x="76" y="689" on="0"/>
        <pt x="191" y="758" on="0"/>
        <pt x="267" y="758" on="1"/>
        <pt x="335" y="758" on="0"/>
        <pt x="451" y="696" on="0"/>
        <pt x="519" y="593" on="0"/>
        <pt x="519" y="533" on="1"/>
        <pt x="519" y="489" on="0"/>
        <pt x="484" y="414" on="0"/>
        <pt x="457" y="389" on="1"/>
        <pt x="488" y="368" on="0"/>
        <pt x="531" y="281" on="0"/>
        <pt x="531" y="232" on="1"/>
        <pt x="531" y="168" on="0"/>
        <pt x="462" y="57" on="0"/>
        <pt x="341" y="-10" on="0"/>
        <pt x="267" y="-10" on="1"/>
        <pt x="193" y="-10" on="0"/>
        <pt x="72" y="54" on="0"/>
        <pt x="3" y="164" on="0"/>
        <pt x="3" y="229" on="1"/>
        <pt x="3" y="240" on="1"/>
        <pt x="3" y="251" on="0"/>
        <pt x="4" y="259" on="1"/>
        <pt x="178" y="259" on="1"/>
        <pt x="175" y="158" on="0"/>
        <pt x="267" y="158" on="1"/>
        <pt x="305" y="158" on="0"/>
        <pt x="356" y="201" on="0"/>
        <pt x="356" y="231" on="1"/>
        <pt x="356" y="264" on="0"/>
        <pt x="310" y="306" on="0"/>
        <pt x="267" y="306" on="1"/>
        <pt x="190" y="306" on="1"/>
        <pt x="190" y="460" on="1"/>
        <pt x="272" y="460" on="1"/>
        <pt x="307" y="460" on="0"/>
        <pt x="346" y="495" on="0"/>
        <pt x="346" y="523" on="1"/>
      </contour>
    </TTGlyph>
    <TTGlyph name="threequarters" xMin="274" yMin="-30" xMax="1074" yMax="770">
      <component glyphName="fraction" x="390" y="0" flags="0x0"/>
      <component glyphName="uni2084" x="-40" y="0" flags="0x0"/>
      <component glyphName="uni00B3" x="242" y="-23" flags="0x4"/>
    </TTGlyph>
    <TTGlyph name="tilde" xMin="-9" yMin="570" xMax="447" yMax="733">
      <contour>
        <pt x="158" y="733" on="0"/>
        <pt x="191" y="722" on="0"/>
        <pt x="221" y="710" on="1"/>
        <pt x="248" y="699" on="0"/>
        <pt x="276" y="690" on="0"/>
        <pt x="290" y="690" on="1"/>
        <pt x="314" y="690" on="0"/>
        <pt x="348" y="704" on="0"/>
        <pt x="363" y="721" on="1"/>
        <pt x="447" y="681" on="1"/>
        <pt x="429" y="634" on="0"/>
        <pt x="349" y="570" on="0"/>
        <pt x="303" y="570" on="1"/>
        <pt x="279" y="570" on="0"/>
        <pt x="238" y="581" on="0"/>
        <pt x="212" y="592" on="1"/>
        <pt x="166" y="611" on="0"/>
        <pt x="138" y="611" on="1"/>
        <pt x="120" y="611" on="0"/>
        <pt x="94" y="598" on="0"/>
        <pt x="76" y="584" on="0"/>
        <pt x="73" y="582" on="1"/>
        <pt x="-9" y="619" on="1"/>
        <pt x="0" y="653" on="0"/>
        <pt x="53" y="705" on="0"/>
        <pt x="117" y="733" on="0"/>
        <pt x="141" y="733" on="1"/>
      </contour>
    </TTGlyph>
</ttFont>
